<?xml version="1.0" encoding="UTF-8" standalone="no"?>
<!DOCTYPE svg PUBLIC "-//W3C//DTD SVG 1.1//EN"
 "http://www.w3.org/Graphics/SVG/1.1/DTD/svg11.dtd">
<!-- Generated by graphviz version 2.38.0 (20140413.2041)
 -->
<!-- Title: C:/Users/longw/Documents/GitHub/ARC/include/AR.h Pages: 1 -->
<svg width="585pt" height="151pt"
 viewBox="0.00 0.00 584.50 151.00" xmlns="http://www.w3.org/2000/svg" xmlns:xlink="http://www.w3.org/1999/xlink">
<g id="graph0" class="graph" transform="scale(1 1) rotate(0) translate(4 147)">
<title>C:/Users/longw/Documents/GitHub/ARC/include/AR.h</title>
<polygon fill="white" stroke="none" points="-4,4 -4,-147 580.5,-147 580.5,4 -4,4"/>
<!-- Node0 -->
<g id="node1" class="node"><title>Node0</title>
<polygon fill="#bfbfbf" stroke="black" points="197,-112.5 197,-142.5 331,-142.5 331,-112.5 197,-112.5"/>
<text text-anchor="start" x="205" y="-130.5" font-family="FreeSans" font-size="10.00">C:/Users/longw/Documents</text>
<text text-anchor="middle" x="264" y="-119.5" font-family="FreeSans" font-size="10.00">/GitHub/ARC/include/AR.h</text>
</g>
<!-- Node1 -->
<g id="node2" class="node"><title>Node1</title>
<polygon fill="white" stroke="#bfbfbf" points="0,-0.5 0,-19.5 54,-19.5 54,-0.5 0,-0.5"/>
<text text-anchor="middle" x="27" y="-7.5" font-family="FreeSans" font-size="10.00">iostream</text>
</g>
<!-- Node0&#45;&gt;Node1 -->
<g id="edge1" class="edge"><title>Node0&#45;&gt;Node1</title>
<path fill="none" stroke="midnightblue" d="M196.902,-119.962C158.244,-113.571 110.283,-100.943 74,-76 56.6576,-64.0776 43.4116,-43.5796 35.4693,-28.7857"/>
<polygon fill="midnightblue" stroke="midnightblue" points="38.4733,-26.9706 30.8329,-19.6306 32.2284,-30.1332 38.4733,-26.9706"/>
</g>
<!-- Node2 -->
<g id="node3" class="node"><title>Node2</title>
<polygon fill="white" stroke="#bfbfbf" points="266,-56.5 266,-75.5 316,-75.5 316,-56.5 266,-56.5"/>
<text text-anchor="middle" x="291" y="-63.5" font-family="FreeSans" font-size="10.00">iomanip</text>
</g>
<!-- Node0&#45;&gt;Node2 -->
<g id="edge2" class="edge"><title>Node0&#45;&gt;Node2</title>
<path fill="none" stroke="midnightblue" d="M270.399,-112.399C274.12,-104.199 278.847,-93.7809 282.835,-84.9936"/>
<polygon fill="midnightblue" stroke="midnightblue" points="286.126,-86.2104 287.071,-75.6578 279.752,-83.3178 286.126,-86.2104"/>
</g>
<!-- Node3 -->
<g id="node4" class="node"><title>Node3</title>
<polygon fill="white" stroke="#bfbfbf" points="74.5,-0.5 74.5,-19.5 119.5,-19.5 119.5,-0.5 74.5,-0.5"/>
<text text-anchor="middle" x="97" y="-7.5" font-family="FreeSans" font-size="10.00">cstring</text>
</g>
<!-- Node0&#45;&gt;Node3 -->
<g id="edge3" class="edge"><title>Node0&#45;&gt;Node3</title>
<path fill="none" stroke="midnightblue" d="M196.621,-116.351C151.164,-107.969 97.006,-94.4486 83,-76 72.5648,-62.2548 79.0921,-42.3961 86.3291,-28.2519"/>
<polygon fill="midnightblue" stroke="midnightblue" points="89.3907,-29.9481 91.2529,-19.5181 83.293,-26.5103 89.3907,-29.9481"/>
</g>
<!-- Node4 -->
<g id="node5" class="node"><title>Node4</title>
<polygon fill="white" stroke="#bfbfbf" points="142.5,-0.5 142.5,-19.5 185.5,-19.5 185.5,-0.5 142.5,-0.5"/>
<text text-anchor="middle" x="164" y="-7.5" font-family="FreeSans" font-size="10.00">cmath</text>
</g>
<!-- Node0&#45;&gt;Node4 -->
<g id="edge4" class="edge"><title>Node0&#45;&gt;Node4</title>
<path fill="none" stroke="midnightblue" d="M251.738,-112.337C233.147,-90.865 197.915,-50.1718 178.225,-27.4293"/>
<polygon fill="midnightblue" stroke="midnightblue" points="180.698,-24.9386 171.506,-19.6695 175.406,-29.5206 180.698,-24.9386"/>
</g>
<!-- Node5 -->
<g id="node6" class="node"><title>Node5</title>
<polygon fill="white" stroke="#bfbfbf" points="214,-0.5 214,-19.5 258,-19.5 258,-0.5 214,-0.5"/>
<text text-anchor="middle" x="236" y="-7.5" font-family="FreeSans" font-size="10.00">cstdlib</text>
</g>
<!-- Node0&#45;&gt;Node5 -->
<g id="edge5" class="edge"><title>Node0&#45;&gt;Node5</title>
<path fill="none" stroke="midnightblue" d="M260.567,-112.337C255.522,-91.5271 246.1,-52.6632 240.505,-29.5834"/>
<polygon fill="midnightblue" stroke="midnightblue" points="243.859,-28.5633 238.102,-19.6695 237.056,-30.2126 243.859,-28.5633"/>
</g>
<!-- Node6 -->
<g id="node7" class="node"><title>Node6</title>
<polygon fill="white" stroke="#bfbfbf" points="334.5,-56.5 334.5,-75.5 375.5,-75.5 375.5,-56.5 334.5,-56.5"/>
<text text-anchor="middle" x="355" y="-63.5" font-family="FreeSans" font-size="10.00">cstdio</text>
</g>
<!-- Node0&#45;&gt;Node6 -->
<g id="edge6" class="edge"><title>Node0&#45;&gt;Node6</title>
<path fill="none" stroke="midnightblue" d="M285.566,-112.399C299.88,-103.04 318.612,-90.7924 333.011,-81.3771"/>
<polygon fill="midnightblue" stroke="midnightblue" points="335.304,-84.0597 341.759,-75.6578 331.474,-78.2009 335.304,-84.0597"/>
</g>
<!-- Node7 -->
<g id="node8" class="node"><title>Node7</title>
<polygon fill="white" stroke="#bfbfbf" points="393.5,-56.5 393.5,-75.5 432.5,-75.5 432.5,-56.5 393.5,-56.5"/>
<text text-anchor="middle" x="413" y="-63.5" font-family="FreeSans" font-size="10.00">limits</text>
</g>
<!-- Node0&#45;&gt;Node7 -->
<g id="edge7" class="edge"><title>Node0&#45;&gt;Node7</title>
<path fill="none" stroke="midnightblue" d="M299.311,-112.399C325.179,-102.07 359.858,-88.2211 384.087,-78.5458"/>
<polygon fill="midnightblue" stroke="midnightblue" points="385.467,-81.7634 393.456,-74.8044 382.871,-75.2625 385.467,-81.7634"/>
</g>
<!-- Node8 -->
<g id="node9" class="node"><title>Node8</title>
<polygon fill="white" stroke="#bfbfbf" points="451,-56.5 451,-75.5 501,-75.5 501,-56.5 451,-56.5"/>
<text text-anchor="middle" x="476" y="-63.5" font-family="FreeSans" font-size="10.00">typeinfo</text>
</g>
<!-- Node0&#45;&gt;Node8 -->
<g id="edge8" class="edge"><title>Node0&#45;&gt;Node8</title>
<path fill="none" stroke="midnightblue" d="M313.973,-112.475C353.08,-101.499 406.465,-86.5157 441.086,-76.7991"/>
<polygon fill="midnightblue" stroke="midnightblue" points="442.076,-80.1566 450.758,-74.0845 440.184,-73.417 442.076,-80.1566"/>
</g>
<!-- Node9 -->
<g id="node10" class="node"><title>Node9</title>
<polygon fill="white" stroke="#bfbfbf" points="519.5,-56.5 519.5,-75.5 576.5,-75.5 576.5,-56.5 519.5,-56.5"/>
<text text-anchor="middle" x="548" y="-63.5" font-family="FreeSans" font-size="10.00">typeindex</text>
</g>
<!-- Node0&#45;&gt;Node9 -->
<g id="edge9" class="edge"><title>Node0&#45;&gt;Node9</title>
<path fill="none" stroke="midnightblue" d="M331.199,-113.272C378.394,-103.851 443.234,-90.645 509.588,-76.0389"/>
<polygon fill="midnightblue" stroke="midnightblue" points="510.378,-79.4489 519.387,-73.874 508.868,-72.6138 510.378,-79.4489"/>
</g>
<!-- Node10 -->
<g id="node11" class="node"><title>Node10</title>
<g id="a_node11"><a xlink:href="extrapolation_8h.html" target="_top" xlink:title="extrapolation.h">
<polygon fill="white" stroke="black" points="92,-56.5 92,-75.5 172,-75.5 172,-56.5 92,-56.5"/>
<text text-anchor="middle" x="132" y="-63.5" font-family="FreeSans" font-size="10.00">extrapolation.h</text>
</a>
</g>
</g>
<!-- Node0&#45;&gt;Node10 -->
<g id="edge10" class="edge"><title>Node0&#45;&gt;Node10</title>
<path fill="none" stroke="midnightblue" d="M232.718,-112.399C210.768,-102.505 181.657,-89.3832 160.379,-79.7919"/>
<polygon fill="midnightblue" stroke="midnightblue" points="161.762,-76.5764 151.207,-75.6578 158.886,-82.958 161.762,-76.5764"/>
</g>
<!-- Node10&#45;&gt;Node1 -->
<g id="edge12" class="edge"><title>Node10&#45;&gt;Node1</title>
<path fill="none" stroke="midnightblue" d="M115.13,-56.324C98.2912,-47.6641 72.1935,-34.2424 52.762,-24.249"/>
<polygon fill="midnightblue" stroke="midnightblue" points="54.3218,-21.1155 43.8282,-19.6545 51.1204,-27.3405 54.3218,-21.1155"/>
</g>
<!-- Node10&#45;&gt;Node3 -->
<g id="edge14" class="edge"><title>Node10&#45;&gt;Node3</title>
<path fill="none" stroke="midnightblue" d="M126.22,-56.083C121.328,-48.5341 114.173,-37.4948 108.167,-28.2298"/>
<polygon fill="midnightblue" stroke="midnightblue" points="111.048,-26.239 102.672,-19.7511 105.174,-30.0463 111.048,-26.239"/>
</g>
<!-- Node10&#45;&gt;Node4 -->
<g id="edge13" class="edge"><title>Node10&#45;&gt;Node4</title>
<path fill="none" stroke="midnightblue" d="M137.284,-56.083C141.711,-48.6127 148.163,-37.7244 153.618,-28.5199"/>
<polygon fill="midnightblue" stroke="midnightblue" points="156.727,-30.1383 158.814,-19.7511 150.705,-26.5697 156.727,-30.1383"/>
</g>
<!-- Node10&#45;&gt;Node5 -->
<g id="edge11" class="edge"><title>Node10&#45;&gt;Node5</title>
<path fill="none" stroke="midnightblue" d="M148.709,-56.324C165.312,-47.7034 191.002,-34.3643 210.22,-24.3855"/>
<polygon fill="midnightblue" stroke="midnightblue" points="212.07,-27.3689 219.332,-19.6545 208.844,-21.1565 212.07,-27.3689"/>
</g>
</g>
</svg>
