<?xml version="1.0" encoding="UTF-8" standalone="no"?>
<!DOCTYPE svg PUBLIC "-//W3C//DTD SVG 1.1//EN"
 "http://www.w3.org/Graphics/SVG/1.1/DTD/svg11.dtd">
<!-- Generated by graphviz version 2.38.0 (20140413.2041)
 -->
<!-- Title: C:/Users/longw/Documents/GitHub/ARC/include/AR.h Pages: 1 -->
<svg width="441pt" height="151pt"
 viewBox="0.00 0.00 440.50 151.00" xmlns="http://www.w3.org/2000/svg" xmlns:xlink="http://www.w3.org/1999/xlink">
<g id="graph0" class="graph" transform="scale(1 1) rotate(0) translate(4 147)">
<title>C:/Users/longw/Documents/GitHub/ARC/include/AR.h</title>
<polygon fill="white" stroke="none" points="-4,4 -4,-147 436.5,-147 436.5,4 -4,4"/>
<!-- Node0 -->
<g id="node1" class="node"><title>Node0</title>
<polygon fill="#bfbfbf" stroke="black" points="152,-112.5 152,-142.5 286,-142.5 286,-112.5 152,-112.5"/>
<text text-anchor="start" x="160" y="-130.5" font-family="FreeSans" font-size="10.00">C:/Users/longw/Documents</text>
<text text-anchor="middle" x="219" y="-119.5" font-family="FreeSans" font-size="10.00">/GitHub/ARC/include/AR.h</text>
</g>
<!-- Node1 -->
<g id="node2" class="node"><title>Node1</title>
<polygon fill="white" stroke="#bfbfbf" points="0,-0.5 0,-19.5 54,-19.5 54,-0.5 0,-0.5"/>
<text text-anchor="middle" x="27" y="-7.5" font-family="FreeSans" font-size="10.00">iostream</text>
</g>
<!-- Node0&#45;&gt;Node1 -->
<g id="edge1" class="edge"><title>Node0&#45;&gt;Node1</title>
<path fill="none" stroke="midnightblue" d="M152.07,-112.401C125.964,-104.649 96.8788,-93.0323 74,-76 57.3005,-63.5679 44.0767,-43.4887 35.9643,-28.9337"/>
<polygon fill="midnightblue" stroke="midnightblue" points="38.9556,-27.1033 31.1847,-19.9017 32.7685,-30.3775 38.9556,-27.1033"/>
</g>
<!-- Node2 -->
<g id="node3" class="node"><title>Node2</title>
<polygon fill="white" stroke="#bfbfbf" points="266,-56.5 266,-75.5 316,-75.5 316,-56.5 266,-56.5"/>
<text text-anchor="middle" x="291" y="-63.5" font-family="FreeSans" font-size="10.00">iomanip</text>
</g>
<!-- Node0&#45;&gt;Node2 -->
<g id="edge2" class="edge"><title>Node0&#45;&gt;Node2</title>
<path fill="none" stroke="midnightblue" d="M236.063,-112.399C247.065,-103.308 261.365,-91.4899 272.618,-82.1909"/>
<polygon fill="midnightblue" stroke="midnightblue" points="275.044,-84.726 280.523,-75.6578 270.585,-79.33 275.044,-84.726"/>
</g>
<!-- Node3 -->
<g id="node4" class="node"><title>Node3</title>
<polygon fill="white" stroke="#bfbfbf" points="74.5,-0.5 74.5,-19.5 119.5,-19.5 119.5,-0.5 74.5,-0.5"/>
<text text-anchor="middle" x="97" y="-7.5" font-family="FreeSans" font-size="10.00">cstring</text>
</g>
<!-- Node0&#45;&gt;Node3 -->
<g id="edge3" class="edge"><title>Node0&#45;&gt;Node3</title>
<path fill="none" stroke="midnightblue" d="M151.83,-118.059C125.903,-111.154 98.7454,-98.6425 83,-76 73.3481,-62.1202 79.3215,-42.8481 86.2011,-28.8959"/>
<polygon fill="midnightblue" stroke="midnightblue" points="89.4318,-30.2829 91.1602,-19.83 83.2905,-26.9236 89.4318,-30.2829"/>
</g>
<!-- Node4 -->
<g id="node5" class="node"><title>Node4</title>
<polygon fill="white" stroke="#bfbfbf" points="142.5,-0.5 142.5,-19.5 185.5,-19.5 185.5,-0.5 142.5,-0.5"/>
<text text-anchor="middle" x="164" y="-7.5" font-family="FreeSans" font-size="10.00">cmath</text>
</g>
<!-- Node0&#45;&gt;Node4 -->
<g id="edge4" class="edge"><title>Node0&#45;&gt;Node4</title>
<path fill="none" stroke="midnightblue" d="M212.256,-112.337C202.256,-91.3379 183.502,-51.9551 172.551,-28.9579"/>
<polygon fill="midnightblue" stroke="midnightblue" points="175.588,-27.1933 168.128,-19.6695 169.268,-30.2029 175.588,-27.1933"/>
</g>
<!-- Node5 -->
<g id="node6" class="node"><title>Node5</title>
<polygon fill="white" stroke="#bfbfbf" points="214,-0.5 214,-19.5 258,-19.5 258,-0.5 214,-0.5"/>
<text text-anchor="middle" x="236" y="-7.5" font-family="FreeSans" font-size="10.00">cstdlib</text>
</g>
<!-- Node0&#45;&gt;Node5 -->
<g id="edge5" class="edge"><title>Node0&#45;&gt;Node5</title>
<path fill="none" stroke="midnightblue" d="M221.085,-112.337C224.148,-91.5271 229.868,-52.6632 233.265,-29.5834"/>
<polygon fill="midnightblue" stroke="midnightblue" points="236.73,-30.0726 234.724,-19.6695 229.805,-29.0532 236.73,-30.0726"/>
</g>
<!-- Node6 -->
<g id="node7" class="node"><title>Node6</title>
<polygon fill="white" stroke="#bfbfbf" points="334.5,-56.5 334.5,-75.5 375.5,-75.5 375.5,-56.5 334.5,-56.5"/>
<text text-anchor="middle" x="355" y="-63.5" font-family="FreeSans" font-size="10.00">cstdio</text>
</g>
<!-- Node0&#45;&gt;Node6 -->
<g id="edge6" class="edge"><title>Node0&#45;&gt;Node6</title>
<path fill="none" stroke="midnightblue" d="M251.23,-112.399C273.845,-102.505 303.838,-89.3832 325.761,-79.7919"/>
<polygon fill="midnightblue" stroke="midnightblue" points="327.452,-82.8726 335.211,-75.6578 324.646,-76.4595 327.452,-82.8726"/>
</g>
<!-- Node7 -->
<g id="node8" class="node"><title>Node7</title>
<polygon fill="white" stroke="#bfbfbf" points="393.5,-56.5 393.5,-75.5 432.5,-75.5 432.5,-56.5 393.5,-56.5"/>
<text text-anchor="middle" x="413" y="-63.5" font-family="FreeSans" font-size="10.00">limits</text>
</g>
<!-- Node0&#45;&gt;Node7 -->
<g id="edge7" class="edge"><title>Node0&#45;&gt;Node7</title>
<path fill="none" stroke="midnightblue" d="M265.927,-112.438C296.995,-103.079 338.881,-90.3702 383.801,-76.3454"/>
<polygon fill="midnightblue" stroke="midnightblue" points="384.931,-79.6593 393.43,-73.3334 382.841,-72.9785 384.931,-79.6593"/>
</g>
<!-- Node8 -->
<g id="node9" class="node"><title>Node8</title>
<g id="a_node9"><a xlink:href="extrapolation_8h.html" target="_top" xlink:title="extrapolation.h">
<polygon fill="white" stroke="black" points="92,-56.5 92,-75.5 172,-75.5 172,-56.5 92,-56.5"/>
<text text-anchor="middle" x="132" y="-63.5" font-family="FreeSans" font-size="10.00">extrapolation.h</text>
</a>
</g>
</g>
<!-- Node0&#45;&gt;Node8 -->
<g id="edge8" class="edge"><title>Node0&#45;&gt;Node8</title>
<path fill="none" stroke="midnightblue" d="M198.382,-112.399C184.697,-103.04 166.789,-90.7924 153.022,-81.3771"/>
<polygon fill="midnightblue" stroke="midnightblue" points="154.889,-78.414 144.659,-75.6578 150.938,-84.1919 154.889,-78.414"/>
</g>
<!-- Node8&#45;&gt;Node1 -->
<g id="edge10" class="edge"><title>Node8&#45;&gt;Node1</title>
<path fill="none" stroke="midnightblue" d="M115.13,-56.324C98.2912,-47.6641 72.1935,-34.2424 52.762,-24.249"/>
<polygon fill="midnightblue" stroke="midnightblue" points="54.3218,-21.1155 43.8282,-19.6545 51.1204,-27.3405 54.3218,-21.1155"/>
</g>
<!-- Node8&#45;&gt;Node3 -->
<g id="edge12" class="edge"><title>Node8&#45;&gt;Node3</title>
<path fill="none" stroke="midnightblue" d="M126.22,-56.083C121.328,-48.5341 114.173,-37.4948 108.167,-28.2298"/>
<polygon fill="midnightblue" stroke="midnightblue" points="111.048,-26.239 102.672,-19.7511 105.174,-30.0463 111.048,-26.239"/>
</g>
<!-- Node8&#45;&gt;Node4 -->
<g id="edge11" class="edge"><title>Node8&#45;&gt;Node4</title>
<path fill="none" stroke="midnightblue" d="M137.284,-56.083C141.711,-48.6127 148.163,-37.7244 153.618,-28.5199"/>
<polygon fill="midnightblue" stroke="midnightblue" points="156.727,-30.1383 158.814,-19.7511 150.705,-26.5697 156.727,-30.1383"/>
</g>
<!-- Node8&#45;&gt;Node5 -->
<g id="edge9" class="edge"><title>Node8&#45;&gt;Node5</title>
<path fill="none" stroke="midnightblue" d="M148.709,-56.324C165.312,-47.7034 191.002,-34.3643 210.22,-24.3855"/>
<polygon fill="midnightblue" stroke="midnightblue" points="212.07,-27.3689 219.332,-19.6545 208.844,-21.1565 212.07,-27.3689"/>
</g>
</g>
</svg>
