<?xml version="1.0" encoding="UTF-8" standalone="no"?>
<!DOCTYPE svg PUBLIC "-//W3C//DTD SVG 1.1//EN"
 "http://www.w3.org/Graphics/SVG/1.1/DTD/svg11.dtd">
<!-- Generated by graphviz version 2.38.0 (20140413.2041)
 -->
<!-- Title: C:/Users/longw/Documents/GitHub/ARC/include/AR.h Pages: 1 -->
<svg width="314pt" height="151pt"
 viewBox="0.00 0.00 313.50 151.00" xmlns="http://www.w3.org/2000/svg" xmlns:xlink="http://www.w3.org/1999/xlink">
<g id="graph0" class="graph" transform="scale(1 1) rotate(0) translate(4 147)">
<title>C:/Users/longw/Documents/GitHub/ARC/include/AR.h</title>
<polygon fill="white" stroke="none" points="-4,4 -4,-147 309.5,-147 309.5,4 -4,4"/>
<!-- Node0 -->
<g id="node1" class="node"><title>Node0</title>
<polygon fill="#bfbfbf" stroke="black" points="99,-112.5 99,-142.5 233,-142.5 233,-112.5 99,-112.5"/>
<text text-anchor="start" x="107" y="-130.5" font-family="FreeSans" font-size="10.00">C:/Users/longw/Documents</text>
<text text-anchor="middle" x="166" y="-119.5" font-family="FreeSans" font-size="10.00">/GitHub/ARC/include/AR.h</text>
</g>
<!-- Node1 -->
<g id="node2" class="node"><title>Node1</title>
<polygon fill="white" stroke="#bfbfbf" points="0,-0.5 0,-19.5 54,-19.5 54,-0.5 0,-0.5"/>
<text text-anchor="middle" x="27" y="-7.5" font-family="FreeSans" font-size="10.00">iostream</text>
</g>
<!-- Node0&#45;&gt;Node1 -->
<g id="edge1" class="edge"><title>Node0&#45;&gt;Node1</title>
<path fill="none" stroke="midnightblue" d="M133.101,-112.489C114.772,-103.689 92.2412,-91.1424 75,-76 59.4137,-62.3111 45.8179,-42.7484 37.1137,-28.6653"/>
<polygon fill="midnightblue" stroke="midnightblue" points="40.0327,-26.7266 31.9048,-19.9304 34.0206,-30.3119 40.0327,-26.7266"/>
</g>
<!-- Node2 -->
<g id="node3" class="node"><title>Node2</title>
<polygon fill="white" stroke="#bfbfbf" points="74.5,-0.5 74.5,-19.5 119.5,-19.5 119.5,-0.5 74.5,-0.5"/>
<text text-anchor="middle" x="97" y="-7.5" font-family="FreeSans" font-size="10.00">cstring</text>
</g>
<!-- Node0&#45;&gt;Node2 -->
<g id="edge2" class="edge"><title>Node0&#45;&gt;Node2</title>
<path fill="none" stroke="midnightblue" d="M125.981,-112.385C109.606,-104.401 92.3396,-92.615 83,-76 74.716,-61.2629 80.4922,-42.1144 86.9525,-28.425"/>
<polygon fill="midnightblue" stroke="midnightblue" points="90.0542,-30.0464 91.5863,-19.5629 83.8511,-26.8028 90.0542,-30.0464"/>
</g>
<!-- Node3 -->
<g id="node4" class="node"><title>Node3</title>
<polygon fill="white" stroke="#bfbfbf" points="142.5,-0.5 142.5,-19.5 185.5,-19.5 185.5,-0.5 142.5,-0.5"/>
<text text-anchor="middle" x="164" y="-7.5" font-family="FreeSans" font-size="10.00">cmath</text>
</g>
<!-- Node0&#45;&gt;Node3 -->
<g id="edge3" class="edge"><title>Node0&#45;&gt;Node3</title>
<path fill="none" stroke="midnightblue" d="M172.368,-112.236C177.922,-98.0285 184.574,-75.573 181,-56 179.312,-46.7575 175.825,-36.9479 172.446,-28.8546"/>
<polygon fill="midnightblue" stroke="midnightblue" points="175.631,-27.4045 168.366,-19.6928 169.237,-30.2518 175.631,-27.4045"/>
</g>
<!-- Node4 -->
<g id="node5" class="node"><title>Node4</title>
<polygon fill="white" stroke="#bfbfbf" points="214,-0.5 214,-19.5 258,-19.5 258,-0.5 214,-0.5"/>
<text text-anchor="middle" x="236" y="-7.5" font-family="FreeSans" font-size="10.00">cstdlib</text>
</g>
<!-- Node0&#45;&gt;Node4 -->
<g id="edge4" class="edge"><title>Node0&#45;&gt;Node4</title>
<path fill="none" stroke="midnightblue" d="M174.583,-112.337C187.425,-91.1487 211.61,-51.244 225.491,-28.3403"/>
<polygon fill="midnightblue" stroke="midnightblue" points="228.556,-30.0355 230.746,-19.6695 222.57,-26.4074 228.556,-30.0355"/>
</g>
<!-- Node5 -->
<g id="node6" class="node"><title>Node5</title>
<polygon fill="white" stroke="#bfbfbf" points="266.5,-56.5 266.5,-75.5 305.5,-75.5 305.5,-56.5 266.5,-56.5"/>
<text text-anchor="middle" x="286" y="-63.5" font-family="FreeSans" font-size="10.00">limits</text>
</g>
<!-- Node0&#45;&gt;Node5 -->
<g id="edge5" class="edge"><title>Node0&#45;&gt;Node5</title>
<path fill="none" stroke="midnightblue" d="M194.438,-112.399C214.123,-102.639 240.143,-89.7373 259.413,-80.1826"/>
<polygon fill="midnightblue" stroke="midnightblue" points="261.135,-83.2358 268.539,-75.6578 258.025,-76.9644 261.135,-83.2358"/>
</g>
<!-- Node6 -->
<g id="node7" class="node"><title>Node6</title>
<g id="a_node7"><a xlink:href="extrapolation_8h.html" target="_top" xlink:title="extrapolation.h">
<polygon fill="white" stroke="black" points="92,-56.5 92,-75.5 172,-75.5 172,-56.5 92,-56.5"/>
<text text-anchor="middle" x="132" y="-63.5" font-family="FreeSans" font-size="10.00">extrapolation.h</text>
</a>
</g>
</g>
<!-- Node0&#45;&gt;Node6 -->
<g id="edge6" class="edge"><title>Node0&#45;&gt;Node6</title>
<path fill="none" stroke="midnightblue" d="M157.942,-112.399C153.155,-104.021 147.044,-93.3269 141.956,-84.4229"/>
<polygon fill="midnightblue" stroke="midnightblue" points="144.948,-82.6037 136.947,-75.6578 138.87,-86.0767 144.948,-82.6037"/>
</g>
<!-- Node6&#45;&gt;Node1 -->
<g id="edge8" class="edge"><title>Node6&#45;&gt;Node1</title>
<path fill="none" stroke="midnightblue" d="M115.13,-56.324C98.2912,-47.6641 72.1935,-34.2424 52.762,-24.249"/>
<polygon fill="midnightblue" stroke="midnightblue" points="54.3218,-21.1155 43.8282,-19.6545 51.1204,-27.3405 54.3218,-21.1155"/>
</g>
<!-- Node6&#45;&gt;Node2 -->
<g id="edge10" class="edge"><title>Node6&#45;&gt;Node2</title>
<path fill="none" stroke="midnightblue" d="M126.22,-56.083C121.328,-48.5341 114.173,-37.4948 108.167,-28.2298"/>
<polygon fill="midnightblue" stroke="midnightblue" points="111.048,-26.239 102.672,-19.7511 105.174,-30.0463 111.048,-26.239"/>
</g>
<!-- Node6&#45;&gt;Node3 -->
<g id="edge9" class="edge"><title>Node6&#45;&gt;Node3</title>
<path fill="none" stroke="midnightblue" d="M137.284,-56.083C141.711,-48.6127 148.163,-37.7244 153.618,-28.5199"/>
<polygon fill="midnightblue" stroke="midnightblue" points="156.727,-30.1383 158.814,-19.7511 150.705,-26.5697 156.727,-30.1383"/>
</g>
<!-- Node6&#45;&gt;Node4 -->
<g id="edge7" class="edge"><title>Node6&#45;&gt;Node4</title>
<path fill="none" stroke="midnightblue" d="M148.709,-56.324C165.312,-47.7034 191.002,-34.3643 210.22,-24.3855"/>
<polygon fill="midnightblue" stroke="midnightblue" points="212.07,-27.3689 219.332,-19.6545 208.844,-21.1565 212.07,-27.3689"/>
</g>
</g>
</svg>
