<?xml version="1.0" encoding="UTF-8" standalone="no"?>
<!DOCTYPE svg PUBLIC "-//W3C//DTD SVG 1.1//EN"
 "http://www.w3.org/Graphics/SVG/1.1/DTD/svg11.dtd">
<!-- Generated by graphviz version 2.38.0 (20140413.2041)
 -->
<!-- Title: /mnt/c/Users/longw/Documents/GitHub/ARC/include/AR.h Pages: 1 -->
<svg width="466pt" height="162pt"
 viewBox="0.00 0.00 465.50 162.00" xmlns="http://www.w3.org/2000/svg" xmlns:xlink="http://www.w3.org/1999/xlink">
<g id="graph0" class="graph" transform="scale(1 1) rotate(0) translate(4 158)">
<title>/mnt/c/Users/longw/Documents/GitHub/ARC/include/AR.h</title>
<polygon fill="white" stroke="none" points="-4,4 -4,-158 461.5,-158 461.5,4 -4,4"/>
<!-- Node1 -->
<g id="node1" class="node"><title>Node1</title>
<polygon fill="#bfbfbf" stroke="black" points="165,-112.5 165,-153.5 298,-153.5 298,-112.5 165,-112.5"/>
<text text-anchor="start" x="173" y="-141.5" font-family="FreeSans" font-size="10.00">/mnt/c/Users/longw</text>
<text text-anchor="start" x="173" y="-130.5" font-family="FreeSans" font-size="10.00">/Documents/GitHub/ARC</text>
<text text-anchor="middle" x="231.5" y="-119.5" font-family="FreeSans" font-size="10.00">/include/AR.h</text>
</g>
<!-- Node2 -->
<g id="node2" class="node"><title>Node2</title>
<polygon fill="white" stroke="#bfbfbf" points="0,-0.5 0,-19.5 59,-19.5 59,-0.5 0,-0.5"/>
<text text-anchor="middle" x="29.5" y="-7.5" font-family="FreeSans" font-size="10.00">iostream</text>
</g>
<!-- Node1&#45;&gt;Node2 -->
<g id="edge1" class="edge"><title>Node1&#45;&gt;Node2</title>
<path fill="none" stroke="midnightblue" d="M164.749,-116.998C135.983,-108.293 103.138,-95.1581 77.5,-76 60.7003,-63.4462 47.1523,-43.3874 38.7874,-28.8705"/>
<polygon fill="midnightblue" stroke="midnightblue" points="41.7262,-26.9504 33.8482,-19.8661 35.5889,-30.317 41.7262,-26.9504"/>
</g>
<!-- Node3 -->
<g id="node3" class="node"><title>Node3</title>
<polygon fill="white" stroke="#bfbfbf" points="279,-56.5 279,-75.5 334,-75.5 334,-56.5 279,-56.5"/>
<text text-anchor="middle" x="306.5" y="-63.5" font-family="FreeSans" font-size="10.00">iomanip</text>
</g>
<!-- Node1&#45;&gt;Node3 -->
<g id="edge2" class="edge"><title>Node1&#45;&gt;Node3</title>
<path fill="none" stroke="midnightblue" d="M254.002,-112.498C265.17,-102.82 278.461,-91.3002 288.876,-82.274"/>
<polygon fill="midnightblue" stroke="midnightblue" points="291.252,-84.8468 296.516,-75.6525 286.667,-79.5569 291.252,-84.8468"/>
</g>
<!-- Node4 -->
<g id="node4" class="node"><title>Node4</title>
<polygon fill="white" stroke="#bfbfbf" points="79,-0.5 79,-19.5 128,-19.5 128,-0.5 79,-0.5"/>
<text text-anchor="middle" x="103.5" y="-7.5" font-family="FreeSans" font-size="10.00">cstring</text>
</g>
<!-- Node1&#45;&gt;Node4 -->
<g id="edge3" class="edge"><title>Node1&#45;&gt;Node4</title>
<path fill="none" stroke="midnightblue" d="M164.65,-123.454C135.263,-116.001 103.417,-102.062 85.5,-76 75.6906,-61.7313 83.2197,-42.2587 91.3296,-28.355"/>
<polygon fill="midnightblue" stroke="midnightblue" points="94.3925,-30.062 96.8311,-19.7516 88.4951,-26.2909 94.3925,-30.062"/>
</g>
<!-- Node5 -->
<g id="node5" class="node"><title>Node5</title>
<polygon fill="white" stroke="#bfbfbf" points="151,-0.5 151,-19.5 198,-19.5 198,-0.5 151,-0.5"/>
<text text-anchor="middle" x="174.5" y="-7.5" font-family="FreeSans" font-size="10.00">cmath</text>
</g>
<!-- Node1&#45;&gt;Node5 -->
<g id="edge4" class="edge"><title>Node1&#45;&gt;Node5</title>
<path fill="none" stroke="midnightblue" d="M222.215,-112.29C211.322,-89.1656 193.418,-51.1597 182.915,-28.8641"/>
<polygon fill="midnightblue" stroke="midnightblue" points="185.967,-27.1297 178.539,-19.5748 179.635,-30.1129 185.967,-27.1297"/>
</g>
<!-- Node6 -->
<g id="node6" class="node"><title>Node6</title>
<polygon fill="white" stroke="#bfbfbf" points="225,-0.5 225,-19.5 272,-19.5 272,-0.5 225,-0.5"/>
<text text-anchor="middle" x="248.5" y="-7.5" font-family="FreeSans" font-size="10.00">cstdlib</text>
</g>
<!-- Node1&#45;&gt;Node6 -->
<g id="edge5" class="edge"><title>Node1&#45;&gt;Node6</title>
<path fill="none" stroke="midnightblue" d="M234.269,-112.29C237.474,-89.4795 242.713,-52.1888 245.861,-29.7807"/>
<polygon fill="midnightblue" stroke="midnightblue" points="249.37,-29.9645 247.295,-19.5748 242.438,-28.9906 249.37,-29.9645"/>
</g>
<!-- Node7 -->
<g id="node7" class="node"><title>Node7</title>
<polygon fill="white" stroke="#bfbfbf" points="352,-56.5 352,-75.5 397,-75.5 397,-56.5 352,-56.5"/>
<text text-anchor="middle" x="374.5" y="-63.5" font-family="FreeSans" font-size="10.00">cstdio</text>
</g>
<!-- Node1&#45;&gt;Node7 -->
<g id="edge6" class="edge"><title>Node1&#45;&gt;Node7</title>
<path fill="none" stroke="midnightblue" d="M274.405,-112.498C297.7,-101.909 325.843,-89.1169 346.347,-79.7968"/>
<polygon fill="midnightblue" stroke="midnightblue" points="347.809,-82.9769 355.465,-75.6525 344.913,-76.6043 347.809,-82.9769"/>
</g>
<!-- Node8 -->
<g id="node8" class="node"><title>Node8</title>
<polygon fill="white" stroke="#bfbfbf" points="415.5,-56.5 415.5,-75.5 457.5,-75.5 457.5,-56.5 415.5,-56.5"/>
<text text-anchor="middle" x="436.5" y="-63.5" font-family="FreeSans" font-size="10.00">limits</text>
</g>
<!-- Node1&#45;&gt;Node8 -->
<g id="edge7" class="edge"><title>Node1&#45;&gt;Node8</title>
<path fill="none" stroke="midnightblue" d="M293.007,-112.498C330.142,-100.723 375.873,-86.2232 405.582,-76.8034"/>
<polygon fill="midnightblue" stroke="midnightblue" points="406.907,-80.055 415.381,-73.6961 404.791,-73.3823 406.907,-80.055"/>
</g>
<!-- Node9 -->
<g id="node9" class="node"><title>Node9</title>
<g id="a_node9"><a xlink:href="extrapolation_8h.html" target="_top" xlink:title="extrapolation.h">
<polygon fill="white" stroke="black" points="95,-56.5 95,-75.5 184,-75.5 184,-56.5 95,-56.5"/>
<text text-anchor="middle" x="139.5" y="-63.5" font-family="FreeSans" font-size="10.00">extrapolation.h</text>
</a>
</g>
</g>
<!-- Node1&#45;&gt;Node9 -->
<g id="edge8" class="edge"><title>Node1&#45;&gt;Node9</title>
<path fill="none" stroke="midnightblue" d="M203.897,-112.498C189.792,-102.532 172.923,-90.6142 159.99,-81.4764"/>
<polygon fill="midnightblue" stroke="midnightblue" points="161.933,-78.5643 151.747,-75.6525 157.894,-84.2814 161.933,-78.5643"/>
</g>
<!-- Node9&#45;&gt;Node2 -->
<g id="edge10" class="edge"><title>Node9&#45;&gt;Node2</title>
<path fill="none" stroke="midnightblue" d="M121.827,-56.324C104.106,-47.6247 76.5968,-34.1202 56.2116,-24.113"/>
<polygon fill="midnightblue" stroke="midnightblue" points="57.6486,-20.9195 47.1295,-19.6545 54.5639,-27.2031 57.6486,-20.9195"/>
</g>
<!-- Node9&#45;&gt;Node4 -->
<g id="edge12" class="edge"><title>Node9&#45;&gt;Node4</title>
<path fill="none" stroke="midnightblue" d="M133.555,-56.083C128.523,-48.5341 121.163,-37.4948 114.987,-28.2298"/>
<polygon fill="midnightblue" stroke="midnightblue" points="117.793,-26.1301 109.334,-19.7511 111.969,-30.0131 117.793,-26.1301"/>
</g>
<!-- Node9&#45;&gt;Node5 -->
<g id="edge11" class="edge"><title>Node9&#45;&gt;Node5</title>
<path fill="none" stroke="midnightblue" d="M145.28,-56.083C150.172,-48.5341 157.327,-37.4948 163.333,-28.2298"/>
<polygon fill="midnightblue" stroke="midnightblue" points="166.326,-30.0463 168.828,-19.7511 160.452,-26.239 166.326,-30.0463"/>
</g>
<!-- Node9&#45;&gt;Node6 -->
<g id="edge9" class="edge"><title>Node9&#45;&gt;Node6</title>
<path fill="none" stroke="midnightblue" d="M157.013,-56.324C174.572,-47.6247 201.831,-34.1202 222.031,-24.113"/>
<polygon fill="midnightblue" stroke="midnightblue" points="223.624,-27.23 231.031,-19.6545 220.516,-20.9575 223.624,-27.23"/>
</g>
</g>
</svg>
