<?xml version="1.0" encoding="UTF-8" standalone="no"?>
<!DOCTYPE svg PUBLIC "-//W3C//DTD SVG 1.1//EN"
 "http://www.w3.org/Graphics/SVG/1.1/DTD/svg11.dtd">
<!-- Generated by graphviz version 2.38.0 (20140413.2041)
 -->
<!-- Title: ARC::chain::Leapfrog_step_forward Pages: 1 -->
<svg width="271pt" height="66pt"
 viewBox="0.00 0.00 271.00 66.00" xmlns="http://www.w3.org/2000/svg" xmlns:xlink="http://www.w3.org/1999/xlink">
<g id="graph0" class="graph" transform="scale(1 1) rotate(0) translate(4 62)">
<title>ARC::chain::Leapfrog_step_forward</title>
<polygon fill="white" stroke="none" points="-4,4 -4,-62 267,-62 267,4 -4,4"/>
<!-- Node80 -->
<g id="node1" class="node"><title>Node80</title>
<polygon fill="#bfbfbf" stroke="black" points="0,-14 0,-44 110,-44 110,-14 0,-14"/>
<text text-anchor="start" x="8" y="-32" font-family="FreeSans" font-size="10.00">ARC::chain::Leapfrog</text>
<text text-anchor="middle" x="55" y="-21" font-family="FreeSans" font-size="10.00">_step_forward</text>
</g>
<!-- Node81 -->
<g id="node2" class="node"><title>Node81</title>
<g id="a_node2"><a xlink:href="classARC_1_1chainlist.html#a04c91168be9a14ed7b9bd958d6b1f369" target="_top" xlink:title="return particle data first pointer ">
<polygon fill="white" stroke="black" points="146,-38.5 146,-57.5 263,-57.5 263,-38.5 146,-38.5"/>
<text text-anchor="middle" x="204.5" y="-45.5" font-family="FreeSans" font-size="10.00">ARC::chainlist::getData</text>
</a>
</g>
</g>
<!-- Node80&#45;&gt;Node81 -->
<g id="edge1" class="edge"><title>Node80&#45;&gt;Node81</title>
<path fill="none" stroke="midnightblue" d="M110.086,-35.967C118.478,-37.048 127.236,-38.1761 135.88,-39.2897"/>
<polygon fill="midnightblue" stroke="midnightblue" points="135.583,-42.7802 145.948,-40.5865 136.477,-35.8375 135.583,-42.7802"/>
</g>
<!-- Node82 -->
<g id="node3" class="node"><title>Node82</title>
<g id="a_node3"><a xlink:href="classARC_1_1chainlist.html#a9b45780f42626b14e3a2fd7b5de4bf32" target="_top" xlink:title="Get current particle number. ">
<polygon fill="white" stroke="black" points="152.5,-0.5 152.5,-19.5 256.5,-19.5 256.5,-0.5 152.5,-0.5"/>
<text text-anchor="middle" x="204.5" y="-7.5" font-family="FreeSans" font-size="10.00">ARC::chainlist::getN</text>
</a>
</g>
</g>
<!-- Node80&#45;&gt;Node82 -->
<g id="edge2" class="edge"><title>Node80&#45;&gt;Node82</title>
<path fill="none" stroke="midnightblue" d="M110.086,-22.033C120.554,-20.6846 131.591,-19.2628 142.268,-17.8875"/>
<polygon fill="midnightblue" stroke="midnightblue" points="142.894,-21.3359 152.364,-16.587 141.999,-14.3933 142.894,-21.3359"/>
</g>
</g>
</svg>
