<?xml version="1.0" encoding="UTF-8" standalone="no"?>
<!DOCTYPE svg PUBLIC "-//W3C//DTD SVG 1.1//EN"
 "http://www.w3.org/Graphics/SVG/1.1/DTD/svg11.dtd">
<!-- Generated by graphviz version 2.38.0 (20140413.2041)
 -->
<!-- Title: ARC::chainlist::init Pages: 1 -->
<svg width="246pt" height="66pt"
 viewBox="0.00 0.00 246.00 66.00" xmlns="http://www.w3.org/2000/svg" xmlns:xlink="http://www.w3.org/1999/xlink">
<g id="graph0" class="graph" transform="scale(1 1) rotate(0) translate(4 62)">
<title>ARC::chainlist::init</title>
<polygon fill="white" stroke="none" points="-4,4 -4,-62 242,-62 242,4 -4,4"/>
<!-- Node40 -->
<g id="node1" class="node"><title>Node40</title>
<polygon fill="#bfbfbf" stroke="black" points="0,-19.5 0,-38.5 97,-38.5 97,-19.5 0,-19.5"/>
<text text-anchor="middle" x="48.5" y="-26.5" font-family="FreeSans" font-size="10.00">ARC::chainlist::init</text>
</g>
<!-- Node41 -->
<g id="node2" class="node"><title>Node41</title>
<g id="a_node2"><a xlink:href="classARC_1_1chain.html#a0c3c1daffa75873b39d9964eebc6566f" target="_top" xlink:title="Allocate memory. ">
<polygon fill="white" stroke="black" points="133,-38.5 133,-57.5 238,-57.5 238,-38.5 133,-38.5"/>
<text text-anchor="middle" x="185.5" y="-45.5" font-family="FreeSans" font-size="10.00">ARC::chain::allocate</text>
</a>
</g>
</g>
<!-- Node40&#45;&gt;Node41 -->
<g id="edge1" class="edge"><title>Node40&#45;&gt;Node41</title>
<path fill="none" stroke="midnightblue" d="M107,-37.0926C115.552,-38.2961 124.322,-39.5305 132.746,-40.7161"/>
<polygon fill="midnightblue" stroke="midnightblue" points="107.486,-33.6266 97.0959,-35.6987 106.511,-40.5583 107.486,-33.6266"/>
</g>
<!-- Node42 -->
<g id="node3" class="node"><title>Node42</title>
<g id="a_node3"><a xlink:href="classARC_1_1chain.html#a1c6de84a911feff1425dfb59e7a89087" target="_top" xlink:title="Allocate memory for perturber list. ">
<polygon fill="white" stroke="black" points="134,-0.5 134,-19.5 237,-19.5 237,-0.5 134,-0.5"/>
<text text-anchor="middle" x="185.5" y="-7.5" font-family="FreeSans" font-size="10.00">ARC::chain::initPext</text>
</a>
</g>
</g>
<!-- Node40&#45;&gt;Node42 -->
<g id="edge2" class="edge"><title>Node40&#45;&gt;Node42</title>
<path fill="none" stroke="midnightblue" d="M107.264,-20.8702C116.045,-19.6344 125.051,-18.3669 133.67,-17.1539"/>
<polygon fill="midnightblue" stroke="midnightblue" points="106.511,-17.4417 97.0959,-22.3013 107.486,-24.3734 106.511,-17.4417"/>
</g>
</g>
</svg>
