<?xml version="1.0" encoding="UTF-8" standalone="no"?>
<!DOCTYPE svg PUBLIC "-//W3C//DTD SVG 1.1//EN"
 "http://www.w3.org/Graphics/SVG/1.1/DTD/svg11.dtd">
<!-- Generated by graphviz version 2.38.0 (20140413.2041)
 -->
<!-- Title: ARC::chainlist::getN Pages: 1 -->
<svg width="269pt" height="116pt"
 viewBox="0.00 0.00 269.00 115.50" xmlns="http://www.w3.org/2000/svg" xmlns:xlink="http://www.w3.org/1999/xlink">
<g id="graph0" class="graph" transform="scale(1 1) rotate(0) translate(4 111.5)">
<title>ARC::chainlist::getN</title>
<polygon fill="white" stroke="none" points="-4,4 -4,-111.5 265,-111.5 265,4 -4,4"/>
<!-- Node1 -->
<g id="node1" class="node"><title>Node1</title>
<polygon fill="#bfbfbf" stroke="black" points="0,-50 0,-69 110,-69 110,-50 0,-50"/>
<text text-anchor="middle" x="55" y="-57" font-family="FreeSans" font-size="10.00">ARC::chainlist::getN</text>
</g>
<!-- Node2 -->
<g id="node2" class="node"><title>Node2</title>
<g id="a_node2"><a xlink:href="classARC_1_1chain.html#aed5f04b05a5875cd9a8b45da8fdfa28c" target="_top" xlink:title="Data reading from file function. ">
<polygon fill="white" stroke="black" points="157,-88 157,-107 250,-107 250,-88 157,-88"/>
<text text-anchor="middle" x="203.5" y="-95" font-family="FreeSans" font-size="10.00">ARC::chain::load</text>
</a>
</g>
</g>
<!-- Node1&#45;&gt;Node2 -->
<g id="edge1" class="edge"><title>Node1&#45;&gt;Node2</title>
<path fill="none" stroke="midnightblue" d="M102.695,-71.6121C123.099,-76.9044 146.681,-83.0213 165.798,-87.9799"/>
<polygon fill="midnightblue" stroke="midnightblue" points="103.527,-68.212 92.9681,-69.089 101.769,-74.9877 103.527,-68.212"/>
</g>
<!-- Node3 -->
<g id="node3" class="node"><title>Node3</title>
<g id="a_node3"><a xlink:href="classARC_1_1chain.html#a0ad6c0c1d80133d8a4d62bc4679cef80" target="_top" xlink:title="Initialization. ">
<polygon fill="white" stroke="black" points="160,-50 160,-69 247,-69 247,-50 160,-50"/>
<text text-anchor="middle" x="203.5" y="-57" font-family="FreeSans" font-size="10.00">ARC::chain::init</text>
</a>
</g>
</g>
<!-- Node1&#45;&gt;Node3 -->
<g id="edge2" class="edge"><title>Node1&#45;&gt;Node3</title>
<path fill="none" stroke="midnightblue" d="M120.207,-59.5C133.521,-59.5 147.239,-59.5 159.566,-59.5"/>
<polygon fill="midnightblue" stroke="midnightblue" points="120.135,-56.0001 110.135,-59.5 120.135,-63.0001 120.135,-56.0001"/>
</g>
<!-- Node4 -->
<g id="node4" class="node"><title>Node4</title>
<g id="a_node4"><a xlink:href="classARC_1_1chain.html#a991a386117bf0597a46cba3b7f356978" target="_top" xlink:title="Leapfrog integrator. ">
<polygon fill="white" stroke="black" points="146,-0.5 146,-30.5 261,-30.5 261,-0.5 146,-0.5"/>
<text text-anchor="start" x="154" y="-18.5" font-family="FreeSans" font-size="10.00">ARC::chain::Leapfrog</text>
<text text-anchor="middle" x="203.5" y="-7.5" font-family="FreeSans" font-size="10.00">_step_forward</text>
</a>
</g>
</g>
<!-- Node1&#45;&gt;Node4 -->
<g id="edge3" class="edge"><title>Node1&#45;&gt;Node4</title>
<path fill="none" stroke="midnightblue" d="M97.4703,-47.0447C114.538,-41.9187 134.461,-35.9351 152.339,-30.5654"/>
<polygon fill="midnightblue" stroke="midnightblue" points="96.3589,-43.724 87.7883,-49.9527 98.3725,-50.4282 96.3589,-43.724"/>
</g>
</g>
</svg>
