<?xml version="1.0" encoding="UTF-8" standalone="no"?>
<!DOCTYPE svg PUBLIC "-//W3C//DTD SVG 1.1//EN"
 "http://www.w3.org/Graphics/SVG/1.1/DTD/svg11.dtd">
<!-- Generated by graphviz version 2.38.0 (20140413.2041)
 -->
<!-- Title: ARC::chain::extrapolation_integration Pages: 1 -->
<svg width="474pt" height="254pt"
 viewBox="0.00 0.00 474.00 254.00" xmlns="http://www.w3.org/2000/svg" xmlns:xlink="http://www.w3.org/1999/xlink">
<g id="graph0" class="graph" transform="scale(1 1) rotate(0) translate(4 250)">
<title>ARC::chain::extrapolation_integration</title>
<polygon fill="white" stroke="none" points="-4,4 -4,-250 470,-250 470,4 -4,4"/>
<!-- Node38 -->
<g id="node1" class="node"><title>Node38</title>
<polygon fill="#bfbfbf" stroke="black" points="0,-112.5 0,-142.5 128,-142.5 128,-112.5 0,-112.5"/>
<text text-anchor="start" x="8" y="-130.5" font-family="FreeSans" font-size="10.00">ARC::chain::extrapolation</text>
<text text-anchor="middle" x="64" y="-119.5" font-family="FreeSans" font-size="10.00">_integration</text>
</g>
<!-- Node39 -->
<g id="node2" class="node"><title>Node39</title>
<g id="a_node2"><a xlink:href="namespaceEP.html#ae89d6690a891336eef708e90e575a2be" target="_top" xlink:title="Polynomial extrapolation of Tsize number of data together. ">
<polygon fill="white" stroke="black" points="164,-216 164,-235 305,-235 305,-216 164,-216"/>
<text text-anchor="middle" x="234.5" y="-223" font-family="FreeSans" font-size="10.00">EP::polynomial_extrapolation</text>
</a>
</g>
</g>
<!-- Node38&#45;&gt;Node39 -->
<g id="edge1" class="edge"><title>Node38&#45;&gt;Node39</title>
<path fill="none" stroke="midnightblue" d="M80.9429,-142.604C99.5607,-159.525 131.914,-186.77 164,-203.5 170.635,-206.96 177.913,-209.995 185.182,-212.617"/>
<polygon fill="midnightblue" stroke="midnightblue" points="184.434,-216.058 195.028,-215.938 186.671,-209.425 184.434,-216.058"/>
</g>
<!-- Node41 -->
<g id="node4" class="node"><title>Node41</title>
<g id="a_node4"><a xlink:href="namespaceEP.html#a069470acd4f6c52b2ebb68afcf4528ab" target="_top" xlink:title="Rational extrapolation of Tsize number of data together. ">
<polygon fill="white" stroke="black" points="170.5,-175 170.5,-194 298.5,-194 298.5,-175 170.5,-175"/>
<text text-anchor="middle" x="234.5" y="-182" font-family="FreeSans" font-size="10.00">EP::rational_extrapolation</text>
</a>
</g>
</g>
<!-- Node38&#45;&gt;Node41 -->
<g id="edge3" class="edge"><title>Node38&#45;&gt;Node41</title>
<path fill="none" stroke="midnightblue" d="M101.825,-142.639C120.326,-149.987 143.181,-158.678 164,-165.5 171.108,-167.829 178.687,-170.107 186.13,-172.23"/>
<polygon fill="midnightblue" stroke="midnightblue" points="185.211,-175.608 195.784,-174.924 187.093,-168.865 185.211,-175.608"/>
</g>
<!-- Node43 -->
<g id="node6" class="node"><title>Node43</title>
<g id="a_node6"><a xlink:href="namespaceEP.html#ab0499a8ae6cab209fc0cca6a47b166f3" target="_top" xlink:title="Error estimation. ">
<polygon fill="white" stroke="black" points="176,-137 176,-156 293,-156 293,-137 176,-137"/>
<text text-anchor="middle" x="234.5" y="-144" font-family="FreeSans" font-size="10.00">EP::extrapolation_error</text>
</a>
</g>
</g>
<!-- Node38&#45;&gt;Node43 -->
<g id="edge5" class="edge"><title>Node38&#45;&gt;Node43</title>
<path fill="none" stroke="midnightblue" d="M128.223,-134.629C140.406,-136.003 153.217,-137.447 165.543,-138.837"/>
<polygon fill="midnightblue" stroke="midnightblue" points="165.43,-142.347 175.76,-139.989 166.215,-135.391 165.43,-142.347"/>
</g>
<!-- Node44 -->
<g id="node7" class="node"><title>Node44</title>
<g id="a_node7"><a xlink:href="namespaceEP.html#a6d54b765511d661bb4267799ff1a804f" target="_top" xlink:title="Next step optimized factor estimation (based on the extrapolation order n) ">
<polygon fill="white" stroke="black" points="190,-99 190,-118 279,-118 279,-99 190,-99"/>
<text text-anchor="middle" x="234.5" y="-106" font-family="FreeSans" font-size="10.00">EP::H_opt_factor</text>
</a>
</g>
</g>
<!-- Node38&#45;&gt;Node44 -->
<g id="edge6" class="edge"><title>Node38&#45;&gt;Node44</title>
<path fill="none" stroke="midnightblue" d="M128.223,-120.371C145.236,-118.453 163.471,-116.396 179.905,-114.543"/>
<polygon fill="midnightblue" stroke="midnightblue" points="180.333,-118.017 189.878,-113.419 179.548,-111.061 180.333,-118.017"/>
</g>
<!-- Node45 -->
<g id="node8" class="node"><title>Node45</title>
<g id="a_node8"><a xlink:href="namespaceEP.html#ad1bbde38ef63ce2a0672843d598770b8" target="_top" xlink:title="Hermite interpolation coefficients. ">
<polygon fill="white" stroke="black" points="171,-49.5 171,-79.5 298,-79.5 298,-49.5 171,-49.5"/>
<text text-anchor="start" x="179" y="-67.5" font-family="FreeSans" font-size="10.00">EP::Hermite_interpolation</text>
<text text-anchor="middle" x="234.5" y="-56.5" font-family="FreeSans" font-size="10.00">_coefficients</text>
</a>
</g>
</g>
<!-- Node38&#45;&gt;Node45 -->
<g id="edge7" class="edge"><title>Node38&#45;&gt;Node45</title>
<path fill="none" stroke="midnightblue" d="M103.955,-112.329C122.162,-105.294 144.155,-96.8769 164,-89.5 169.621,-87.4106 175.507,-85.2502 181.375,-83.1146"/>
<polygon fill="midnightblue" stroke="midnightblue" points="182.972,-86.2585 191.182,-79.5608 180.587,-79.6774 182.972,-86.2585"/>
</g>
<!-- Node46 -->
<g id="node9" class="node"><title>Node46</title>
<g id="a_node9"><a xlink:href="namespaceEP.html#a10270a1ba230322545fff5bc06d94659" target="_top" xlink:title="Hermite interpolation polynomial. ">
<polygon fill="white" stroke="black" points="171,-0.5 171,-30.5 298,-30.5 298,-0.5 171,-0.5"/>
<text text-anchor="start" x="179" y="-18.5" font-family="FreeSans" font-size="10.00">EP::Hermite_interpolation</text>
<text text-anchor="middle" x="234.5" y="-7.5" font-family="FreeSans" font-size="10.00">_polynomial</text>
</a>
</g>
</g>
<!-- Node38&#45;&gt;Node46 -->
<g id="edge8" class="edge"><title>Node38&#45;&gt;Node46</title>
<path fill="none" stroke="midnightblue" d="M78.7213,-112.339C96.6829,-93.2766 129.909,-60.6182 164,-40.5 167.442,-38.4685 171.077,-36.5611 174.806,-34.7776"/>
<polygon fill="midnightblue" stroke="midnightblue" points="176.494,-37.8574 184.213,-30.5997 173.653,-31.4599 176.494,-37.8574"/>
</g>
<!-- Node40 -->
<g id="node3" class="node"><title>Node40</title>
<g id="a_node3"><a xlink:href="namespaceEP.html#a8f951202841accc906325f37f9e592af" target="_top" xlink:title="Polynomial_recursion_formula. ">
<polygon fill="white" stroke="black" points="341,-215.5 341,-245.5 466,-245.5 466,-215.5 341,-215.5"/>
<text text-anchor="start" x="349" y="-233.5" font-family="FreeSans" font-size="10.00">EP::polynomial_recursive</text>
<text text-anchor="middle" x="403.5" y="-222.5" font-family="FreeSans" font-size="10.00">_formula</text>
</a>
</g>
</g>
<!-- Node39&#45;&gt;Node40 -->
<g id="edge2" class="edge"><title>Node39&#45;&gt;Node40</title>
<path fill="none" stroke="midnightblue" d="M305.355,-227.591C313.743,-227.843 322.32,-228.099 330.734,-228.351"/>
<polygon fill="midnightblue" stroke="midnightblue" points="330.793,-231.855 340.894,-228.655 331.003,-224.858 330.793,-231.855"/>
</g>
<!-- Node42 -->
<g id="node5" class="node"><title>Node42</title>
<g id="a_node5"><a xlink:href="namespaceEP.html#afe6d08bb36343e39ebbbd4406dc9989f" target="_top" xlink:title="Rational_recursion formula. ">
<polygon fill="white" stroke="black" points="348,-166.5 348,-196.5 459,-196.5 459,-166.5 348,-166.5"/>
<text text-anchor="start" x="356" y="-184.5" font-family="FreeSans" font-size="10.00">EP::rational_recursive</text>
<text text-anchor="middle" x="403.5" y="-173.5" font-family="FreeSans" font-size="10.00">_formula</text>
</a>
</g>
</g>
<!-- Node41&#45;&gt;Node42 -->
<g id="edge4" class="edge"><title>Node41&#45;&gt;Node42</title>
<path fill="none" stroke="midnightblue" d="M298.636,-183.366C311.39,-183.137 324.82,-182.895 337.632,-182.665"/>
<polygon fill="midnightblue" stroke="midnightblue" points="337.816,-186.163 347.751,-182.484 337.69,-179.164 337.816,-186.163"/>
</g>
</g>
</svg>
