<?xml version="1.0" encoding="UTF-8" standalone="no"?>
<!DOCTYPE svg PUBLIC "-//W3C//DTD SVG 1.1//EN"
 "http://www.w3.org/Graphics/SVG/1.1/DTD/svg11.dtd">
<!-- Generated by graphviz version 2.38.0 (20140413.2041)
 -->
<!-- Title: ptree::link Pages: 1 -->
<svg width="261pt" height="47pt"
 viewBox="0.00 0.00 261.00 47.00" xmlns="http://www.w3.org/2000/svg" xmlns:xlink="http://www.w3.org/1999/xlink">
<g id="graph0" class="graph" transform="scale(1 1) rotate(0) translate(4 43)">
<title>ptree::link</title>
<polygon fill="white" stroke="none" points="-4,4 -4,-43 257,-43 257,4 -4,4"/>
<!-- Node20 -->
<g id="node1" class="node"><title>Node20</title>
<polygon fill="#bfbfbf" stroke="black" points="0,-0.5 0,-19.5 61,-19.5 61,-0.5 0,-0.5"/>
<text text-anchor="middle" x="30.5" y="-7.5" font-family="FreeSans" font-size="10.00">ptree::link</text>
</g>
<!-- Node21 -->
<g id="node2" class="node"><title>Node21</title>
<g id="a_node2"><a xlink:href="classptree.html#ae4c20eddf5cfcf45e5f809567c967bf9" target="_top" xlink:title="Split (delete) one leaf, create a new branch (ptree) and store two particles. ">
<polygon fill="white" stroke="black" points="97,-19.5 97,-38.5 161,-38.5 161,-19.5 97,-19.5"/>
<text text-anchor="middle" x="129" y="-26.5" font-family="FreeSans" font-size="10.00">ptree::split</text>
</a>
</g>
</g>
<!-- Node20&#45;&gt;Node21 -->
<g id="edge1" class="edge"><title>Node20&#45;&gt;Node21</title>
<path fill="none" stroke="midnightblue" d="M61.2406,-15.8557C69.3605,-17.4544 78.3048,-19.2155 86.9353,-20.9147"/>
<polygon fill="midnightblue" stroke="midnightblue" points="86.3667,-24.3699 96.8545,-22.8677 87.719,-17.5018 86.3667,-24.3699"/>
</g>
<!-- Node22 -->
<g id="node3" class="node"><title>Node22</title>
<g id="a_node3"><a xlink:href="classptree.html#a296d5895fbf14f2bb3af6ebf2fa52164" target="_top" xlink:title="fill particles to two leaves/branches ">
<polygon fill="white" stroke="black" points="197,-0.5 197,-19.5 253,-19.5 253,-0.5 197,-0.5"/>
<text text-anchor="middle" x="225" y="-7.5" font-family="FreeSans" font-size="10.00">ptree::fill</text>
</a>
</g>
</g>
<!-- Node20&#45;&gt;Node22 -->
<g id="edge3" class="edge"><title>Node20&#45;&gt;Node22</title>
<path fill="none" stroke="midnightblue" d="M61.1563,-10C94.8484,-10 149.894,-10 186.529,-10"/>
<polygon fill="midnightblue" stroke="midnightblue" points="186.802,-13.5001 196.801,-10 186.801,-6.5001 186.802,-13.5001"/>
</g>
<!-- Node21&#45;&gt;Node22 -->
<g id="edge2" class="edge"><title>Node21&#45;&gt;Node22</title>
<path fill="none" stroke="midnightblue" d="M161.04,-22.726C169.252,-21.0662 178.201,-19.2572 186.707,-17.5379"/>
<polygon fill="midnightblue" stroke="midnightblue" points="187.675,-20.9131 196.784,-15.5012 186.288,-14.0518 187.675,-20.9131"/>
</g>
</g>
</svg>
