<?xml version="1.0" encoding="UTF-8" standalone="no"?>
<!DOCTYPE svg PUBLIC "-//W3C//DTD SVG 1.1//EN"
 "http://www.w3.org/Graphics/SVG/1.1/DTD/svg11.dtd">
<!-- Generated by graphviz version 2.38.0 (20140413.2041)
 -->
<!-- Title: ARC::chainpars::chainpars Pages: 1 -->
<svg width="283pt" height="66pt"
 viewBox="0.00 0.00 283.00 66.00" xmlns="http://www.w3.org/2000/svg" xmlns:xlink="http://www.w3.org/1999/xlink">
<g id="graph0" class="graph" transform="scale(1 1) rotate(0) translate(4 62)">
<title>ARC::chainpars::chainpars</title>
<polygon fill="white" stroke="none" points="-4,4 -4,-62 279,-62 279,4 -4,4"/>
<!-- Node0 -->
<g id="node1" class="node"><title>Node0</title>
<polygon fill="#bfbfbf" stroke="black" points="0,-19.5 0,-38.5 132,-38.5 132,-19.5 0,-19.5"/>
<text text-anchor="middle" x="66" y="-26.5" font-family="FreeSans" font-size="10.00">ARC::chainpars::chainpars</text>
</g>
<!-- Node1 -->
<g id="node2" class="node"><title>Node1</title>
<g id="a_node2"><a xlink:href="namespaceARC.html#ab9fc6518902e918927d8c6bd3d51401d" target="_top" xlink:title="Newtonian acceleration and &#160;from particle j to particle i (function type of ARC::pair_AW) ...">
<polygon fill="white" stroke="black" points="168,-38.5 168,-57.5 275,-57.5 275,-38.5 168,-38.5"/>
<text text-anchor="middle" x="221.5" y="-45.5" font-family="FreeSans" font-size="10.00">ARC::Newtonian_AW</text>
</a>
</g>
</g>
<!-- Node0&#45;&gt;Node1 -->
<g id="edge1" class="edge"><title>Node0&#45;&gt;Node1</title>
<path fill="none" stroke="midnightblue" d="M132.098,-37.0577C140.579,-38.1075 149.255,-39.1814 157.698,-40.2264"/>
<polygon fill="midnightblue" stroke="midnightblue" points="157.498,-43.7283 167.852,-41.4833 158.358,-36.7813 157.498,-43.7283"/>
</g>
<!-- Node2 -->
<g id="node3" class="node"><title>Node2</title>
<g id="a_node3"><a xlink:href="namespaceARC.html#a70d2d18fc72d05606cb2c991ada4c64b" target="_top" xlink:title="Newtonian acceleration from particle p to particle i (function type of ARC::pair_Ap) ...">
<polygon fill="white" stroke="black" points="169.5,-0.5 169.5,-19.5 273.5,-19.5 273.5,-0.5 169.5,-0.5"/>
<text text-anchor="middle" x="221.5" y="-7.5" font-family="FreeSans" font-size="10.00">ARC::Newtonian_Ap</text>
</a>
</g>
</g>
<!-- Node0&#45;&gt;Node2 -->
<g id="edge2" class="edge"><title>Node0&#45;&gt;Node2</title>
<path fill="none" stroke="midnightblue" d="M132.098,-20.9423C141.122,-19.8253 150.366,-18.6811 159.315,-17.5734"/>
<polygon fill="midnightblue" stroke="midnightblue" points="159.772,-21.0436 169.267,-16.3416 158.912,-14.0966 159.772,-21.0436"/>
</g>
</g>
</svg>
