<?xml version="1.0" encoding="UTF-8" standalone="no"?>
<!DOCTYPE svg PUBLIC "-//W3C//DTD SVG 1.1//EN"
 "http://www.w3.org/Graphics/SVG/1.1/DTD/svg11.dtd">
<!-- Generated by graphviz version 2.38.0 (20140413.2041)
 -->
<!-- Title: ARC::chainlist::getN Pages: 1 -->
<svg width="258pt" height="154pt"
 viewBox="0.00 0.00 258.00 153.50" xmlns="http://www.w3.org/2000/svg" xmlns:xlink="http://www.w3.org/1999/xlink">
<g id="graph0" class="graph" transform="scale(1 1) rotate(0) translate(4 149.5)">
<title>ARC::chainlist::getN</title>
<polygon fill="white" stroke="none" points="-4,4 -4,-149.5 254,-149.5 254,4 -4,4"/>
<!-- Node26 -->
<g id="node1" class="node"><title>Node26</title>
<polygon fill="#bfbfbf" stroke="black" points="0,-69 0,-88 104,-88 104,-69 0,-69"/>
<text text-anchor="middle" x="52" y="-76" font-family="FreeSans" font-size="10.00">ARC::chainlist::getN</text>
</g>
<!-- Node27 -->
<g id="node2" class="node"><title>Node27</title>
<g id="a_node2"><a xlink:href="classARC_1_1chain.html#a4e9c6711eb95c5614cd28b14d33ec3eb" target="_top" xlink:title="destructor ">
<polygon fill="white" stroke="black" points="144.5,-126 144.5,-145 245.5,-145 245.5,-126 144.5,-126"/>
<text text-anchor="middle" x="195" y="-133" font-family="FreeSans" font-size="10.00">ARC::chain::~chain</text>
</a>
</g>
</g>
<!-- Node26&#45;&gt;Node27 -->
<g id="edge1" class="edge"><title>Node26&#45;&gt;Node27</title>
<path fill="none" stroke="midnightblue" d="M83.1477,-92.3188C99.7889,-99.7816 120.898,-108.979 140,-116.5 148.23,-119.74 157.265,-123.024 165.549,-125.929"/>
<polygon fill="midnightblue" stroke="midnightblue" points="84.4693,-89.0754 73.9149,-88.1511 81.5893,-95.4555 84.4693,-89.0754"/>
</g>
<!-- Node28 -->
<g id="node3" class="node"><title>Node28</title>
<g id="a_node3"><a xlink:href="classARC_1_1chain.html#a921a250cfcfe7a5b8e597ddcb03730ec" target="_top" xlink:title="Data reading from file function. ">
<polygon fill="white" stroke="black" points="150,-88 150,-107 240,-107 240,-88 150,-88"/>
<text text-anchor="middle" x="195" y="-95" font-family="FreeSans" font-size="10.00">ARC::chain::load</text>
</a>
</g>
</g>
<!-- Node26&#45;&gt;Node28 -->
<g id="edge2" class="edge"><title>Node26&#45;&gt;Node28</title>
<path fill="none" stroke="midnightblue" d="M114.269,-86.7561C126.272,-88.3736 138.639,-90.04 149.944,-91.5634"/>
<polygon fill="midnightblue" stroke="midnightblue" points="114.681,-83.2801 104.303,-85.4132 113.746,-90.2174 114.681,-83.2801"/>
</g>
<!-- Node29 -->
<g id="node4" class="node"><title>Node29</title>
<g id="a_node4"><a xlink:href="classARC_1_1chain.html#a3fe37720ceb48c14905c92d3e25e71a4" target="_top" xlink:title="Initialization. ">
<polygon fill="white" stroke="black" points="152.5,-50 152.5,-69 237.5,-69 237.5,-50 152.5,-50"/>
<text text-anchor="middle" x="195" y="-57" font-family="FreeSans" font-size="10.00">ARC::chain::init</text>
</a>
</g>
</g>
<!-- Node26&#45;&gt;Node29 -->
<g id="edge3" class="edge"><title>Node26&#45;&gt;Node29</title>
<path fill="none" stroke="midnightblue" d="M114.421,-70.2234C127.185,-68.5034 140.354,-66.729 152.214,-65.1307"/>
<polygon fill="midnightblue" stroke="midnightblue" points="113.746,-66.7826 104.303,-71.5868 114.681,-73.7199 113.746,-66.7826"/>
</g>
<!-- Node30 -->
<g id="node5" class="node"><title>Node30</title>
<g id="a_node5"><a xlink:href="classARC_1_1chain.html#aff3cd92c840d1bbbc903a8a07eb079d0" target="_top" xlink:title="Leapfrog integrator. ">
<polygon fill="white" stroke="black" points="140,-0.5 140,-30.5 250,-30.5 250,-0.5 140,-0.5"/>
<text text-anchor="start" x="148" y="-18.5" font-family="FreeSans" font-size="10.00">ARC::chain::Leapfrog</text>
<text text-anchor="middle" x="195" y="-7.5" font-family="FreeSans" font-size="10.00">_step_forward</text>
</a>
</g>
</g>
<!-- Node26&#45;&gt;Node30 -->
<g id="edge4" class="edge"><title>Node26&#45;&gt;Node30</title>
<path fill="none" stroke="midnightblue" d="M83.5583,-64.8463C106.168,-54.7442 136.957,-40.9875 160.283,-30.565"/>
<polygon fill="midnightblue" stroke="midnightblue" points="82.1172,-61.6567 74.4149,-68.9317 84.9728,-68.0477 82.1172,-61.6567"/>
</g>
</g>
</svg>
