<?xml version="1.0" encoding="UTF-8" standalone="no"?>
<!DOCTYPE svg PUBLIC "-//W3C//DTD SVG 1.1//EN"
 "http://www.w3.org/Graphics/SVG/1.1/DTD/svg11.dtd">
<!-- Generated by graphviz version 2.38.0 (20140413.2041)
 -->
<!-- Title: ptree::link Pages: 1 -->
<svg width="270pt" height="47pt"
 viewBox="0.00 0.00 270.00 47.00" xmlns="http://www.w3.org/2000/svg" xmlns:xlink="http://www.w3.org/1999/xlink">
<g id="graph0" class="graph" transform="scale(1 1) rotate(0) translate(4 43)">
<title>ptree::link</title>
<polygon fill="white" stroke="none" points="-4,4 -4,-43 266,-43 266,4 -4,4"/>
<!-- Node1 -->
<g id="node1" class="node"><title>Node1</title>
<polygon fill="#bfbfbf" stroke="black" points="0,-0.5 0,-19.5 64,-19.5 64,-0.5 0,-0.5"/>
<text text-anchor="middle" x="32" y="-7.5" font-family="FreeSans" font-size="10.00">ptree::link</text>
</g>
<!-- Node2 -->
<g id="node2" class="node"><title>Node2</title>
<g id="a_node2"><a xlink:href="classptree.html#ae4c20eddf5cfcf45e5f809567c967bf9" target="_top" xlink:title="Split (delete) one leaf, create a new branch (ptree) and store two particles. ">
<polygon fill="white" stroke="black" points="100,-19.5 100,-38.5 168,-38.5 168,-19.5 100,-19.5"/>
<text text-anchor="middle" x="134" y="-26.5" font-family="FreeSans" font-size="10.00">ptree::split</text>
</a>
</g>
</g>
<!-- Node1&#45;&gt;Node2 -->
<g id="edge1" class="edge"><title>Node1&#45;&gt;Node2</title>
<path fill="none" stroke="midnightblue" d="M64.0925,-15.9076C72.2519,-17.4579 81.1991,-19.1578 89.8658,-20.8045"/>
<polygon fill="midnightblue" stroke="midnightblue" points="89.3693,-24.2727 99.8469,-22.7009 90.6759,-17.3957 89.3693,-24.2727"/>
</g>
<!-- Node3 -->
<g id="node3" class="node"><title>Node3</title>
<g id="a_node3"><a xlink:href="classptree.html#a296d5895fbf14f2bb3af6ebf2fa52164" target="_top" xlink:title="fill particles to two leaves/branches ">
<polygon fill="white" stroke="black" points="204,-0.5 204,-19.5 262,-19.5 262,-0.5 204,-0.5"/>
<text text-anchor="middle" x="233" y="-7.5" font-family="FreeSans" font-size="10.00">ptree::fill</text>
</a>
</g>
</g>
<!-- Node1&#45;&gt;Node3 -->
<g id="edge3" class="edge"><title>Node1&#45;&gt;Node3</title>
<path fill="none" stroke="midnightblue" d="M64.0938,-10C99.0657,-10 155.89,-10 193.603,-10"/>
<polygon fill="midnightblue" stroke="midnightblue" points="193.7,-13.5001 203.699,-10 193.699,-6.5001 193.7,-13.5001"/>
</g>
<!-- Node2&#45;&gt;Node3 -->
<g id="edge2" class="edge"><title>Node2&#45;&gt;Node3</title>
<path fill="none" stroke="midnightblue" d="M168.111,-22.5144C176.383,-20.8941 185.321,-19.1434 193.816,-17.4793"/>
<polygon fill="midnightblue" stroke="midnightblue" points="194.744,-20.8642 203.885,-15.5071 193.398,-13.9947 194.744,-20.8642"/>
</g>
</g>
</svg>
