<?xml version="1.0" encoding="UTF-8" standalone="no"?>
<!DOCTYPE svg PUBLIC "-//W3C//DTD SVG 1.1//EN"
 "http://www.w3.org/Graphics/SVG/1.1/DTD/svg11.dtd">
<!-- Generated by graphviz version 2.38.0 (20140413.2041)
 -->
<!-- Title: ARC::chainlist::allocate Pages: 1 -->
<svg width="254pt" height="66pt"
 viewBox="0.00 0.00 254.00 66.00" xmlns="http://www.w3.org/2000/svg" xmlns:xlink="http://www.w3.org/1999/xlink">
<g id="graph0" class="graph" transform="scale(1 1) rotate(0) translate(4 62)">
<title>ARC::chainlist::allocate</title>
<polygon fill="white" stroke="none" points="-4,4 -4,-62 250,-62 250,4 -4,4"/>
<!-- Node13 -->
<g id="node1" class="node"><title>Node13</title>
<polygon fill="#bfbfbf" stroke="black" points="0,-19.5 0,-38.5 117,-38.5 117,-19.5 0,-19.5"/>
<text text-anchor="middle" x="58.5" y="-26.5" font-family="FreeSans" font-size="10.00">ARC::chainlist::allocate</text>
</g>
<!-- Node14 -->
<g id="node2" class="node"><title>Node14</title>
<g id="a_node2"><a xlink:href="classARC_1_1chain.html#a2df655cb46fcb7e892f196340e7d5c83" target="_top" xlink:title="Add particle. ">
<polygon fill="white" stroke="black" points="153,-38.5 153,-57.5 246,-57.5 246,-38.5 153,-38.5"/>
<text text-anchor="middle" x="199.5" y="-45.5" font-family="FreeSans" font-size="10.00">ARC::chain::addP</text>
</a>
</g>
</g>
<!-- Node13&#45;&gt;Node14 -->
<g id="edge1" class="edge"><title>Node13&#45;&gt;Node14</title>
<path fill="none" stroke="midnightblue" d="M127.264,-38.2627C135.842,-39.4352 144.456,-40.6126 152.581,-41.7234"/>
<polygon fill="midnightblue" stroke="midnightblue" points="127.623,-34.7793 117.241,-36.8926 126.675,-41.7148 127.623,-34.7793"/>
</g>
<!-- Node15 -->
<g id="node3" class="node"><title>Node15</title>
<g id="a_node3"><a xlink:href="classARC_1_1chain.html#a3f328bce3650bab9496987bc5a1f5a98" target="_top" xlink:title="Data reading from file function. ">
<polygon fill="white" stroke="black" points="153.5,-0.5 153.5,-19.5 245.5,-19.5 245.5,-0.5 153.5,-0.5"/>
<text text-anchor="middle" x="199.5" y="-7.5" font-family="FreeSans" font-size="10.00">ARC::chain::read</text>
</a>
</g>
</g>
<!-- Node13&#45;&gt;Node15 -->
<g id="edge2" class="edge"><title>Node13&#45;&gt;Node15</title>
<path fill="none" stroke="midnightblue" d="M127.232,-19.7417C136.123,-18.5264 145.052,-17.3058 153.438,-16.1595"/>
<polygon fill="midnightblue" stroke="midnightblue" points="126.675,-16.2852 117.241,-21.1074 127.623,-23.2207 126.675,-16.2852"/>
</g>
</g>
</svg>
