<?xml version="1.0" encoding="UTF-8" standalone="no"?>
<!DOCTYPE svg PUBLIC "-//W3C//DTD SVG 1.1//EN"
 "http://www.w3.org/Graphics/SVG/1.1/DTD/svg11.dtd">
<!-- Generated by graphviz version 2.38.0 (20140413.2041)
 -->
<!-- Title: ARC::chainlist::add Pages: 1 -->
<svg width="237pt" height="66pt"
 viewBox="0.00 0.00 237.00 66.00" xmlns="http://www.w3.org/2000/svg" xmlns:xlink="http://www.w3.org/1999/xlink">
<g id="graph0" class="graph" transform="scale(1 1) rotate(0) translate(4 62)">
<title>ARC::chainlist::add</title>
<polygon fill="white" stroke="none" points="-4,4 -4,-62 233,-62 233,4 -4,4"/>
<!-- Node7 -->
<g id="node1" class="node"><title>Node7</title>
<polygon fill="#bfbfbf" stroke="black" points="0,-19.5 0,-38.5 100,-38.5 100,-19.5 0,-19.5"/>
<text text-anchor="middle" x="50" y="-26.5" font-family="FreeSans" font-size="10.00">ARC::chainlist::add</text>
</g>
<!-- Node8 -->
<g id="node2" class="node"><title>Node8</title>
<g id="a_node2"><a xlink:href="classARC_1_1chain.html#a2df655cb46fcb7e892f196340e7d5c83" target="_top" xlink:title="Add particle. ">
<polygon fill="white" stroke="black" points="136,-38.5 136,-57.5 229,-57.5 229,-38.5 136,-38.5"/>
<text text-anchor="middle" x="182.5" y="-45.5" font-family="FreeSans" font-size="10.00">ARC::chain::addP</text>
</a>
</g>
</g>
<!-- Node7&#45;&gt;Node8 -->
<g id="edge1" class="edge"><title>Node7&#45;&gt;Node8</title>
<path fill="none" stroke="midnightblue" d="M110.338,-37.6393C118.944,-38.8922 127.687,-40.1651 135.963,-41.3701"/>
<polygon fill="midnightblue" stroke="midnightblue" points="110.736,-34.1604 100.336,-36.1831 109.728,-41.0874 110.736,-34.1604"/>
</g>
<!-- Node9 -->
<g id="node3" class="node"><title>Node9</title>
<g id="a_node3"><a xlink:href="classARC_1_1chain.html#a3f328bce3650bab9496987bc5a1f5a98" target="_top" xlink:title="Data reading from file function. ">
<polygon fill="white" stroke="black" points="136.5,-0.5 136.5,-19.5 228.5,-19.5 228.5,-0.5 136.5,-0.5"/>
<text text-anchor="middle" x="182.5" y="-7.5" font-family="FreeSans" font-size="10.00">ARC::chain::read</text>
</a>
</g>
</g>
<!-- Node7&#45;&gt;Node9 -->
<g id="edge2" class="edge"><title>Node7&#45;&gt;Node9</title>
<path fill="none" stroke="midnightblue" d="M110.463,-20.3425C119.176,-19.074 128.027,-17.7853 136.389,-16.5678"/>
<polygon fill="midnightblue" stroke="midnightblue" points="109.728,-16.9126 100.336,-21.8169 110.736,-23.8396 109.728,-16.9126"/>
</g>
</g>
</svg>
