<?xml version="1.0" encoding="UTF-8" standalone="no"?>
<!DOCTYPE svg PUBLIC "-//W3C//DTD SVG 1.1//EN"
 "http://www.w3.org/Graphics/SVG/1.1/DTD/svg11.dtd">
<!-- Generated by graphviz version 2.38.0 (20140413.2041)
 -->
<!-- Title: ptree::fill Pages: 1 -->
<svg width="276pt" height="85pt"
 viewBox="0.00 0.00 276.00 85.00" xmlns="http://www.w3.org/2000/svg" xmlns:xlink="http://www.w3.org/1999/xlink">
<g id="graph0" class="graph" transform="scale(1 1) rotate(0) translate(4 81)">
<title>ptree::fill</title>
<polygon fill="white" stroke="none" points="-4,4 -4,-81 272,-81 272,4 -4,4"/>
<!-- Node1 -->
<g id="node1" class="node"><title>Node1</title>
<polygon fill="#bfbfbf" stroke="black" points="0,-19.5 0,-38.5 58,-38.5 58,-19.5 0,-19.5"/>
<text text-anchor="middle" x="29" y="-26.5" font-family="FreeSans" font-size="10.00">ptree::fill</text>
</g>
<!-- Node2 -->
<g id="node2" class="node"><title>Node2</title>
<g id="a_node2"><a xlink:href="classptree.html#a128cebcb837edbd16dd6dd9c7784ddd9" target="_top" xlink:title="construct the tree py filling two particles ">
<polygon fill="white" stroke="black" points="94,-57.5 94,-76.5 168,-76.5 168,-57.5 94,-57.5"/>
<text text-anchor="middle" x="131" y="-64.5" font-family="FreeSans" font-size="10.00">ptree::ptree</text>
</a>
</g>
</g>
<!-- Node1&#45;&gt;Node2 -->
<g id="edge1" class="edge"><title>Node1&#45;&gt;Node2</title>
<path fill="none" stroke="midnightblue" d="M64.9067,-42.2646C78.0349,-47.2533 92.695,-52.8241 104.774,-57.4141"/>
<polygon fill="midnightblue" stroke="midnightblue" points="65.8253,-38.8695 55.2342,-38.589 63.3388,-45.413 65.8253,-38.8695"/>
</g>
<!-- Node3 -->
<g id="node3" class="node"><title>Node3</title>
<g id="a_node3"><a xlink:href="classptree.html#ae4c20eddf5cfcf45e5f809567c967bf9" target="_top" xlink:title="Split (delete) one leaf, create a new branch (ptree) and store two particles. ">
<polygon fill="white" stroke="black" points="97,-19.5 97,-38.5 165,-38.5 165,-19.5 97,-19.5"/>
<text text-anchor="middle" x="131" y="-26.5" font-family="FreeSans" font-size="10.00">ptree::split</text>
</a>
</g>
</g>
<!-- Node1&#45;&gt;Node3 -->
<g id="edge2" class="edge"><title>Node1&#45;&gt;Node3</title>
<path fill="none" stroke="midnightblue" d="M68.374,-29C77.7382,-29 87.6784,-29 96.7796,-29"/>
<polygon fill="midnightblue" stroke="midnightblue" points="68.1217,-25.5001 58.1217,-29 68.1217,-32.5001 68.1217,-25.5001"/>
</g>
<!-- Node4 -->
<g id="node4" class="node"><title>Node4</title>
<g id="a_node4"><a xlink:href="classptree.html#a84643c9c87f4ed74ec06542e22c8bee7" target="_top" xlink:title="add a particle pair to one of the leaf ">
<polygon fill="white" stroke="black" points="204,-0.5 204,-19.5 268,-19.5 268,-0.5 204,-0.5"/>
<text text-anchor="middle" x="236" y="-7.5" font-family="FreeSans" font-size="10.00">ptree::link</text>
</a>
</g>
</g>
<!-- Node1&#45;&gt;Node4 -->
<g id="edge4" class="edge"><title>Node1&#45;&gt;Node4</title>
<path fill="none" stroke="midnightblue" d="M65.3883,-16.518C74.5875,-13.8221 84.566,-11.3708 94,-10 131.427,-4.56169 175.035,-5.68759 203.731,-7.43529"/>
<polygon fill="midnightblue" stroke="midnightblue" points="64.289,-13.1944 55.7747,-19.4999 66.3628,-19.8802 64.289,-13.1944"/>
</g>
<!-- Node3&#45;&gt;Node4 -->
<g id="edge3" class="edge"><title>Node3&#45;&gt;Node4</title>
<path fill="none" stroke="midnightblue" d="M175.277,-21.0169C184.801,-19.2599 194.711,-17.4319 203.657,-15.7816"/>
<polygon fill="midnightblue" stroke="midnightblue" points="174.356,-17.6276 165.157,-22.8837 175.626,-24.5115 174.356,-17.6276"/>
</g>
</g>
</svg>
