<?xml version="1.0" encoding="UTF-8" standalone="no"?>
<!DOCTYPE svg PUBLIC "-//W3C//DTD SVG 1.1//EN"
 "http://www.w3.org/Graphics/SVG/1.1/DTD/svg11.dtd">
<!-- Generated by graphviz version 2.38.0 (20140413.2041)
 -->
<!-- Title: ARC::chainlist::getN Pages: 1 -->
<svg width="258pt" height="192pt"
 viewBox="0.00 0.00 258.00 191.50" xmlns="http://www.w3.org/2000/svg" xmlns:xlink="http://www.w3.org/1999/xlink">
<g id="graph0" class="graph" transform="scale(1 1) rotate(0) translate(4 187.5)">
<title>ARC::chainlist::getN</title>
<polygon fill="white" stroke="none" points="-4,4 -4,-187.5 254,-187.5 254,4 -4,4"/>
<!-- Node17 -->
<g id="node1" class="node"><title>Node17</title>
<polygon fill="#bfbfbf" stroke="black" points="0,-88 0,-107 104,-107 104,-88 0,-88"/>
<text text-anchor="middle" x="52" y="-95" font-family="FreeSans" font-size="10.00">ARC::chainlist::getN</text>
</g>
<!-- Node18 -->
<g id="node2" class="node"><title>Node18</title>
<g id="a_node2"><a xlink:href="namespaceARC.html#a8d6c876e9d20067d0e8a5c1c4c2c4be6" target="_top" xlink:title="Calculate smooth particle coefficient. ">
<polygon fill="white" stroke="black" points="152,-164 152,-183 238,-183 238,-164 152,-164"/>
<text text-anchor="middle" x="195" y="-171" font-family="FreeSans" font-size="10.00">ARC::calc_mm2</text>
</a>
</g>
</g>
<!-- Node17&#45;&gt;Node18 -->
<g id="edge1" class="edge"><title>Node17&#45;&gt;Node18</title>
<path fill="none" stroke="midnightblue" d="M73.5368,-113.007C90.6499,-125.415 116.016,-142.642 140,-154.5 147.127,-158.024 155.073,-161.201 162.631,-163.903"/>
<polygon fill="midnightblue" stroke="midnightblue" points="75.5195,-110.121 65.391,-107.012 71.3701,-115.758 75.5195,-110.121"/>
</g>
<!-- Node19 -->
<g id="node3" class="node"><title>Node19</title>
<g id="a_node3"><a xlink:href="classARC_1_1chain.html#a3467a68afb2daebec6c57899897a461c" target="_top" xlink:title="destructor ">
<polygon fill="white" stroke="black" points="144.5,-126 144.5,-145 245.5,-145 245.5,-126 144.5,-126"/>
<text text-anchor="middle" x="195" y="-133" font-family="FreeSans" font-size="10.00">ARC::chain::~chain</text>
</a>
</g>
</g>
<!-- Node17&#45;&gt;Node19 -->
<g id="edge2" class="edge"><title>Node17&#45;&gt;Node19</title>
<path fill="none" stroke="midnightblue" d="M98.4398,-109.746C117.875,-114.984 140.231,-121.009 158.431,-125.914"/>
<polygon fill="midnightblue" stroke="midnightblue" points="99.1465,-106.312 88.5803,-107.089 97.325,-113.071 99.1465,-106.312"/>
</g>
<!-- Node20 -->
<g id="node4" class="node"><title>Node20</title>
<g id="a_node4"><a xlink:href="classARC_1_1chain.html#a8e31c6a438a72d322889d0ca82fa6bf8" target="_top" xlink:title="Allocate memory for perturber list. ">
<polygon fill="white" stroke="black" points="143.5,-88 143.5,-107 246.5,-107 246.5,-88 143.5,-88"/>
<text text-anchor="middle" x="195" y="-95" font-family="FreeSans" font-size="10.00">ARC::chain::initPext</text>
</a>
</g>
</g>
<!-- Node17&#45;&gt;Node20 -->
<g id="edge3" class="edge"><title>Node17&#45;&gt;Node20</title>
<path fill="none" stroke="midnightblue" d="M114.318,-97.5C124.042,-97.5 134.002,-97.5 143.443,-97.5"/>
<polygon fill="midnightblue" stroke="midnightblue" points="114.303,-94.0001 104.303,-97.5 114.303,-101 114.303,-94.0001"/>
</g>
<!-- Node21 -->
<g id="node5" class="node"><title>Node21</title>
<g id="a_node5"><a xlink:href="classARC_1_1chain.html#aa016cf633d19079dca24565b80a36a3f" target="_top" xlink:title="Initialization. ">
<polygon fill="white" stroke="black" points="152.5,-50 152.5,-69 237.5,-69 237.5,-50 152.5,-50"/>
<text text-anchor="middle" x="195" y="-57" font-family="FreeSans" font-size="10.00">ARC::chain::init</text>
</a>
</g>
</g>
<!-- Node17&#45;&gt;Node21 -->
<g id="edge4" class="edge"><title>Node17&#45;&gt;Node21</title>
<path fill="none" stroke="midnightblue" d="M98.4398,-85.2538C117.875,-80.016 140.231,-73.9909 158.431,-69.0859"/>
<polygon fill="midnightblue" stroke="midnightblue" points="97.325,-81.9293 88.5803,-87.911 99.1465,-88.6882 97.325,-81.9293"/>
</g>
<!-- Node22 -->
<g id="node6" class="node"><title>Node22</title>
<g id="a_node6"><a xlink:href="classARC_1_1chain.html#a82b26731761231d86fd2e0b4529df6fa" target="_top" xlink:title="Leapfrog integrator. ">
<polygon fill="white" stroke="black" points="140,-0.5 140,-30.5 250,-30.5 250,-0.5 140,-0.5"/>
<text text-anchor="start" x="148" y="-18.5" font-family="FreeSans" font-size="10.00">ARC::chain::Leapfrog</text>
<text text-anchor="middle" x="195" y="-7.5" font-family="FreeSans" font-size="10.00">_step_forward</text>
</a>
</g>
</g>
<!-- Node17&#45;&gt;Node22 -->
<g id="edge5" class="edge"><title>Node17&#45;&gt;Node22</title>
<path fill="none" stroke="midnightblue" d="M74.4514,-82.1755C91.7334,-70.1439 116.876,-53.3373 140,-40.5 146.142,-37.0902 152.831,-33.728 159.343,-30.6286"/>
<polygon fill="midnightblue" stroke="midnightblue" points="72.3526,-79.3726 66.1829,-87.9857 76.3772,-85.0999 72.3526,-79.3726"/>
</g>
</g>
</svg>
