<?xml version="1.0" encoding="UTF-8" standalone="no"?>
<!DOCTYPE svg PUBLIC "-//W3C//DTD SVG 1.1//EN"
 "http://www.w3.org/Graphics/SVG/1.1/DTD/svg11.dtd">
<!-- Generated by graphviz version 2.38.0 (20140413.2041)
 -->
<!-- Title: ARC::chain::read Pages: 1 -->
<svg width="253pt" height="104pt"
 viewBox="0.00 0.00 253.00 104.00" xmlns="http://www.w3.org/2000/svg" xmlns:xlink="http://www.w3.org/1999/xlink">
<g id="graph0" class="graph" transform="scale(1 1) rotate(0) translate(4 100)">
<title>ARC::chain::read</title>
<polygon fill="white" stroke="none" points="-4,4 -4,-100 249,-100 249,4 -4,4"/>
<!-- Node87 -->
<g id="node1" class="node"><title>Node87</title>
<polygon fill="#bfbfbf" stroke="black" points="0,-38.5 0,-57.5 92,-57.5 92,-38.5 0,-38.5"/>
<text text-anchor="middle" x="46" y="-45.5" font-family="FreeSans" font-size="10.00">ARC::chain::read</text>
</g>
<!-- Node88 -->
<g id="node2" class="node"><title>Node88</title>
<g id="a_node2"><a xlink:href="classARC_1_1chainlist.html#a461f4b2936307305b9092a4f81197e6b" target="_top" xlink:title="Get current particle number. ">
<polygon fill="white" stroke="black" points="134.5,-76.5 134.5,-95.5 238.5,-95.5 238.5,-76.5 134.5,-76.5"/>
<text text-anchor="middle" x="186.5" y="-83.5" font-family="FreeSans" font-size="10.00">ARC::chainlist::getN</text>
</a>
</g>
</g>
<!-- Node87&#45;&gt;Node88 -->
<g id="edge1" class="edge"><title>Node87&#45;&gt;Node88</title>
<path fill="none" stroke="midnightblue" d="M81.9494,-57.589C99.8284,-62.4944 121.788,-68.5196 140.878,-73.7571"/>
<polygon fill="midnightblue" stroke="midnightblue" points="139.992,-77.1434 150.562,-76.4141 141.844,-70.3928 139.992,-77.1434"/>
</g>
<!-- Node89 -->
<g id="node3" class="node"><title>Node89</title>
<g id="a_node3"><a xlink:href="classARC_1_1chainlist.html#a5efea9e6b234b5f2d20693468398a177" target="_top" xlink:title="Memory allocation of particle and particle address array. ">
<polygon fill="white" stroke="black" points="128,-38.5 128,-57.5 245,-57.5 245,-38.5 128,-38.5"/>
<text text-anchor="middle" x="186.5" y="-45.5" font-family="FreeSans" font-size="10.00">ARC::chainlist::allocate</text>
</a>
</g>
</g>
<!-- Node87&#45;&gt;Node89 -->
<g id="edge2" class="edge"><title>Node87&#45;&gt;Node89</title>
<path fill="none" stroke="midnightblue" d="M92.3501,-48C100.515,-48 109.186,-48 117.824,-48"/>
<polygon fill="midnightblue" stroke="midnightblue" points="117.917,-51.5001 127.917,-48 117.917,-44.5001 117.917,-51.5001"/>
</g>
<!-- Node90 -->
<g id="node4" class="node"><title>Node90</title>
<g id="a_node4"><a xlink:href="classARC_1_1chainlist.html#a598c1819d8e715ec0a24669e5bb06c6a" target="_top" xlink:title="Add new particle. ">
<polygon fill="white" stroke="black" points="136.5,-0.5 136.5,-19.5 236.5,-19.5 236.5,-0.5 136.5,-0.5"/>
<text text-anchor="middle" x="186.5" y="-7.5" font-family="FreeSans" font-size="10.00">ARC::chainlist::add</text>
</a>
</g>
</g>
<!-- Node87&#45;&gt;Node90 -->
<g id="edge3" class="edge"><title>Node87&#45;&gt;Node90</title>
<path fill="none" stroke="midnightblue" d="M81.9494,-38.411C99.8284,-33.5056 121.788,-27.4804 140.878,-22.2429"/>
<polygon fill="midnightblue" stroke="midnightblue" points="141.844,-25.6072 150.562,-19.5859 139.992,-18.8566 141.844,-25.6072"/>
</g>
</g>
</svg>
