<?xml version="1.0" encoding="UTF-8" standalone="no"?>
<!DOCTYPE svg PUBLIC "-//W3C//DTD SVG 1.1//EN"
 "http://www.w3.org/Graphics/SVG/1.1/DTD/svg11.dtd">
<!-- Generated by graphviz version 2.38.0 (20140413.2041)
 -->
<!-- Title: ARC::chain::extrapolation_integration Pages: 1 -->
<svg width="506pt" height="254pt"
 viewBox="0.00 0.00 506.00 254.00" xmlns="http://www.w3.org/2000/svg" xmlns:xlink="http://www.w3.org/1999/xlink">
<g id="graph0" class="graph" transform="scale(1 1) rotate(0) translate(4 250)">
<title>ARC::chain::extrapolation_integration</title>
<polygon fill="white" stroke="none" points="-4,4 -4,-250 502,-250 502,4 -4,4"/>
<!-- Node1 -->
<g id="node1" class="node"><title>Node1</title>
<polygon fill="#bfbfbf" stroke="black" points="0,-112.5 0,-142.5 136,-142.5 136,-112.5 0,-112.5"/>
<text text-anchor="start" x="8" y="-130.5" font-family="FreeSans" font-size="10.00">ARC::chain::extrapolation</text>
<text text-anchor="middle" x="68" y="-119.5" font-family="FreeSans" font-size="10.00">_integration</text>
</g>
<!-- Node2 -->
<g id="node2" class="node"><title>Node2</title>
<g id="a_node2"><a xlink:href="namespaceEP.html#ae89d6690a891336eef708e90e575a2be" target="_top" xlink:title="Polynomial extrapolation of Tsize number of data together. ">
<polygon fill="white" stroke="black" points="172,-216 172,-235 327,-235 327,-216 172,-216"/>
<text text-anchor="middle" x="249.5" y="-223" font-family="FreeSans" font-size="10.00">EP::polynomial_extrapolation</text>
</a>
</g>
</g>
<!-- Node1&#45;&gt;Node2 -->
<g id="edge1" class="edge"><title>Node1&#45;&gt;Node2</title>
<path fill="none" stroke="midnightblue" d="M85.6206,-142.722C105.021,-159.752 138.71,-187.095 172,-203.5 179.315,-207.105 187.322,-210.216 195.313,-212.871"/>
<polygon fill="midnightblue" stroke="midnightblue" points="194.418,-216.258 205.006,-215.885 196.496,-209.573 194.418,-216.258"/>
</g>
<!-- Node4 -->
<g id="node4" class="node"><title>Node4</title>
<g id="a_node4"><a xlink:href="namespaceEP.html#a069470acd4f6c52b2ebb68afcf4528ab" target="_top" xlink:title="Rational extrapolation of Tsize number of data together. ">
<polygon fill="white" stroke="black" points="180,-175 180,-194 319,-194 319,-175 180,-175"/>
<text text-anchor="middle" x="249.5" y="-182" font-family="FreeSans" font-size="10.00">EP::rational_extrapolation</text>
</a>
</g>
</g>
<!-- Node1&#45;&gt;Node4 -->
<g id="edge3" class="edge"><title>Node1&#45;&gt;Node4</title>
<path fill="none" stroke="midnightblue" d="M106.813,-142.585C126.141,-150.005 150.139,-158.775 172,-165.5 179.991,-167.958 188.525,-170.325 196.887,-172.505"/>
<polygon fill="midnightblue" stroke="midnightblue" points="196.028,-175.898 206.582,-174.971 197.754,-169.114 196.028,-175.898"/>
</g>
<!-- Node6 -->
<g id="node6" class="node"><title>Node6</title>
<g id="a_node6"><a xlink:href="namespaceEP.html#ab0499a8ae6cab209fc0cca6a47b166f3" target="_top" xlink:title="Error estimation. ">
<polygon fill="white" stroke="black" points="186.5,-137 186.5,-156 312.5,-156 312.5,-137 186.5,-137"/>
<text text-anchor="middle" x="249.5" y="-144" font-family="FreeSans" font-size="10.00">EP::extrapolation_error</text>
</a>
</g>
</g>
<!-- Node1&#45;&gt;Node6 -->
<g id="edge5" class="edge"><title>Node1&#45;&gt;Node6</title>
<path fill="none" stroke="midnightblue" d="M136.094,-134.602C149.188,-135.988 162.969,-137.447 176.222,-138.849"/>
<polygon fill="midnightblue" stroke="midnightblue" points="175.92,-142.337 186.233,-139.909 176.657,-135.376 175.92,-142.337"/>
</g>
<!-- Node7 -->
<g id="node7" class="node"><title>Node7</title>
<g id="a_node7"><a xlink:href="namespaceEP.html#a6d54b765511d661bb4267799ff1a804f" target="_top" xlink:title="Next step optimized factor estimation (based on the extrapolation order n) ">
<polygon fill="white" stroke="black" points="201.5,-99 201.5,-118 297.5,-118 297.5,-99 201.5,-99"/>
<text text-anchor="middle" x="249.5" y="-106" font-family="FreeSans" font-size="10.00">EP::H_opt_factor</text>
</a>
</g>
</g>
<!-- Node1&#45;&gt;Node7 -->
<g id="edge6" class="edge"><title>Node1&#45;&gt;Node7</title>
<path fill="none" stroke="midnightblue" d="M136.094,-120.398C154.241,-118.477 173.71,-116.416 191.261,-114.559"/>
<polygon fill="midnightblue" stroke="midnightblue" points="191.773,-118.024 201.349,-113.491 191.036,-111.063 191.773,-118.024"/>
</g>
<!-- Node8 -->
<g id="node8" class="node"><title>Node8</title>
<g id="a_node8"><a xlink:href="namespaceEP.html#ad1bbde38ef63ce2a0672843d598770b8" target="_top" xlink:title="Hermite interpolation coefficients. ">
<polygon fill="white" stroke="black" points="180,-49.5 180,-79.5 319,-79.5 319,-49.5 180,-49.5"/>
<text text-anchor="start" x="188" y="-67.5" font-family="FreeSans" font-size="10.00">EP::Hermite_interpolation</text>
<text text-anchor="middle" x="249.5" y="-56.5" font-family="FreeSans" font-size="10.00">_coefficients</text>
</a>
</g>
</g>
<!-- Node1&#45;&gt;Node8 -->
<g id="edge7" class="edge"><title>Node1&#45;&gt;Node8</title>
<path fill="none" stroke="midnightblue" d="M108.984,-112.351C128.011,-105.245 151.117,-96.7617 172,-89.5 178.384,-87.28 185.087,-85.0064 191.761,-82.7786"/>
<polygon fill="midnightblue" stroke="midnightblue" points="193.085,-86.027 201.476,-79.559 190.883,-79.3823 193.085,-86.027"/>
</g>
<!-- Node9 -->
<g id="node9" class="node"><title>Node9</title>
<g id="a_node9"><a xlink:href="namespaceEP.html#a10270a1ba230322545fff5bc06d94659" target="_top" xlink:title="Hermite interpolation polynomial. ">
<polygon fill="white" stroke="black" points="180,-0.5 180,-30.5 319,-30.5 319,-0.5 180,-0.5"/>
<text text-anchor="start" x="188" y="-18.5" font-family="FreeSans" font-size="10.00">EP::Hermite_interpolation</text>
<text text-anchor="middle" x="249.5" y="-7.5" font-family="FreeSans" font-size="10.00">_polynomial</text>
</a>
</g>
</g>
<!-- Node1&#45;&gt;Node9 -->
<g id="edge8" class="edge"><title>Node1&#45;&gt;Node9</title>
<path fill="none" stroke="midnightblue" d="M83.3071,-112.213C102.028,-93.0182 136.631,-60.2198 172,-40.5 175.88,-38.3365 179.977,-36.3247 184.176,-34.4604"/>
<polygon fill="midnightblue" stroke="midnightblue" points="185.583,-37.6661 193.489,-30.6129 182.911,-31.1965 185.583,-37.6661"/>
</g>
<!-- Node3 -->
<g id="node3" class="node"><title>Node3</title>
<g id="a_node3"><a xlink:href="namespaceEP.html#a8f951202841accc906325f37f9e592af" target="_top" xlink:title="Polynomial_recursion_formula. ">
<polygon fill="white" stroke="black" points="363,-215.5 363,-245.5 498,-245.5 498,-215.5 363,-215.5"/>
<text text-anchor="start" x="371" y="-233.5" font-family="FreeSans" font-size="10.00">EP::polynomial_recursive</text>
<text text-anchor="middle" x="430.5" y="-222.5" font-family="FreeSans" font-size="10.00">_formula</text>
</a>
</g>
</g>
<!-- Node2&#45;&gt;Node3 -->
<g id="edge2" class="edge"><title>Node2&#45;&gt;Node3</title>
<path fill="none" stroke="midnightblue" d="M327.191,-227.642C335.624,-227.878 344.211,-228.118 352.646,-228.353"/>
<polygon fill="midnightblue" stroke="midnightblue" points="352.744,-231.857 362.838,-228.638 352.939,-224.86 352.744,-231.857"/>
</g>
<!-- Node5 -->
<g id="node5" class="node"><title>Node5</title>
<g id="a_node5"><a xlink:href="namespaceEP.html#afe6d08bb36343e39ebbbd4406dc9989f" target="_top" xlink:title="Rational_recursion formula. ">
<polygon fill="white" stroke="black" points="371,-166.5 371,-196.5 490,-196.5 490,-166.5 371,-166.5"/>
<text text-anchor="start" x="379" y="-184.5" font-family="FreeSans" font-size="10.00">EP::rational_recursive</text>
<text text-anchor="middle" x="430.5" y="-173.5" font-family="FreeSans" font-size="10.00">_formula</text>
</a>
</g>
</g>
<!-- Node4&#45;&gt;Node5 -->
<g id="edge4" class="edge"><title>Node4&#45;&gt;Node5</title>
<path fill="none" stroke="midnightblue" d="M319.194,-183.349C332.786,-183.121 347.055,-182.882 360.652,-182.654"/>
<polygon fill="midnightblue" stroke="midnightblue" points="360.957,-186.149 370.896,-182.482 360.839,-179.15 360.957,-186.149"/>
</g>
</g>
</svg>
