<?xml version="1.0" encoding="UTF-8" standalone="no"?>
<!DOCTYPE svg PUBLIC "-//W3C//DTD SVG 1.1//EN"
 "http://www.w3.org/Graphics/SVG/1.1/DTD/svg11.dtd">
<!-- Generated by graphviz version 2.38.0 (20140413.2041)
 -->
<!-- Title: ARC::chainlist::remove Pages: 1 -->
<svg width="282pt" height="66pt"
 viewBox="0.00 0.00 282.00 66.00" xmlns="http://www.w3.org/2000/svg" xmlns:xlink="http://www.w3.org/1999/xlink">
<g id="graph0" class="graph" transform="scale(1 1) rotate(0) translate(4 62)">
<title>ARC::chainlist::remove</title>
<polygon fill="white" stroke="none" points="-4,4 -4,-62 278,-62 278,4 -4,4"/>
<!-- Node52 -->
<g id="node1" class="node"><title>Node52</title>
<polygon fill="#bfbfbf" stroke="black" points="0,-19.5 0,-38.5 116,-38.5 116,-19.5 0,-19.5"/>
<text text-anchor="middle" x="58" y="-26.5" font-family="FreeSans" font-size="10.00">ARC::chainlist::remove</text>
</g>
<!-- Node53 -->
<g id="node2" class="node"><title>Node53</title>
<g id="a_node2"><a xlink:href="classARC_1_1chain.html#a450a7459b076331b6aaa888d209e888c" target="_top" xlink:title="remove one particle ">
<polygon fill="white" stroke="black" points="158,-38.5 158,-57.5 268,-57.5 268,-38.5 158,-38.5"/>
<text text-anchor="middle" x="213" y="-45.5" font-family="FreeSans" font-size="10.00">ARC::chain::removeP</text>
</a>
</g>
</g>
<!-- Node52&#45;&gt;Node53 -->
<g id="edge1" class="edge"><title>Node52&#45;&gt;Node53</title>
<path fill="none" stroke="midnightblue" d="M126.388,-37.3685C136.901,-38.674 147.647,-40.0084 157.816,-41.2712"/>
<polygon fill="midnightblue" stroke="midnightblue" points="126.762,-33.8881 116.407,-36.129 125.899,-40.8347 126.762,-33.8881"/>
</g>
<!-- Node54 -->
<g id="node3" class="node"><title>Node54</title>
<g id="a_node3"><a xlink:href="classARC_1_1chain.html#a7d563413beb44795b8ecd1348a2d2305" target="_top" xlink:title="Remove one perturber. ">
<polygon fill="white" stroke="black" points="152,-0.5 152,-19.5 274,-19.5 274,-0.5 152,-0.5"/>
<text text-anchor="middle" x="213" y="-7.5" font-family="FreeSans" font-size="10.00">ARC::chain::removePext</text>
</a>
</g>
</g>
<!-- Node52&#45;&gt;Node54 -->
<g id="edge2" class="edge"><title>Node52&#45;&gt;Node54</title>
<path fill="none" stroke="midnightblue" d="M126.331,-20.6386C134.868,-19.5785 143.56,-18.4991 151.972,-17.4545"/>
<polygon fill="midnightblue" stroke="midnightblue" points="125.899,-17.1653 116.407,-21.871 126.762,-24.1119 125.899,-17.1653"/>
</g>
</g>
</svg>
