<?xml version="1.0" encoding="UTF-8" standalone="no"?>
<!DOCTYPE svg PUBLIC "-//W3C//DTD SVG 1.1//EN"
 "http://www.w3.org/Graphics/SVG/1.1/DTD/svg11.dtd">
<!-- Generated by graphviz version 2.38.0 (20140413.2041)
 -->
<!-- Title: ptree::fill Pages: 1 -->
<svg width="266pt" height="85pt"
 viewBox="0.00 0.00 266.00 85.00" xmlns="http://www.w3.org/2000/svg" xmlns:xlink="http://www.w3.org/1999/xlink">
<g id="graph0" class="graph" transform="scale(1 1) rotate(0) translate(4 81)">
<title>ptree::fill</title>
<polygon fill="white" stroke="none" points="-4,4 -4,-81 262,-81 262,4 -4,4"/>
<!-- Node16 -->
<g id="node1" class="node"><title>Node16</title>
<polygon fill="#bfbfbf" stroke="black" points="0,-19.5 0,-38.5 56,-38.5 56,-19.5 0,-19.5"/>
<text text-anchor="middle" x="28" y="-26.5" font-family="FreeSans" font-size="10.00">ptree::fill</text>
</g>
<!-- Node17 -->
<g id="node2" class="node"><title>Node17</title>
<g id="a_node2"><a xlink:href="classptree.html#a128cebcb837edbd16dd6dd9c7784ddd9" target="_top" xlink:title="construct the tree py filling two particles ">
<polygon fill="white" stroke="black" points="92,-57.5 92,-76.5 161,-76.5 161,-57.5 92,-57.5"/>
<text text-anchor="middle" x="126.5" y="-64.5" font-family="FreeSans" font-size="10.00">ptree::ptree</text>
</a>
</g>
</g>
<!-- Node16&#45;&gt;Node17 -->
<g id="edge1" class="edge"><title>Node16&#45;&gt;Node17</title>
<path fill="none" stroke="midnightblue" d="M62.685,-42.2646C75.3537,-47.2533 89.5007,-52.8241 101.157,-57.4141"/>
<polygon fill="midnightblue" stroke="midnightblue" points="63.938,-38.9964 53.351,-38.589 61.3732,-45.5097 63.938,-38.9964"/>
</g>
<!-- Node18 -->
<g id="node3" class="node"><title>Node18</title>
<g id="a_node3"><a xlink:href="classptree.html#ae4c20eddf5cfcf45e5f809567c967bf9" target="_top" xlink:title="Split (delete) one leaf, create a new branch (ptree) and store two particles. ">
<polygon fill="white" stroke="black" points="94.5,-19.5 94.5,-38.5 158.5,-38.5 158.5,-19.5 94.5,-19.5"/>
<text text-anchor="middle" x="126.5" y="-26.5" font-family="FreeSans" font-size="10.00">ptree::split</text>
</a>
</g>
</g>
<!-- Node16&#45;&gt;Node18 -->
<g id="edge2" class="edge"><title>Node16&#45;&gt;Node18</title>
<path fill="none" stroke="midnightblue" d="M66.3254,-29C75.6348,-29 85.5169,-29 94.4845,-29"/>
<polygon fill="midnightblue" stroke="midnightblue" points="66.1375,-25.5001 56.1374,-29 66.1374,-32.5001 66.1375,-25.5001"/>
</g>
<!-- Node19 -->
<g id="node4" class="node"><title>Node19</title>
<g id="a_node4"><a xlink:href="classptree.html#a84643c9c87f4ed74ec06542e22c8bee7" target="_top" xlink:title="add a particle pair to one of the leaf ">
<polygon fill="white" stroke="black" points="197,-0.5 197,-19.5 258,-19.5 258,-0.5 197,-0.5"/>
<text text-anchor="middle" x="227.5" y="-7.5" font-family="FreeSans" font-size="10.00">ptree::link</text>
</a>
</g>
</g>
<!-- Node16&#45;&gt;Node19 -->
<g id="edge4" class="edge"><title>Node16&#45;&gt;Node19</title>
<path fill="none" stroke="midnightblue" d="M64.3527,-16.3614C73.261,-13.7276 82.8853,-11.3445 92,-10 127.806,-4.71816 169.56,-5.83229 196.933,-7.53357"/>
<polygon fill="midnightblue" stroke="midnightblue" points="63.1591,-13.0676 54.6646,-19.3996 65.2537,-19.7468 63.1591,-13.0676"/>
</g>
<!-- Node18&#45;&gt;Node19 -->
<g id="edge3" class="edge"><title>Node18&#45;&gt;Node19</title>
<path fill="none" stroke="midnightblue" d="M168.617,-21.1089C178.108,-19.2874 188.023,-17.3845 196.91,-15.6789"/>
<polygon fill="midnightblue" stroke="midnightblue" points="167.714,-17.7183 158.553,-23.0404 169.033,-24.5928 167.714,-17.7183"/>
</g>
</g>
</svg>
