<?xml version="1.0" encoding="UTF-8" standalone="no"?>
<!DOCTYPE svg PUBLIC "-//W3C//DTD SVG 1.1//EN"
 "http://www.w3.org/Graphics/SVG/1.1/DTD/svg11.dtd">
<!-- Generated by graphviz version 2.38.0 (20140413.2041)
 -->
<!-- Title: ARC::chain::Leapfrog_step_forward Pages: 1 -->
<svg width="284pt" height="66pt"
 viewBox="0.00 0.00 284.00 66.00" xmlns="http://www.w3.org/2000/svg" xmlns:xlink="http://www.w3.org/1999/xlink">
<g id="graph0" class="graph" transform="scale(1 1) rotate(0) translate(4 62)">
<title>ARC::chain::Leapfrog_step_forward</title>
<polygon fill="white" stroke="none" points="-4,4 -4,-62 280,-62 280,4 -4,4"/>
<!-- Node1 -->
<g id="node1" class="node"><title>Node1</title>
<polygon fill="#bfbfbf" stroke="black" points="0,-14 0,-44 115,-44 115,-14 0,-14"/>
<text text-anchor="start" x="8" y="-32" font-family="FreeSans" font-size="10.00">ARC::chain::Leapfrog</text>
<text text-anchor="middle" x="57.5" y="-21" font-family="FreeSans" font-size="10.00">_step_forward</text>
</g>
<!-- Node2 -->
<g id="node2" class="node"><title>Node2</title>
<g id="a_node2"><a xlink:href="classARC_1_1chainlist.html#adf4f95d9135efc2f90381479f87ff5c6" target="_top" xlink:title="return particle data first pointer ">
<polygon fill="white" stroke="black" points="151,-38.5 151,-57.5 276,-57.5 276,-38.5 151,-38.5"/>
<text text-anchor="middle" x="213.5" y="-45.5" font-family="FreeSans" font-size="10.00">ARC::chainlist::getData</text>
</a>
</g>
</g>
<!-- Node1&#45;&gt;Node2 -->
<g id="edge1" class="edge"><title>Node1&#45;&gt;Node2</title>
<path fill="none" stroke="midnightblue" d="M115.406,-36.0209C123.72,-37.0466 132.37,-38.1138 140.93,-39.1699"/>
<polygon fill="midnightblue" stroke="midnightblue" points="140.558,-42.6505 150.911,-40.4014 141.415,-35.7032 140.558,-42.6505"/>
</g>
<!-- Node3 -->
<g id="node3" class="node"><title>Node3</title>
<g id="a_node3"><a xlink:href="classARC_1_1chainlist.html#aeaeca2d5344e98007ea45c0332d765e0" target="_top" xlink:title="Get current particle number. ">
<polygon fill="white" stroke="black" points="158.5,-0.5 158.5,-19.5 268.5,-19.5 268.5,-0.5 158.5,-0.5"/>
<text text-anchor="middle" x="213.5" y="-7.5" font-family="FreeSans" font-size="10.00">ARC::chainlist::getN</text>
</a>
</g>
</g>
<!-- Node1&#45;&gt;Node3 -->
<g id="edge2" class="edge"><title>Node1&#45;&gt;Node3</title>
<path fill="none" stroke="midnightblue" d="M115.406,-21.9791C126.165,-20.6518 137.486,-19.255 148.447,-17.9027"/>
<polygon fill="midnightblue" stroke="midnightblue" points="148.889,-21.3748 158.385,-16.6766 148.031,-14.4275 148.889,-21.3748"/>
</g>
</g>
</svg>
