<?xml version="1.0" encoding="UTF-8" standalone="no"?>
<!DOCTYPE svg PUBLIC "-//W3C//DTD SVG 1.1//EN"
 "http://www.w3.org/Graphics/SVG/1.1/DTD/svg11.dtd">
<!-- Generated by graphviz version 2.38.0 (20140413.2041)
 -->
<!-- Title: ARC::chainlist::add Pages: 1 -->
<svg width="250pt" height="66pt"
 viewBox="0.00 0.00 250.00 66.00" xmlns="http://www.w3.org/2000/svg" xmlns:xlink="http://www.w3.org/1999/xlink">
<g id="graph0" class="graph" transform="scale(1 1) rotate(0) translate(4 62)">
<title>ARC::chainlist::add</title>
<polygon fill="white" stroke="none" points="-4,4 -4,-62 246,-62 246,4 -4,4"/>
<!-- Node7 -->
<g id="node1" class="node"><title>Node7</title>
<polygon fill="#bfbfbf" stroke="black" points="0,-19.5 0,-38.5 100,-38.5 100,-19.5 0,-19.5"/>
<text text-anchor="middle" x="50" y="-26.5" font-family="FreeSans" font-size="10.00">ARC::chainlist::add</text>
</g>
<!-- Node8 -->
<g id="node2" class="node"><title>Node8</title>
<g id="a_node2"><a xlink:href="classARC_1_1chain.html#a6af4a9c65329265a45f0210c104fa96a" target="_top" xlink:title="Add particle. ">
<polygon fill="white" stroke="black" points="142.5,-38.5 142.5,-57.5 235.5,-57.5 235.5,-38.5 142.5,-38.5"/>
<text text-anchor="middle" x="189" y="-45.5" font-family="FreeSans" font-size="10.00">ARC::chain::addP</text>
</a>
</g>
</g>
<!-- Node7&#45;&gt;Node8 -->
<g id="edge1" class="edge"><title>Node7&#45;&gt;Node8</title>
<path fill="none" stroke="midnightblue" d="M110.281,-37.2215C121.064,-38.717 132.158,-40.2555 142.467,-41.6852"/>
<polygon fill="midnightblue" stroke="midnightblue" points="110.459,-33.7127 100.073,-35.8058 109.498,-40.6464 110.459,-33.7127"/>
</g>
<!-- Node9 -->
<g id="node3" class="node"><title>Node9</title>
<g id="a_node3"><a xlink:href="classARC_1_1chain.html#ab6892980b326bd0bbe8a873a71892801" target="_top" xlink:title="Add one perturber particle. ">
<polygon fill="white" stroke="black" points="136,-0.5 136,-19.5 242,-19.5 242,-0.5 136,-0.5"/>
<text text-anchor="middle" x="189" y="-7.5" font-family="FreeSans" font-size="10.00">ARC::chain::addPext</text>
</a>
</g>
</g>
<!-- Node7&#45;&gt;Node9 -->
<g id="edge2" class="edge"><title>Node7&#45;&gt;Node9</title>
<path fill="none" stroke="midnightblue" d="M110.225,-20.7863C118.655,-19.6172 127.275,-18.4217 135.563,-17.2723"/>
<polygon fill="midnightblue" stroke="midnightblue" points="109.498,-17.3536 100.073,-22.1942 110.459,-24.2873 109.498,-17.3536"/>
</g>
</g>
</svg>
