<?xml version="1.0" encoding="UTF-8" standalone="no"?>
<!DOCTYPE svg PUBLIC "-//W3C//DTD SVG 1.1//EN"
 "http://www.w3.org/Graphics/SVG/1.1/DTD/svg11.dtd">
<!-- Generated by graphviz version 2.38.0 (20140413.2041)
 -->
<!-- Title: ARC::chainpars::setIterSeq Pages: 1 -->
<svg width="311pt" height="192pt"
 viewBox="0.00 0.00 311.00 191.50" xmlns="http://www.w3.org/2000/svg" xmlns:xlink="http://www.w3.org/1999/xlink">
<g id="graph0" class="graph" transform="scale(1 1) rotate(0) translate(4 187.5)">
<title>ARC::chainpars::setIterSeq</title>
<polygon fill="white" stroke="none" points="-4,4 -4,-187.5 307,-187.5 307,4 -4,4"/>
<!-- Node1 -->
<g id="node1" class="node"><title>Node1</title>
<polygon fill="#bfbfbf" stroke="black" points="0,-88 0,-107 143,-107 143,-88 0,-88"/>
<text text-anchor="middle" x="71.5" y="-95" font-family="FreeSans" font-size="10.00">ARC::chainpars::setIterSeq</text>
</g>
<!-- Node2 -->
<g id="node2" class="node"><title>Node2</title>
<g id="a_node2"><a xlink:href="namespaceEP.html#afaef3617ed3fb4ad4627c19e955c5457" target="_top" xlink:title="Generate Romberg (even) sequence {h, h/2, h/4, h/8 ...}. ">
<polygon fill="white" stroke="black" points="191,-164 191,-183 291,-183 291,-164 191,-164"/>
<text text-anchor="middle" x="241" y="-171" font-family="FreeSans" font-size="10.00">EP::seq_Romberg</text>
</a>
</g>
</g>
<!-- Node1&#45;&gt;Node2 -->
<g id="edge1" class="edge"><title>Node1&#45;&gt;Node2</title>
<path fill="none" stroke="midnightblue" d="M88.2732,-107.169C108.665,-119.38 145.537,-140.483 179,-154.5 184.374,-156.751 190.112,-158.879 195.837,-160.838"/>
<polygon fill="midnightblue" stroke="midnightblue" points="194.801,-164.182 205.393,-163.97 196.98,-157.53 194.801,-164.182"/>
</g>
<!-- Node3 -->
<g id="node3" class="node"><title>Node3</title>
<g id="a_node3"><a xlink:href="namespaceEP.html#a1c85d6f300251929ac82736e54760652" target="_top" xlink:title="Generate Bulirsch &amp; Stoer sequence {h, h/2, h/3, h/4, h/6, h/8 ...}. ">
<polygon fill="white" stroke="black" points="205.5,-126 205.5,-145 276.5,-145 276.5,-126 205.5,-126"/>
<text text-anchor="middle" x="241" y="-133" font-family="FreeSans" font-size="10.00">EP::seq_BS</text>
</a>
</g>
</g>
<!-- Node1&#45;&gt;Node3 -->
<g id="edge2" class="edge"><title>Node1&#45;&gt;Node3</title>
<path fill="none" stroke="midnightblue" d="M114.767,-107.089C139.384,-112.674 170.398,-119.71 195.403,-125.382"/>
<polygon fill="midnightblue" stroke="midnightblue" points="194.837,-128.843 205.364,-127.642 196.386,-122.016 194.837,-128.843"/>
</g>
<!-- Node4 -->
<g id="node4" class="node"><title>Node4</title>
<g id="a_node4"><a xlink:href="namespaceEP.html#a691e74f494e1137b68389a2bd93f92c0" target="_top" xlink:title="Generate E. Hairer (4k) sequences {h/2, h/6, h/10, h/14 ...}. ">
<polygon fill="white" stroke="black" points="198,-88 198,-107 284,-107 284,-88 198,-88"/>
<text text-anchor="middle" x="241" y="-95" font-family="FreeSans" font-size="10.00">EP::seq_Hairer</text>
</a>
</g>
</g>
<!-- Node1&#45;&gt;Node4 -->
<g id="edge3" class="edge"><title>Node1&#45;&gt;Node4</title>
<path fill="none" stroke="midnightblue" d="M143.05,-97.5C158.014,-97.5 173.556,-97.5 187.697,-97.5"/>
<polygon fill="midnightblue" stroke="midnightblue" points="187.719,-101 197.719,-97.5 187.719,-94.0001 187.719,-101"/>
</g>
<!-- Node5 -->
<g id="node5" class="node"><title>Node5</title>
<g id="a_node5"><a xlink:href="namespaceEP.html#a6197a74bc7ca232ffcc84872d8f4f779" target="_top" xlink:title="Generate Harmonic sequence {h, h/2, h/3, h/4 ...}. ">
<polygon fill="white" stroke="black" points="189,-50 189,-69 293,-69 293,-50 189,-50"/>
<text text-anchor="middle" x="241" y="-57" font-family="FreeSans" font-size="10.00">EP::seq_Harmonic</text>
</a>
</g>
</g>
<!-- Node1&#45;&gt;Node5 -->
<g id="edge4" class="edge"><title>Node1&#45;&gt;Node5</title>
<path fill="none" stroke="midnightblue" d="M114.767,-87.911C137.07,-82.8513 164.623,-76.6004 188.202,-71.2512"/>
<polygon fill="midnightblue" stroke="midnightblue" points="189.059,-74.6458 198.037,-69.0201 187.51,-67.8193 189.059,-74.6458"/>
</g>
<!-- Node6 -->
<g id="node6" class="node"><title>Node6</title>
<g id="a_node6"><a xlink:href="namespaceEP.html#a92c709f3757c872402d2fcf954c3e2de" target="_top" xlink:title="Binomial coefficients generator. ">
<polygon fill="white" stroke="black" points="179,-0.5 179,-30.5 303,-30.5 303,-0.5 179,-0.5"/>
<text text-anchor="start" x="187" y="-18.5" font-family="FreeSans" font-size="10.00">EP::binomial_recursive</text>
<text text-anchor="middle" x="241" y="-7.5" font-family="FreeSans" font-size="10.00">_generator</text>
</a>
</g>
</g>
<!-- Node1&#45;&gt;Node6 -->
<g id="edge5" class="edge"><title>Node1&#45;&gt;Node6</title>
<path fill="none" stroke="midnightblue" d="M89.1966,-87.8749C109.938,-76.0797 146.558,-55.7806 179,-40.5 183.303,-38.473 187.817,-36.4453 192.36,-34.4704"/>
<polygon fill="midnightblue" stroke="midnightblue" points="193.837,-37.6458 201.667,-30.5082 191.095,-31.2052 193.837,-37.6458"/>
</g>
</g>
</svg>
