<?xml version="1.0" encoding="UTF-8" standalone="no"?>
<!DOCTYPE svg PUBLIC "-//W3C//DTD SVG 1.1//EN"
 "http://www.w3.org/Graphics/SVG/1.1/DTD/svg11.dtd">
<!-- Generated by graphviz version 2.38.0 (20140413.2041)
 -->
<!-- Title: Particle::getMass Pages: 1 -->
<svg width="255pt" height="66pt"
 viewBox="0.00 0.00 255.00 66.00" xmlns="http://www.w3.org/2000/svg" xmlns:xlink="http://www.w3.org/1999/xlink">
<g id="graph0" class="graph" transform="scale(1 1) rotate(0) translate(4 62)">
<title>Particle::getMass</title>
<polygon fill="white" stroke="none" points="-4,4 -4,-62 251,-62 251,4 -4,4"/>
<!-- Node11 -->
<g id="node1" class="node"><title>Node11</title>
<polygon fill="#bfbfbf" stroke="black" points="0,-19.5 0,-38.5 91,-38.5 91,-19.5 0,-19.5"/>
<text text-anchor="middle" x="45.5" y="-26.5" font-family="FreeSans" font-size="10.00">Particle::getMass</text>
</g>
<!-- Node12 -->
<g id="node2" class="node"><title>Node12</title>
<g id="a_node2"><a xlink:href="namespaceNTA.html#aad37ae368f0a920088e180a73187685a" target="_top" xlink:title="Newtonian acceleration and &#160;from particle j to particle i (function type of ARC::pair_AW) ...">
<polygon fill="white" stroke="black" points="133.5,-38.5 133.5,-57.5 240.5,-57.5 240.5,-38.5 133.5,-38.5"/>
<text text-anchor="middle" x="187" y="-45.5" font-family="FreeSans" font-size="10.00">NTA::Newtonian_AW</text>
</a>
</g>
</g>
<!-- Node11&#45;&gt;Node12 -->
<g id="edge1" class="edge"><title>Node11&#45;&gt;Node12</title>
<path fill="none" stroke="midnightblue" d="M100.974,-36.4194C111.546,-37.8593 122.611,-39.3663 133.131,-40.7991"/>
<polygon fill="midnightblue" stroke="midnightblue" points="101.403,-32.9456 91.0222,-35.064 100.458,-39.8816 101.403,-32.9456"/>
</g>
<!-- Node13 -->
<g id="node3" class="node"><title>Node13</title>
<g id="a_node3"><a xlink:href="namespaceNTA.html#a5b1a4fcaa09041cdf89a6b3122815c56" target="_top" xlink:title="Newtonian acceleration from perturber pert to particle p (function type of ARC::ext_Acc) ...">
<polygon fill="white" stroke="black" points="127,-0.5 127,-19.5 247,-19.5 247,-0.5 127,-0.5"/>
<text text-anchor="middle" x="187" y="-7.5" font-family="FreeSans" font-size="10.00">NTA::Newtonian_extAcc</text>
</a>
</g>
</g>
<!-- Node11&#45;&gt;Node13 -->
<g id="edge2" class="edge"><title>Node11&#45;&gt;Node13</title>
<path fill="none" stroke="midnightblue" d="M101.135,-21.5586C109.582,-20.4082 118.339,-19.2155 126.878,-18.0524"/>
<polygon fill="midnightblue" stroke="midnightblue" points="100.458,-18.1184 91.0222,-22.936 101.403,-25.0544 100.458,-18.1184"/>
</g>
</g>
</svg>
