<?xml version="1.0" encoding="UTF-8" standalone="no"?>
<!DOCTYPE svg PUBLIC "-//W3C//DTD SVG 1.1//EN"
 "http://www.w3.org/Graphics/SVG/1.1/DTD/svg11.dtd">
<!-- Generated by graphviz version 2.38.0 (20140413.2041)
 -->
<!-- Title: ARC::chain::load Pages: 1 -->
<svg width="251pt" height="66pt"
 viewBox="0.00 0.00 251.00 66.00" xmlns="http://www.w3.org/2000/svg" xmlns:xlink="http://www.w3.org/1999/xlink">
<g id="graph0" class="graph" transform="scale(1 1) rotate(0) translate(4 62)">
<title>ARC::chain::load</title>
<polygon fill="white" stroke="none" points="-4,4 -4,-62 247,-62 247,4 -4,4"/>
<!-- Node104 -->
<g id="node1" class="node"><title>Node104</title>
<polygon fill="#bfbfbf" stroke="black" points="0,-19.5 0,-38.5 90,-38.5 90,-19.5 0,-19.5"/>
<text text-anchor="middle" x="45" y="-26.5" font-family="FreeSans" font-size="10.00">ARC::chain::load</text>
</g>
<!-- Node105 -->
<g id="node2" class="node"><title>Node105</title>
<g id="a_node2"><a xlink:href="classARC_1_1chainlist.html#a2ed7858b13620c086e2e52b5b8d8020c" target="_top" xlink:title="Get current particle number. ">
<polygon fill="white" stroke="black" points="132.5,-38.5 132.5,-57.5 236.5,-57.5 236.5,-38.5 132.5,-38.5"/>
<text text-anchor="middle" x="184.5" y="-45.5" font-family="FreeSans" font-size="10.00">ARC::chainlist::getN</text>
</a>
</g>
</g>
<!-- Node104&#45;&gt;Node105 -->
<g id="edge1" class="edge"><title>Node104&#45;&gt;Node105</title>
<path fill="none" stroke="midnightblue" d="M90.2627,-35.1163C100.377,-36.5139 111.304,-38.0238 121.995,-39.5011"/>
<polygon fill="midnightblue" stroke="midnightblue" points="121.753,-43.0009 132.138,-40.9027 122.711,-36.0668 121.753,-43.0009"/>
</g>
<!-- Node106 -->
<g id="node3" class="node"><title>Node106</title>
<g id="a_node3"><a xlink:href="classARC_1_1chainlist.html#a79dfad1e9aeafcee55a28983f8eaffbe" target="_top" xlink:title="allocate memory of particles ">
<polygon fill="white" stroke="black" points="126,-0.5 126,-19.5 243,-19.5 243,-0.5 126,-0.5"/>
<text text-anchor="middle" x="184.5" y="-7.5" font-family="FreeSans" font-size="10.00">ARC::chainlist::allocate</text>
</a>
</g>
</g>
<!-- Node104&#45;&gt;Node106 -->
<g id="edge2" class="edge"><title>Node104&#45;&gt;Node106</title>
<path fill="none" stroke="midnightblue" d="M90.2627,-22.8837C98.3882,-21.7609 107.039,-20.5656 115.67,-19.3729"/>
<polygon fill="midnightblue" stroke="midnightblue" points="116.334,-22.8145 125.76,-17.9786 115.375,-15.8804 116.334,-22.8145"/>
</g>
</g>
</svg>
