<?xml version="1.0" encoding="UTF-8" standalone="no"?>
<!DOCTYPE svg PUBLIC "-//W3C//DTD SVG 1.1//EN"
 "http://www.w3.org/Graphics/SVG/1.1/DTD/svg11.dtd">
<!-- Generated by graphviz version 2.38.0 (20140413.2041)
 -->
<!-- Title: Particle::getMass Pages: 1 -->
<svg width="242pt" height="66pt"
 viewBox="0.00 0.00 242.00 66.00" xmlns="http://www.w3.org/2000/svg" xmlns:xlink="http://www.w3.org/1999/xlink">
<g id="graph0" class="graph" transform="scale(1 1) rotate(0) translate(4 62)">
<title>Particle::getMass</title>
<polygon fill="white" stroke="none" points="-4,4 -4,-62 238,-62 238,4 -4,4"/>
<!-- Node11 -->
<g id="node1" class="node"><title>Node11</title>
<polygon fill="#bfbfbf" stroke="black" points="0,-19.5 0,-38.5 91,-38.5 91,-19.5 0,-19.5"/>
<text text-anchor="middle" x="45.5" y="-26.5" font-family="FreeSans" font-size="10.00">Particle::getMass</text>
</g>
<!-- Node12 -->
<g id="node2" class="node"><title>Node12</title>
<g id="a_node2"><a xlink:href="namespaceNTA.html#a831c3f8f362f34f1f987ee158e38c016" target="_top" xlink:title="Newtonian acceleration and &#160;from particle j to particle i (function type of ARC::pair_AW) ...">
<polygon fill="white" stroke="black" points="127,-38.5 127,-57.5 234,-57.5 234,-38.5 127,-38.5"/>
<text text-anchor="middle" x="180.5" y="-45.5" font-family="FreeSans" font-size="10.00">NTA::Newtonian_AW</text>
</a>
</g>
</g>
<!-- Node11&#45;&gt;Node12 -->
<g id="edge1" class="edge"><title>Node11&#45;&gt;Node12</title>
<path fill="none" stroke="midnightblue" d="M101.31,-36.83C109.772,-38.0388 118.494,-39.2848 126.905,-40.4864"/>
<polygon fill="midnightblue" stroke="midnightblue" points="101.552,-33.3291 91.1571,-35.3796 100.562,-40.2587 101.552,-33.3291"/>
</g>
<!-- Node13 -->
<g id="node3" class="node"><title>Node13</title>
<g id="a_node3"><a xlink:href="namespaceNTA.html#ac086c632a4f16eddc70f023f269d9c94" target="_top" xlink:title="Newtonian acceleration from particle p to particle i (function type of ::ARC::pair_Ap) ...">
<polygon fill="white" stroke="black" points="128.5,-0.5 128.5,-19.5 232.5,-19.5 232.5,-0.5 128.5,-0.5"/>
<text text-anchor="middle" x="180.5" y="-7.5" font-family="FreeSans" font-size="10.00">NTA::Newtonian_Ap</text>
</a>
</g>
</g>
<!-- Node11&#45;&gt;Node13 -->
<g id="edge2" class="edge"><title>Node11&#45;&gt;Node13</title>
<path fill="none" stroke="midnightblue" d="M101.138,-21.1946C110.123,-19.911 119.406,-18.5848 128.303,-17.3138"/>
<polygon fill="midnightblue" stroke="midnightblue" points="100.562,-17.7413 91.1571,-22.6204 101.552,-24.6709 100.562,-17.7413"/>
</g>
</g>
</svg>
