<?xml version="1.0" encoding="UTF-8" standalone="no"?>
<!DOCTYPE svg PUBLIC "-//W3C//DTD SVG 1.1//EN"
 "http://www.w3.org/Graphics/SVG/1.1/DTD/svg11.dtd">
<!-- Generated by graphviz version 2.38.0 (20140413.2041)
 -->
<!-- Title: ARC::chain::initPext Pages: 1 -->
<svg width="251pt" height="66pt"
 viewBox="0.00 0.00 251.00 66.00" xmlns="http://www.w3.org/2000/svg" xmlns:xlink="http://www.w3.org/1999/xlink">
<g id="graph0" class="graph" transform="scale(1 1) rotate(0) translate(4 62)">
<title>ARC::chain::initPext</title>
<polygon fill="white" stroke="none" points="-4,4 -4,-62 247,-62 247,4 -4,4"/>
<!-- Node70 -->
<g id="node1" class="node"><title>Node70</title>
<polygon fill="#bfbfbf" stroke="black" points="0,-19.5 0,-38.5 103,-38.5 103,-19.5 0,-19.5"/>
<text text-anchor="middle" x="51.5" y="-26.5" font-family="FreeSans" font-size="10.00">ARC::chain::initPext</text>
</g>
<!-- Node71 -->
<g id="node2" class="node"><title>Node71</title>
<g id="a_node2"><a xlink:href="classARC_1_1chainlist.html#a9b45780f42626b14e3a2fd7b5de4bf32" target="_top" xlink:title="Get current particle number. ">
<polygon fill="white" stroke="black" points="139,-38.5 139,-57.5 243,-57.5 243,-38.5 139,-38.5"/>
<text text-anchor="middle" x="191" y="-45.5" font-family="FreeSans" font-size="10.00">ARC::chainlist::getN</text>
</a>
</g>
</g>
<!-- Node70&#45;&gt;Node71 -->
<g id="edge1" class="edge"><title>Node70&#45;&gt;Node71</title>
<path fill="none" stroke="midnightblue" d="M103.309,-36.0209C111.667,-37.1758 120.405,-38.3833 128.981,-39.5682"/>
<polygon fill="midnightblue" stroke="midnightblue" points="128.556,-43.0427 138.941,-40.9445 129.514,-36.1086 128.556,-43.0427"/>
</g>
<!-- Node72 -->
<g id="node3" class="node"><title>Node72</title>
<g id="a_node3"><a xlink:href="classARC_1_1chainlist.html#a84a2c65edf27bd25254e188ebf7d5dce" target="_top" xlink:title="Initialization with memory allocation. ">
<polygon fill="white" stroke="black" points="142.5,-0.5 142.5,-19.5 239.5,-19.5 239.5,-0.5 142.5,-0.5"/>
<text text-anchor="middle" x="191" y="-7.5" font-family="FreeSans" font-size="10.00">ARC::chainlist::init</text>
</a>
</g>
</g>
<!-- Node70&#45;&gt;Node72 -->
<g id="edge2" class="edge"><title>Node70&#45;&gt;Node72</title>
<path fill="none" stroke="midnightblue" d="M103.309,-21.9791C112.635,-20.6904 122.435,-19.3363 131.954,-18.0209"/>
<polygon fill="midnightblue" stroke="midnightblue" points="132.71,-21.4498 142.137,-16.6138 131.752,-14.5157 132.71,-21.4498"/>
</g>
</g>
</svg>
