<?xml version="1.0" encoding="UTF-8" standalone="no"?>
<!DOCTYPE svg PUBLIC "-//W3C//DTD SVG 1.1//EN"
 "http://www.w3.org/Graphics/SVG/1.1/DTD/svg11.dtd">
<!-- Generated by graphviz version 2.38.0 (20140413.2041)
 -->
<!-- Title: ARC::chainpars::setIterSeq Pages: 1 -->
<svg width="294pt" height="192pt"
 viewBox="0.00 0.00 294.00 191.50" xmlns="http://www.w3.org/2000/svg" xmlns:xlink="http://www.w3.org/1999/xlink">
<g id="graph0" class="graph" transform="scale(1 1) rotate(0) translate(4 187.5)">
<title>ARC::chainpars::setIterSeq</title>
<polygon fill="white" stroke="none" points="-4,4 -4,-187.5 290,-187.5 290,4 -4,4"/>
<!-- Node38 -->
<g id="node1" class="node"><title>Node38</title>
<polygon fill="#bfbfbf" stroke="black" points="0,-88 0,-107 135,-107 135,-88 0,-88"/>
<text text-anchor="middle" x="67.5" y="-95" font-family="FreeSans" font-size="10.00">ARC::chainpars::setIterSeq</text>
</g>
<!-- Node39 -->
<g id="node2" class="node"><title>Node39</title>
<g id="a_node2"><a xlink:href="namespaceEP.html#afaef3617ed3fb4ad4627c19e955c5457" target="_top" xlink:title="Generate Romberg (even) sequence {h, h/2, h/4, h/8 ...}. ">
<polygon fill="white" stroke="black" points="181.5,-164 181.5,-183 275.5,-183 275.5,-164 181.5,-164"/>
<text text-anchor="middle" x="228.5" y="-171" font-family="FreeSans" font-size="10.00">EP::seq_Romberg</text>
</a>
</g>
</g>
<!-- Node38&#45;&gt;Node39 -->
<g id="edge1" class="edge"><title>Node38&#45;&gt;Node39</title>
<path fill="none" stroke="midnightblue" d="M83.6758,-107.101C103.296,-119.24 138.778,-140.267 171,-154.5 175.788,-156.615 180.889,-158.636 185.994,-160.517"/>
<polygon fill="midnightblue" stroke="midnightblue" points="185.136,-163.926 195.731,-163.952 187.464,-157.325 185.136,-163.926"/>
</g>
<!-- Node40 -->
<g id="node3" class="node"><title>Node40</title>
<g id="a_node3"><a xlink:href="namespaceEP.html#a1c85d6f300251929ac82736e54760652" target="_top" xlink:title="Generate Bulirsch &amp; Stoer sequence {h, h/2, h/3, h/4, h/6, h/8 ...}. ">
<polygon fill="white" stroke="black" points="195.5,-126 195.5,-145 261.5,-145 261.5,-126 195.5,-126"/>
<text text-anchor="middle" x="228.5" y="-133" font-family="FreeSans" font-size="10.00">EP::seq_BS</text>
</a>
</g>
</g>
<!-- Node38&#45;&gt;Node40 -->
<g id="edge2" class="edge"><title>Node38&#45;&gt;Node40</title>
<path fill="none" stroke="midnightblue" d="M108.622,-107.089C132.128,-112.707 161.777,-119.793 185.585,-125.483"/>
<polygon fill="midnightblue" stroke="midnightblue" points="184.856,-128.907 195.396,-127.827 186.483,-122.099 184.856,-128.907"/>
</g>
<!-- Node41 -->
<g id="node4" class="node"><title>Node41</title>
<g id="a_node4"><a xlink:href="namespaceEP.html#a691e74f494e1137b68389a2bd93f92c0" target="_top" xlink:title="Generate E. Hairer (4k) sequences {h/2, h/6, h/10, h/14 ...}. ">
<polygon fill="white" stroke="black" points="188,-88 188,-107 269,-107 269,-88 188,-88"/>
<text text-anchor="middle" x="228.5" y="-95" font-family="FreeSans" font-size="10.00">EP::seq_Hairer</text>
</a>
</g>
</g>
<!-- Node38&#45;&gt;Node41 -->
<g id="edge3" class="edge"><title>Node38&#45;&gt;Node41</title>
<path fill="none" stroke="midnightblue" d="M135.009,-97.5C149.25,-97.5 164.062,-97.5 177.551,-97.5"/>
<polygon fill="midnightblue" stroke="midnightblue" points="177.576,-101 187.576,-97.5 177.576,-94.0001 177.576,-101"/>
</g>
<!-- Node42 -->
<g id="node5" class="node"><title>Node42</title>
<g id="a_node5"><a xlink:href="namespaceEP.html#a6197a74bc7ca232ffcc84872d8f4f779" target="_top" xlink:title="Generate Harmonic sequence {h, h/2, h/3, h/4 ...}. ">
<polygon fill="white" stroke="black" points="181,-50 181,-69 276,-69 276,-50 181,-50"/>
<text text-anchor="middle" x="228.5" y="-57" font-family="FreeSans" font-size="10.00">EP::seq_Harmonic</text>
</a>
</g>
</g>
<!-- Node38&#45;&gt;Node42 -->
<g id="edge4" class="edge"><title>Node38&#45;&gt;Node42</title>
<path fill="none" stroke="midnightblue" d="M108.622,-87.911C129.604,-82.8965 155.482,-76.7119 177.73,-71.3947"/>
<polygon fill="midnightblue" stroke="midnightblue" points="178.754,-74.7487 187.666,-69.0201 177.126,-67.9405 178.754,-74.7487"/>
</g>
<!-- Node43 -->
<g id="node6" class="node"><title>Node43</title>
<g id="a_node6"><a xlink:href="namespaceEP.html#a92c709f3757c872402d2fcf954c3e2de" target="_top" xlink:title="Binomial coefficients generator. ">
<polygon fill="white" stroke="black" points="171,-0.5 171,-30.5 286,-30.5 286,-0.5 171,-0.5"/>
<text text-anchor="start" x="179" y="-18.5" font-family="FreeSans" font-size="10.00">EP::binomial_recursive</text>
<text text-anchor="middle" x="228.5" y="-7.5" font-family="FreeSans" font-size="10.00">_generator</text>
</a>
</g>
</g>
<!-- Node38&#45;&gt;Node43 -->
<g id="edge5" class="edge"><title>Node38&#45;&gt;Node43</title>
<path fill="none" stroke="midnightblue" d="M84.5882,-87.9545C104.569,-76.2395 139.833,-56.0214 171,-40.5 174.781,-38.6172 178.735,-36.7222 182.72,-34.8633"/>
<polygon fill="midnightblue" stroke="midnightblue" points="184.37,-37.9573 192.007,-30.6138 181.458,-31.592 184.37,-37.9573"/>
</g>
</g>
</svg>
