<?xml version="1.0" encoding="UTF-8" standalone="no"?>
<!DOCTYPE svg PUBLIC "-//W3C//DTD SVG 1.1//EN"
 "http://www.w3.org/Graphics/SVG/1.1/DTD/svg11.dtd">
<!-- Generated by graphviz version 2.38.0 (20140413.2041)
 -->
<!-- Title: ARC::chain&lt; particle_ &gt; Pages: 1 -->
<svg width="285pt" height="95pt"
 viewBox="0.00 0.00 284.50 95.00" xmlns="http://www.w3.org/2000/svg" xmlns:xlink="http://www.w3.org/1999/xlink">
<g id="graph0" class="graph" transform="scale(1 1) rotate(0) translate(4 91)">
<title>ARC::chain&lt; particle_ &gt;</title>
<polygon fill="white" stroke="none" points="-4,4 -4,-91 280.5,-91 280.5,4 -4,4"/>
<!-- Node2 -->
<g id="node1" class="node"><title>Node2</title>
<polygon fill="#bfbfbf" stroke="black" points="64,-0.5 64,-19.5 185,-19.5 185,-0.5 64,-0.5"/>
<text text-anchor="middle" x="124.5" y="-7.5" font-family="FreeSans" font-size="10.00">ARC::chain&lt; particle_ &gt;</text>
</g>
<!-- Node3 -->
<g id="node2" class="node"><title>Node3</title>
<polygon fill="white" stroke="#bfbfbf" points="0,-67.5 0,-86.5 53,-86.5 53,-67.5 0,-67.5"/>
<text text-anchor="middle" x="26.5" y="-74.5" font-family="FreeSans" font-size="10.00">particle_</text>
</g>
<!-- Node3&#45;&gt;Node2 -->
<g id="edge1" class="edge"><title>Node3&#45;&gt;Node2</title>
<path fill="none" stroke="midnightblue" d="M48.2191,-61.5945C67.6059,-48.7359 95.3555,-30.3306 111.493,-19.6273"/>
<polygon fill="midnightblue" stroke="midnightblue" points="46.1157,-58.7897 39.7167,-67.2338 49.9849,-64.6232 46.1157,-58.7897"/>
</g>
<!-- Node4 -->
<g id="node3" class="node"><title>Node4</title>
<g id="a_node3"><a xlink:href="classARC_1_1chainslowdown.html" target="_top" xlink:title="Slow&#45;down parameter control class. ">
<polygon fill="white" stroke="black" points="71,-67.5 71,-86.5 178,-86.5 178,-67.5 71,-67.5"/>
<text text-anchor="middle" x="124.5" y="-74.5" font-family="FreeSans" font-size="10.00">ARC::chainslowdown</text>
</a>
</g>
</g>
<!-- Node4&#45;&gt;Node2 -->
<g id="edge2" class="edge"><title>Node4&#45;&gt;Node2</title>
<path fill="none" stroke="#9a32cd" stroke-dasharray="5,2" d="M124.5,-57.037C124.5,-44.6703 124.5,-29.1198 124.5,-19.6273"/>
<polygon fill="#9a32cd" stroke="#9a32cd" points="121,-57.2338 124.5,-67.2338 128,-57.2338 121,-57.2338"/>
<text text-anchor="middle" x="147.5" y="-41" font-family="FreeSans" font-size="10.00"> slowdown</text>
</g>
<!-- Node5 -->
<g id="node4" class="node"><title>Node5</title>
<g id="a_node4"><a xlink:href="classARC_1_1chaininfo.html" target="_top" xlink:title="class for storing the information of chain (for decision making) ">
<polygon fill="white" stroke="black" points="196.5,-67.5 196.5,-86.5 276.5,-86.5 276.5,-67.5 196.5,-67.5"/>
<text text-anchor="middle" x="236.5" y="-74.5" font-family="FreeSans" font-size="10.00">ARC::chaininfo</text>
</a>
</g>
</g>
<!-- Node5&#45;&gt;Node2 -->
<g id="edge3" class="edge"><title>Node5&#45;&gt;Node2</title>
<path fill="none" stroke="#9a32cd" stroke-dasharray="5,2" d="M214.153,-61.8958C202.437,-54.6055 187.794,-45.6558 174.5,-38 163.386,-31.5998 150.666,-24.7372 140.837,-19.5323"/>
<polygon fill="#9a32cd" stroke="#9a32cd" points="212.505,-64.9937 222.839,-67.3303 216.218,-59.0593 212.505,-64.9937"/>
<text text-anchor="middle" x="202" y="-41" font-family="FreeSans" font-size="10.00"> info</text>
</g>
</g>
</svg>
