<?xml version="1.0" encoding="UTF-8" standalone="no"?>
<!DOCTYPE svg PUBLIC "-//W3C//DTD SVG 1.1//EN"
 "http://www.w3.org/Graphics/SVG/1.1/DTD/svg11.dtd">
<!-- Generated by graphviz version 2.38.0 (20140413.2041)
 -->
<!-- Title: ARC::chainpars::setEXP Pages: 1 -->
<svg width="279pt" height="192pt"
 viewBox="0.00 0.00 279.00 191.50" xmlns="http://www.w3.org/2000/svg" xmlns:xlink="http://www.w3.org/1999/xlink">
<g id="graph0" class="graph" transform="scale(1 1) rotate(0) translate(4 187.5)">
<title>ARC::chainpars::setEXP</title>
<polygon fill="white" stroke="none" points="-4,4 -4,-187.5 275,-187.5 275,4 -4,4"/>
<!-- Node14 -->
<g id="node1" class="node"><title>Node14</title>
<polygon fill="#bfbfbf" stroke="black" points="0,-88 0,-107 120,-107 120,-88 0,-88"/>
<text text-anchor="middle" x="60" y="-95" font-family="FreeSans" font-size="10.00">ARC::chainpars::setEXP</text>
</g>
<!-- Node15 -->
<g id="node2" class="node"><title>Node15</title>
<g id="a_node2"><a xlink:href="namespaceEP.html#afaef3617ed3fb4ad4627c19e955c5457" target="_top" xlink:title="Generate Romberg (even) sequence {h, h/2, h/4, h/8 ...}. ">
<polygon fill="white" stroke="black" points="166.5,-164 166.5,-183 260.5,-183 260.5,-164 166.5,-164"/>
<text text-anchor="middle" x="213.5" y="-171" font-family="FreeSans" font-size="10.00">EP::seq_Romberg</text>
</a>
</g>
</g>
<!-- Node14&#45;&gt;Node15 -->
<g id="edge1" class="edge"><title>Node14&#45;&gt;Node15</title>
<path fill="none" stroke="midnightblue" d="M74.9556,-107.193C93.0246,-119.427 125.788,-140.556 156,-154.5 160.638,-156.641 165.588,-158.662 170.557,-160.531"/>
<polygon fill="midnightblue" stroke="midnightblue" points="169.465,-163.857 180.06,-163.927 171.821,-157.266 169.465,-163.857"/>
</g>
<!-- Node16 -->
<g id="node3" class="node"><title>Node16</title>
<g id="a_node3"><a xlink:href="namespaceEP.html#a1c85d6f300251929ac82736e54760652" target="_top" xlink:title="Generate Bulirsch &amp; Stoer sequence {h, h/2, h/3, h/4, h/6, h/8 ...}. ">
<polygon fill="white" stroke="black" points="180.5,-126 180.5,-145 246.5,-145 246.5,-126 180.5,-126"/>
<text text-anchor="middle" x="213.5" y="-133" font-family="FreeSans" font-size="10.00">EP::seq_BS</text>
</a>
</g>
</g>
<!-- Node14&#45;&gt;Node16 -->
<g id="edge2" class="edge"><title>Node14&#45;&gt;Node16</title>
<path fill="none" stroke="midnightblue" d="M99.2298,-107.089C120.97,-112.542 148.227,-119.379 170.554,-124.979"/>
<polygon fill="midnightblue" stroke="midnightblue" points="169.878,-128.418 180.429,-127.456 171.581,-121.628 169.878,-128.418"/>
</g>
<!-- Node17 -->
<g id="node4" class="node"><title>Node17</title>
<g id="a_node4"><a xlink:href="namespaceEP.html#a691e74f494e1137b68389a2bd93f92c0" target="_top" xlink:title="Generate E. Hairer (4k) sequences {h/2, h/6, h/10, h/14 ...}. ">
<polygon fill="white" stroke="black" points="173,-88 173,-107 254,-107 254,-88 173,-88"/>
<text text-anchor="middle" x="213.5" y="-95" font-family="FreeSans" font-size="10.00">EP::seq_Hairer</text>
</a>
</g>
</g>
<!-- Node14&#45;&gt;Node17 -->
<g id="edge3" class="edge"><title>Node14&#45;&gt;Node17</title>
<path fill="none" stroke="midnightblue" d="M120.008,-97.5C134.044,-97.5 148.887,-97.5 162.476,-97.5"/>
<polygon fill="midnightblue" stroke="midnightblue" points="162.59,-101 172.59,-97.5 162.59,-94.0001 162.59,-101"/>
</g>
<!-- Node18 -->
<g id="node5" class="node"><title>Node18</title>
<g id="a_node5"><a xlink:href="namespaceEP.html#a6197a74bc7ca232ffcc84872d8f4f779" target="_top" xlink:title="Generate Harmonic sequence {h, h/2, h/3, h/4 ...}. ">
<polygon fill="white" stroke="black" points="166,-50 166,-69 261,-69 261,-50 166,-50"/>
<text text-anchor="middle" x="213.5" y="-57" font-family="FreeSans" font-size="10.00">EP::seq_Harmonic</text>
</a>
</g>
</g>
<!-- Node14&#45;&gt;Node18 -->
<g id="edge4" class="edge"><title>Node14&#45;&gt;Node18</title>
<path fill="none" stroke="midnightblue" d="M99.2298,-87.911C119.132,-82.9191 143.657,-76.7676 164.791,-71.4666"/>
<polygon fill="midnightblue" stroke="midnightblue" points="165.697,-74.8479 174.545,-69.0201 163.994,-68.0582 165.697,-74.8479"/>
</g>
<!-- Node19 -->
<g id="node6" class="node"><title>Node19</title>
<g id="a_node6"><a xlink:href="namespaceEP.html#a92c709f3757c872402d2fcf954c3e2de" target="_top" xlink:title="Binomial coefficients generator. ">
<polygon fill="white" stroke="black" points="156,-0.5 156,-30.5 271,-30.5 271,-0.5 156,-0.5"/>
<text text-anchor="start" x="164" y="-18.5" font-family="FreeSans" font-size="10.00">EP::binomial_recursive</text>
<text text-anchor="middle" x="213.5" y="-7.5" font-family="FreeSans" font-size="10.00">_generator</text>
</a>
</g>
</g>
<!-- Node14&#45;&gt;Node19 -->
<g id="edge5" class="edge"><title>Node14&#45;&gt;Node19</title>
<path fill="none" stroke="midnightblue" d="M75.8087,-87.8298C94.2246,-75.9891 126.804,-55.6442 156,-40.5 159.696,-38.5831 163.569,-36.6728 167.482,-34.8111"/>
<polygon fill="midnightblue" stroke="midnightblue" points="169.018,-37.9571 176.618,-30.5753 166.073,-31.6064 169.018,-37.9571"/>
</g>
</g>
</svg>
