<?xml version="1.0" encoding="UTF-8" standalone="no"?>
<!DOCTYPE svg PUBLIC "-//W3C//DTD SVG 1.1//EN"
 "http://www.w3.org/Graphics/SVG/1.1/DTD/svg11.dtd">
<!-- Generated by graphviz version 2.38.0 (20140413.2041)
 -->
<!-- Title: ARC::chain&lt; particle_ &gt; Pages: 1 -->
<svg width="160pt" height="95pt"
 viewBox="0.00 0.00 159.50 95.00" xmlns="http://www.w3.org/2000/svg" xmlns:xlink="http://www.w3.org/1999/xlink">
<g id="graph0" class="graph" transform="scale(1 1) rotate(0) translate(4 91)">
<title>ARC::chain&lt; particle_ &gt;</title>
<polygon fill="white" stroke="none" points="-4,4 -4,-91 155.5,-91 155.5,4 -4,4"/>
<!-- Node2 -->
<g id="node1" class="node"><title>Node2</title>
<polygon fill="#bfbfbf" stroke="black" points="8,-0.5 8,-19.5 129,-19.5 129,-0.5 8,-0.5"/>
<text text-anchor="middle" x="68.5" y="-7.5" font-family="FreeSans" font-size="10.00">ARC::chain&lt; particle_ &gt;</text>
</g>
<!-- Node3 -->
<g id="node2" class="node"><title>Node3</title>
<polygon fill="white" stroke="#bfbfbf" points="0,-67.5 0,-86.5 53,-86.5 53,-67.5 0,-67.5"/>
<text text-anchor="middle" x="26.5" y="-74.5" font-family="FreeSans" font-size="10.00">particle_</text>
</g>
<!-- Node3&#45;&gt;Node2 -->
<g id="edge1" class="edge"><title>Node3&#45;&gt;Node2</title>
<path fill="none" stroke="midnightblue" d="M37.7853,-58.5347C45.917,-45.9499 56.5415,-29.5072 62.9254,-19.6273"/>
<polygon fill="midnightblue" stroke="midnightblue" points="34.6518,-56.9351 32.1643,-67.2338 40.5312,-60.7341 34.6518,-56.9351"/>
</g>
<!-- Node4 -->
<g id="node3" class="node"><title>Node4</title>
<g id="a_node3"><a xlink:href="classARC_1_1chaininfo.html" target="_top" xlink:title="class for storing the information of chain (for decision making) ">
<polygon fill="white" stroke="black" points="71.5,-67.5 71.5,-86.5 151.5,-86.5 151.5,-67.5 71.5,-67.5"/>
<text text-anchor="middle" x="111.5" y="-74.5" font-family="FreeSans" font-size="10.00">ARC::chaininfo</text>
</a>
</g>
</g>
<!-- Node4&#45;&gt;Node2 -->
<g id="edge2" class="edge"><title>Node4&#45;&gt;Node2</title>
<path fill="none" stroke="#9a32cd" stroke-dasharray="5,2" d="M99.946,-58.5347C91.6207,-45.9499 80.7432,-29.5072 74.2073,-19.6273"/>
<polygon fill="#9a32cd" stroke="#9a32cd" points="97.2644,-60.8247 105.701,-67.2338 103.103,-56.9625 97.2644,-60.8247"/>
<text text-anchor="middle" x="103" y="-41" font-family="FreeSans" font-size="10.00"> info</text>
</g>
</g>
</svg>
