<?xml version="1.0" encoding="UTF-8" standalone="no"?>
<!DOCTYPE svg PUBLIC "-//W3C//DTD SVG 1.1//EN"
 "http://www.w3.org/Graphics/SVG/1.1/DTD/svg11.dtd">
<!-- Generated by graphviz version 2.38.0 (20140413.2041)
 -->
<!-- Title: ARC::chainlist::getN Pages: 1 -->
<svg width="258pt" height="116pt"
 viewBox="0.00 0.00 258.00 115.50" xmlns="http://www.w3.org/2000/svg" xmlns:xlink="http://www.w3.org/1999/xlink">
<g id="graph0" class="graph" transform="scale(1 1) rotate(0) translate(4 111.5)">
<title>ARC::chainlist::getN</title>
<polygon fill="white" stroke="none" points="-4,4 -4,-111.5 254,-111.5 254,4 -4,4"/>
<!-- Node31 -->
<g id="node1" class="node"><title>Node31</title>
<polygon fill="#bfbfbf" stroke="black" points="0,-50 0,-69 104,-69 104,-50 0,-50"/>
<text text-anchor="middle" x="52" y="-57" font-family="FreeSans" font-size="10.00">ARC::chainlist::getN</text>
</g>
<!-- Node32 -->
<g id="node2" class="node"><title>Node32</title>
<g id="a_node2"><a xlink:href="classARC_1_1chain.html#a3f328bce3650bab9496987bc5a1f5a98" target="_top" xlink:title="Data reading from file function. ">
<polygon fill="white" stroke="black" points="149,-88 149,-107 241,-107 241,-88 149,-88"/>
<text text-anchor="middle" x="195" y="-95" font-family="FreeSans" font-size="10.00">ARC::chain::read</text>
</a>
</g>
</g>
<!-- Node31&#45;&gt;Node32 -->
<g id="edge1" class="edge"><title>Node31&#45;&gt;Node32</title>
<path fill="none" stroke="midnightblue" d="M98.4398,-71.7462C117.875,-76.984 140.231,-83.0091 158.431,-87.9141"/>
<polygon fill="midnightblue" stroke="midnightblue" points="99.1465,-68.3118 88.5803,-69.089 97.325,-75.0707 99.1465,-68.3118"/>
</g>
<!-- Node33 -->
<g id="node3" class="node"><title>Node33</title>
<g id="a_node3"><a xlink:href="classARC_1_1chain.html#a9ddc18539223abcb6451805abc15aea9" target="_top" xlink:title="Initialization. ">
<polygon fill="white" stroke="black" points="152.5,-50 152.5,-69 237.5,-69 237.5,-50 152.5,-50"/>
<text text-anchor="middle" x="195" y="-57" font-family="FreeSans" font-size="10.00">ARC::chain::init</text>
</a>
</g>
</g>
<!-- Node31&#45;&gt;Node33 -->
<g id="edge2" class="edge"><title>Node31&#45;&gt;Node33</title>
<path fill="none" stroke="midnightblue" d="M114.421,-59.5C127.185,-59.5 140.354,-59.5 152.214,-59.5"/>
<polygon fill="midnightblue" stroke="midnightblue" points="114.303,-56.0001 104.303,-59.5 114.303,-63.0001 114.303,-56.0001"/>
</g>
<!-- Node34 -->
<g id="node4" class="node"><title>Node34</title>
<g id="a_node4"><a xlink:href="classARC_1_1chain.html#a0e375d50ca9a4c01f780dd5698fe6914" target="_top" xlink:title="Leapfrog integrator. ">
<polygon fill="white" stroke="black" points="140,-0.5 140,-30.5 250,-30.5 250,-0.5 140,-0.5"/>
<text text-anchor="start" x="148" y="-18.5" font-family="FreeSans" font-size="10.00">ARC::chain::Leapfrog</text>
<text text-anchor="middle" x="195" y="-7.5" font-family="FreeSans" font-size="10.00">_step_forward</text>
</a>
</g>
</g>
<!-- Node31&#45;&gt;Node34 -->
<g id="edge3" class="edge"><title>Node31&#45;&gt;Node34</title>
<path fill="none" stroke="midnightblue" d="M93.3747,-46.9008C109.698,-41.8069 128.676,-35.8849 145.722,-30.5654"/>
<polygon fill="midnightblue" stroke="midnightblue" points="92.0983,-43.6326 83.5949,-49.9527 94.1835,-50.3148 92.0983,-43.6326"/>
</g>
</g>
</svg>
