<?xml version="1.0" encoding="UTF-8" standalone="no"?>
<!DOCTYPE svg PUBLIC "-//W3C//DTD SVG 1.1//EN"
 "http://www.w3.org/Graphics/SVG/1.1/DTD/svg11.dtd">
<!-- Generated by graphviz version 2.38.0 (20140413.2041)
 -->
<!-- Title: ARC::chain::addP Pages: 1 -->
<svg width="254pt" height="116pt"
 viewBox="0.00 0.00 254.00 115.50" xmlns="http://www.w3.org/2000/svg" xmlns:xlink="http://www.w3.org/1999/xlink">
<g id="graph0" class="graph" transform="scale(1 1) rotate(0) translate(4 111.5)">
<title>ARC::chain::addP</title>
<polygon fill="white" stroke="none" points="-4,4 -4,-111.5 250,-111.5 250,4 -4,4"/>
<!-- Node11 -->
<g id="node1" class="node"><title>Node11</title>
<polygon fill="#bfbfbf" stroke="black" points="0,-38.5 0,-57.5 93,-57.5 93,-38.5 0,-38.5"/>
<text text-anchor="middle" x="46.5" y="-45.5" font-family="FreeSans" font-size="10.00">ARC::chain::addP</text>
</g>
<!-- Node12 -->
<g id="node2" class="node"><title>Node12</title>
<g id="a_node2"><a xlink:href="classARC_1_1chainlist.html#a0e2f35b8eabe9d9ecd77ed9f24e083de" target="_top" xlink:title="show whether the chainlist allocated memory ">
<polygon fill="white" stroke="black" points="142,-77 142,-107 233,-107 233,-77 142,-77"/>
<text text-anchor="start" x="150" y="-95" font-family="FreeSans" font-size="10.00">ARC::chainlist::is</text>
<text text-anchor="middle" x="187.5" y="-84" font-family="FreeSans" font-size="10.00">_alloc</text>
</a>
</g>
</g>
<!-- Node11&#45;&gt;Node12 -->
<g id="edge1" class="edge"><title>Node11&#45;&gt;Node12</title>
<path fill="none" stroke="midnightblue" d="M77.6609,-57.5473C93.6394,-62.6053 113.754,-68.9726 132.331,-74.8531"/>
<polygon fill="midnightblue" stroke="midnightblue" points="131.286,-78.1932 141.876,-77.8743 133.398,-71.5195 131.286,-78.1932"/>
</g>
<!-- Node13 -->
<g id="node3" class="node"><title>Node13</title>
<g id="a_node3"><a xlink:href="classARC_1_1chainlist.html#ab212df89ec5a2e81ce7525adc04001c1" target="_top" xlink:title="Memory allocation of particle and particle address array. ">
<polygon fill="white" stroke="black" points="129,-38.5 129,-57.5 246,-57.5 246,-38.5 129,-38.5"/>
<text text-anchor="middle" x="187.5" y="-45.5" font-family="FreeSans" font-size="10.00">ARC::chainlist::allocate</text>
</a>
</g>
</g>
<!-- Node11&#45;&gt;Node13 -->
<g id="edge2" class="edge"><title>Node11&#45;&gt;Node13</title>
<path fill="none" stroke="midnightblue" d="M93.0138,-48C101.209,-48 109.91,-48 118.579,-48"/>
<polygon fill="midnightblue" stroke="midnightblue" points="118.709,-51.5001 128.709,-48 118.709,-44.5001 118.709,-51.5001"/>
</g>
<!-- Node14 -->
<g id="node4" class="node"><title>Node14</title>
<g id="a_node4"><a xlink:href="classARC_1_1chainlist.html#a598c1819d8e715ec0a24669e5bb06c6a" target="_top" xlink:title="Add new particle. ">
<polygon fill="white" stroke="black" points="137.5,-0.5 137.5,-19.5 237.5,-19.5 237.5,-0.5 137.5,-0.5"/>
<text text-anchor="middle" x="187.5" y="-7.5" font-family="FreeSans" font-size="10.00">ARC::chainlist::add</text>
</a>
</g>
</g>
<!-- Node11&#45;&gt;Node14 -->
<g id="edge3" class="edge"><title>Node11&#45;&gt;Node14</title>
<path fill="none" stroke="midnightblue" d="M82.5756,-38.411C100.519,-33.5056 122.558,-27.4804 141.717,-22.2429"/>
<polygon fill="midnightblue" stroke="midnightblue" points="142.713,-25.5992 151.436,-19.5859 140.867,-18.8469 142.713,-25.5992"/>
</g>
</g>
</svg>
