<?xml version="1.0" encoding="UTF-8" standalone="no"?>
<!DOCTYPE svg PUBLIC "-//W3C//DTD SVG 1.1//EN"
 "http://www.w3.org/Graphics/SVG/1.1/DTD/svg11.dtd">
<!-- Generated by graphviz version 2.38.0 (20140413.2041)
 -->
<!-- Title: ARC::chain::~chain Pages: 1 -->
<svg width="260pt" height="142pt"
 viewBox="0.00 0.00 260.00 142.00" xmlns="http://www.w3.org/2000/svg" xmlns:xlink="http://www.w3.org/1999/xlink">
<g id="graph0" class="graph" transform="scale(1 1) rotate(0) translate(4 138)">
<title>ARC::chain::~chain</title>
<polygon fill="white" stroke="none" points="-4,4 -4,-138 256,-138 256,4 -4,4"/>
<!-- Node4 -->
<g id="node1" class="node"><title>Node4</title>
<polygon fill="#bfbfbf" stroke="black" points="0,-57.5 0,-76.5 101,-76.5 101,-57.5 0,-57.5"/>
<text text-anchor="middle" x="50.5" y="-64.5" font-family="FreeSans" font-size="10.00">ARC::chain::~chain</text>
</g>
<!-- Node5 -->
<g id="node2" class="node"><title>Node5</title>
<g id="a_node2"><a xlink:href="classARC_1_1chainlist.html#a9b45780f42626b14e3a2fd7b5de4bf32" target="_top" xlink:title="Get current particle number. ">
<polygon fill="white" stroke="black" points="142.5,-114.5 142.5,-133.5 246.5,-133.5 246.5,-114.5 142.5,-114.5"/>
<text text-anchor="middle" x="194.5" y="-121.5" font-family="FreeSans" font-size="10.00">ARC::chainlist::getN</text>
</a>
</g>
</g>
<!-- Node4&#45;&gt;Node5 -->
<g id="edge1" class="edge"><title>Node4&#45;&gt;Node5</title>
<path fill="none" stroke="midnightblue" d="M71.6588,-76.6026C88.8432,-84.6324 114.295,-96.1592 137,-105 142.437,-107.117 148.219,-109.223 153.93,-111.22"/>
<polygon fill="midnightblue" stroke="midnightblue" points="152.809,-114.535 163.403,-114.461 155.075,-107.912 152.809,-114.535"/>
</g>
<!-- Node6 -->
<g id="node3" class="node"><title>Node6</title>
<g id="a_node3"><a xlink:href="classARC_1_1chainlist.html#a192f6db3659e5329d137de18c8c4b029" target="_top" xlink:title="Is i^th a chain? ">
<polygon fill="white" stroke="black" points="137,-76.5 137,-95.5 252,-95.5 252,-76.5 137,-76.5"/>
<text text-anchor="middle" x="194.5" y="-83.5" font-family="FreeSans" font-size="10.00">ARC::chainlist::isChain</text>
</a>
</g>
</g>
<!-- Node4&#45;&gt;Node6 -->
<g id="edge2" class="edge"><title>Node4&#45;&gt;Node6</title>
<path fill="none" stroke="midnightblue" d="M101.165,-73.6453C109.442,-74.7529 118.147,-75.9175 126.767,-77.0709"/>
<polygon fill="midnightblue" stroke="midnightblue" points="126.441,-80.5584 136.817,-78.4156 127.369,-73.6202 126.441,-80.5584"/>
</g>
<!-- Node7 -->
<g id="node4" class="node"><title>Node7</title>
<g id="a_node4"><a xlink:href="classARC_1_1chainlist.html#a14c6b75c2d3e97cf9babcac2aa014e8a" target="_top" xlink:title="Get particle list in a chain type member. ">
<polygon fill="white" stroke="black" points="137.5,-38.5 137.5,-57.5 251.5,-57.5 251.5,-38.5 137.5,-38.5"/>
<text text-anchor="middle" x="194.5" y="-45.5" font-family="FreeSans" font-size="10.00">ARC::chainlist::getSub</text>
</a>
</g>
</g>
<!-- Node4&#45;&gt;Node7 -->
<g id="edge3" class="edge"><title>Node4&#45;&gt;Node7</title>
<path fill="none" stroke="midnightblue" d="M101.165,-60.3547C109.557,-59.2318 118.389,-58.0501 127.126,-56.881"/>
<polygon fill="midnightblue" stroke="midnightblue" points="127.86,-60.3141 137.308,-55.5187 126.932,-53.3759 127.86,-60.3141"/>
</g>
<!-- Node8 -->
<g id="node5" class="node"><title>Node8</title>
<g id="a_node5"><a xlink:href="classARC_1_1chain.html#afd0342ec9b20a318d811f3ec0f6c9950" target="_top" xlink:title="Indicator of particle frame. ">
<polygon fill="white" stroke="black" points="140.5,-0.5 140.5,-19.5 248.5,-19.5 248.5,-0.5 140.5,-0.5"/>
<text text-anchor="middle" x="194.5" y="-7.5" font-family="FreeSans" font-size="10.00">ARC::chain::isPorigin</text>
</a>
</g>
</g>
<!-- Node4&#45;&gt;Node8 -->
<g id="edge4" class="edge"><title>Node4&#45;&gt;Node8</title>
<path fill="none" stroke="midnightblue" d="M71.6588,-57.3974C88.8432,-49.3676 114.295,-37.8408 137,-29 142.437,-26.8831 148.219,-24.7772 153.93,-22.7801"/>
<polygon fill="midnightblue" stroke="midnightblue" points="155.075,-26.0878 163.403,-19.539 152.809,-19.4648 155.075,-26.0878"/>
</g>
</g>
</svg>
