<?xml version="1.0" encoding="UTF-8" standalone="no"?>
<!DOCTYPE svg PUBLIC "-//W3C//DTD SVG 1.1//EN"
 "http://www.w3.org/Graphics/SVG/1.1/DTD/svg11.dtd">
<!-- Generated by graphviz version 2.38.0 (20140413.2041)
 -->
<!-- Title: ARC::chain::initPext Pages: 1 -->
<svg width="269pt" height="66pt"
 viewBox="0.00 0.00 269.00 66.00" xmlns="http://www.w3.org/2000/svg" xmlns:xlink="http://www.w3.org/1999/xlink">
<g id="graph0" class="graph" transform="scale(1 1) rotate(0) translate(4 62)">
<title>ARC::chain::initPext</title>
<polygon fill="white" stroke="none" points="-4,4 -4,-62 265,-62 265,4 -4,4"/>
<!-- Node90 -->
<g id="node1" class="node"><title>Node90</title>
<polygon fill="#bfbfbf" stroke="black" points="0,-19.5 0,-38.5 103,-38.5 103,-19.5 0,-19.5"/>
<text text-anchor="middle" x="51.5" y="-26.5" font-family="FreeSans" font-size="10.00">ARC::chain::initPext</text>
</g>
<!-- Node91 -->
<g id="node2" class="node"><title>Node91</title>
<g id="a_node2"><a xlink:href="classARC_1_1chainlist.html#a60cec732dad13b91f7835fc0cd604e5f" target="_top" xlink:title="Get maximum particle number. ">
<polygon fill="white" stroke="black" points="139,-38.5 139,-57.5 261,-57.5 261,-38.5 139,-38.5"/>
<text text-anchor="middle" x="200" y="-45.5" font-family="FreeSans" font-size="10.00">ARC::chainlist::getNmax</text>
</a>
</g>
</g>
<!-- Node90&#45;&gt;Node91 -->
<g id="edge1" class="edge"><title>Node90&#45;&gt;Node91</title>
<path fill="none" stroke="midnightblue" d="M103.327,-35.592C111.584,-36.6628 120.261,-37.7881 128.88,-38.906"/>
<polygon fill="midnightblue" stroke="midnightblue" points="128.576,-42.3957 138.943,-40.211 129.476,-35.4539 128.576,-42.3957"/>
</g>
<!-- Node92 -->
<g id="node3" class="node"><title>Node92</title>
<g id="a_node3"><a xlink:href="classARC_1_1chainlist.html#a82f296c7288678df8c279958304e58d8" target="_top" xlink:title="Initialization with memory allocation. ">
<polygon fill="white" stroke="black" points="151.5,-0.5 151.5,-19.5 248.5,-19.5 248.5,-0.5 151.5,-0.5"/>
<text text-anchor="middle" x="200" y="-7.5" font-family="FreeSans" font-size="10.00">ARC::chainlist::init</text>
</a>
</g>
</g>
<!-- Node90&#45;&gt;Node92 -->
<g id="edge2" class="edge"><title>Node90&#45;&gt;Node92</title>
<path fill="none" stroke="midnightblue" d="M103.327,-22.408C115.465,-20.8338 128.513,-19.1417 140.948,-17.5289"/>
<polygon fill="midnightblue" stroke="midnightblue" points="141.751,-20.9542 151.217,-16.1971 140.85,-14.0124 141.751,-20.9542"/>
</g>
</g>
</svg>
