<?xml version="1.0" encoding="UTF-8" standalone="no"?>
<!DOCTYPE svg PUBLIC "-//W3C//DTD SVG 1.1//EN"
 "http://www.w3.org/Graphics/SVG/1.1/DTD/svg11.dtd">
<!-- Generated by graphviz version 2.38.0 (20140413.2041)
 -->
<!-- Title: /mnt/c/Users/longw/Documents/GitHub/ARC/include/extrapolation.h Pages: 1 -->
<svg width="264pt" height="106pt"
 viewBox="0.00 0.00 264.00 106.00" xmlns="http://www.w3.org/2000/svg" xmlns:xlink="http://www.w3.org/1999/xlink">
<g id="graph0" class="graph" transform="scale(1 1) rotate(0) translate(4 102)">
<title>/mnt/c/Users/longw/Documents/GitHub/ARC/include/extrapolation.h</title>
<polygon fill="white" stroke="none" points="-4,4 -4,-102 260,-102 260,4 -4,4"/>
<!-- Node1 -->
<g id="node1" class="node"><title>Node1</title>
<polygon fill="#bfbfbf" stroke="black" points="63,-56.5 63,-97.5 196,-97.5 196,-56.5 63,-56.5"/>
<text text-anchor="start" x="71" y="-85.5" font-family="FreeSans" font-size="10.00">/mnt/c/Users/longw</text>
<text text-anchor="start" x="71" y="-74.5" font-family="FreeSans" font-size="10.00">/Documents/GitHub/ARC</text>
<text text-anchor="middle" x="129.5" y="-63.5" font-family="FreeSans" font-size="10.00">/include/extrapolation.h</text>
</g>
<!-- Node2 -->
<g id="node2" class="node"><title>Node2</title>
<polygon fill="white" stroke="#bfbfbf" points="0,-0.5 0,-19.5 47,-19.5 47,-0.5 0,-0.5"/>
<text text-anchor="middle" x="23.5" y="-7.5" font-family="FreeSans" font-size="10.00">cstdlib</text>
</g>
<!-- Node1&#45;&gt;Node2 -->
<g id="edge1" class="edge"><title>Node1&#45;&gt;Node2</title>
<path fill="none" stroke="midnightblue" d="M97.6965,-56.4979C81.1322,-46.3405 61.2607,-34.1551 46.253,-24.9523"/>
<polygon fill="midnightblue" stroke="midnightblue" points="47.9647,-21.8963 37.6102,-19.6525 44.3054,-27.8637 47.9647,-21.8963"/>
</g>
<!-- Node3 -->
<g id="node3" class="node"><title>Node3</title>
<polygon fill="white" stroke="#bfbfbf" points="65,-0.5 65,-19.5 124,-19.5 124,-0.5 65,-0.5"/>
<text text-anchor="middle" x="94.5" y="-7.5" font-family="FreeSans" font-size="10.00">iostream</text>
</g>
<!-- Node1&#45;&gt;Node3 -->
<g id="edge2" class="edge"><title>Node1&#45;&gt;Node3</title>
<path fill="none" stroke="midnightblue" d="M118.999,-56.4979C114.2,-47.5862 108.561,-37.1135 103.903,-28.4636"/>
<polygon fill="midnightblue" stroke="midnightblue" points="106.982,-26.7978 99.159,-19.6525 100.818,-30.1166 106.982,-26.7978"/>
</g>
<!-- Node4 -->
<g id="node4" class="node"><title>Node4</title>
<polygon fill="white" stroke="#bfbfbf" points="142,-0.5 142,-19.5 189,-19.5 189,-0.5 142,-0.5"/>
<text text-anchor="middle" x="165.5" y="-7.5" font-family="FreeSans" font-size="10.00">cmath</text>
</g>
<!-- Node1&#45;&gt;Node4 -->
<g id="edge3" class="edge"><title>Node1&#45;&gt;Node4</title>
<path fill="none" stroke="midnightblue" d="M140.301,-56.4979C145.237,-47.5862 151.037,-37.1135 155.828,-28.4636"/>
<polygon fill="midnightblue" stroke="midnightblue" points="158.925,-30.0962 160.708,-19.6525 152.801,-26.7046 158.925,-30.0962"/>
</g>
<!-- Node5 -->
<g id="node5" class="node"><title>Node5</title>
<polygon fill="white" stroke="#bfbfbf" points="207,-0.5 207,-19.5 256,-19.5 256,-0.5 207,-0.5"/>
<text text-anchor="middle" x="231.5" y="-7.5" font-family="FreeSans" font-size="10.00">cstring</text>
</g>
<!-- Node1&#45;&gt;Node5 -->
<g id="edge4" class="edge"><title>Node1&#45;&gt;Node5</title>
<path fill="none" stroke="midnightblue" d="M160.103,-56.4979C175.892,-46.4363 194.804,-34.3849 209.196,-25.2136"/>
<polygon fill="midnightblue" stroke="midnightblue" points="211.37,-27.9783 217.922,-19.6525 207.608,-22.075 211.37,-27.9783"/>
</g>
</g>
</svg>
