<?xml version="1.0" encoding="UTF-8" standalone="no"?>
<!DOCTYPE svg PUBLIC "-//W3C//DTD SVG 1.1//EN"
 "http://www.w3.org/Graphics/SVG/1.1/DTD/svg11.dtd">
<!-- Generated by graphviz version 2.38.0 (20140413.2041)
 -->
<!-- Title: C:/Users/longw/Documents/GitHub/ARC/include/extrapolation.h Pages: 1 -->
<svg width="249pt" height="95pt"
 viewBox="0.00 0.00 248.50 95.00" xmlns="http://www.w3.org/2000/svg" xmlns:xlink="http://www.w3.org/1999/xlink">
<g id="graph0" class="graph" transform="scale(1 1) rotate(0) translate(4 91)">
<title>C:/Users/longw/Documents/GitHub/ARC/include/extrapolation.h</title>
<polygon fill="white" stroke="none" points="-4,4 -4,-91 244.5,-91 244.5,4 -4,4"/>
<!-- Node0 -->
<g id="node1" class="node"><title>Node0</title>
<polygon fill="#bfbfbf" stroke="black" points="36.5,-56.5 36.5,-86.5 207.5,-86.5 207.5,-56.5 36.5,-56.5"/>
<text text-anchor="start" x="44.5" y="-74.5" font-family="FreeSans" font-size="10.00">C:/Users/longw/Documents</text>
<text text-anchor="middle" x="122" y="-63.5" font-family="FreeSans" font-size="10.00">/GitHub/ARC/include/extrapolation.h</text>
</g>
<!-- Node1 -->
<g id="node2" class="node"><title>Node1</title>
<polygon fill="white" stroke="#bfbfbf" points="0,-0.5 0,-19.5 44,-19.5 44,-0.5 0,-0.5"/>
<text text-anchor="middle" x="22" y="-7.5" font-family="FreeSans" font-size="10.00">cstdlib</text>
</g>
<!-- Node0&#45;&gt;Node1 -->
<g id="edge1" class="edge"><title>Node0&#45;&gt;Node1</title>
<path fill="none" stroke="midnightblue" d="M98.3014,-56.3993C82.2721,-46.8619 61.2013,-34.3248 45.2642,-24.8422"/>
<polygon fill="midnightblue" stroke="midnightblue" points="46.9344,-21.7633 36.5509,-19.6578 43.355,-27.779 46.9344,-21.7633"/>
</g>
<!-- Node2 -->
<g id="node3" class="node"><title>Node2</title>
<polygon fill="white" stroke="#bfbfbf" points="62,-0.5 62,-19.5 116,-19.5 116,-0.5 62,-0.5"/>
<text text-anchor="middle" x="89" y="-7.5" font-family="FreeSans" font-size="10.00">iostream</text>
</g>
<!-- Node0&#45;&gt;Node2 -->
<g id="edge2" class="edge"><title>Node0&#45;&gt;Node2</title>
<path fill="none" stroke="midnightblue" d="M114.179,-56.3993C109.532,-48.0207 103.601,-37.3269 98.6631,-28.4229"/>
<polygon fill="midnightblue" stroke="midnightblue" points="101.713,-26.7052 93.8018,-19.6578 95.5913,-30.1004 101.713,-26.7052"/>
</g>
<!-- Node3 -->
<g id="node4" class="node"><title>Node3</title>
<polygon fill="white" stroke="#bfbfbf" points="134.5,-0.5 134.5,-19.5 177.5,-19.5 177.5,-0.5 134.5,-0.5"/>
<text text-anchor="middle" x="156" y="-7.5" font-family="FreeSans" font-size="10.00">cmath</text>
</g>
<!-- Node0&#45;&gt;Node3 -->
<g id="edge3" class="edge"><title>Node0&#45;&gt;Node3</title>
<path fill="none" stroke="midnightblue" d="M130.058,-56.3993C134.845,-48.0207 140.956,-37.3269 146.044,-28.4229"/>
<polygon fill="midnightblue" stroke="midnightblue" points="149.13,-30.0767 151.053,-19.6578 143.052,-26.6037 149.13,-30.0767"/>
</g>
<!-- Node4 -->
<g id="node5" class="node"><title>Node4</title>
<polygon fill="white" stroke="#bfbfbf" points="195.5,-0.5 195.5,-19.5 240.5,-19.5 240.5,-0.5 195.5,-0.5"/>
<text text-anchor="middle" x="218" y="-7.5" font-family="FreeSans" font-size="10.00">cstring</text>
</g>
<!-- Node0&#45;&gt;Node4 -->
<g id="edge4" class="edge"><title>Node0&#45;&gt;Node4</title>
<path fill="none" stroke="midnightblue" d="M144.751,-56.3993C159.995,-46.9511 179.989,-34.5589 195.236,-25.1089"/>
<polygon fill="midnightblue" stroke="midnightblue" points="197.375,-27.9009 204.031,-19.6578 193.687,-21.951 197.375,-27.9009"/>
</g>
</g>
</svg>
