<?xml version="1.0" encoding="UTF-8" standalone="no"?>
<!DOCTYPE svg PUBLIC "-//W3C//DTD SVG 1.1//EN"
 "http://www.w3.org/Graphics/SVG/1.1/DTD/svg11.dtd">
<!-- Generated by graphviz version 2.38.0 (20140413.2041)
 -->
<!-- Title: C:/Users/longw/Documents/GitHub/ARC/include/extrapolation.h Pages: 1 -->
<svg width="179pt" height="106pt"
 viewBox="0.00 0.00 179.00 106.00" xmlns="http://www.w3.org/2000/svg" xmlns:xlink="http://www.w3.org/1999/xlink">
<g id="graph0" class="graph" transform="scale(1 1) rotate(0) translate(4 102)">
<title>C:/Users/longw/Documents/GitHub/ARC/include/extrapolation.h</title>
<polygon fill="white" stroke="none" points="-4,4 -4,-102 175,-102 175,4 -4,4"/>
<!-- Node5 -->
<g id="node1" class="node"><title>Node5</title>
<polygon fill="#bfbfbf" stroke="black" points="0,-67.5 0,-97.5 171,-97.5 171,-67.5 0,-67.5"/>
<text text-anchor="start" x="8" y="-85.5" font-family="FreeSans" font-size="10.00">C:/Users/longw/Documents</text>
<text text-anchor="middle" x="85.5" y="-74.5" font-family="FreeSans" font-size="10.00">/GitHub/ARC/include/extrapolation.h</text>
</g>
<!-- Node6 -->
<g id="node2" class="node"><title>Node6</title>
<g id="a_node2"><a xlink:href="AR_8h.html" target="_top" xlink:title="C:/Users/longw/Documents\l/GitHub/ARC/include/AR.h">
<polygon fill="white" stroke="black" points="18.5,-0.5 18.5,-30.5 152.5,-30.5 152.5,-0.5 18.5,-0.5"/>
<text text-anchor="start" x="26.5" y="-18.5" font-family="FreeSans" font-size="10.00">C:/Users/longw/Documents</text>
<text text-anchor="middle" x="85.5" y="-7.5" font-family="FreeSans" font-size="10.00">/GitHub/ARC/include/AR.h</text>
</a>
</g>
</g>
<!-- Node5&#45;&gt;Node6 -->
<g id="edge1" class="edge"><title>Node5&#45;&gt;Node6</title>
<path fill="none" stroke="midnightblue" d="M85.5,-57.1081C85.5,-48.1539 85.5,-38.3227 85.5,-30.5765"/>
<polygon fill="midnightblue" stroke="midnightblue" points="82.0001,-57.3959 85.5,-67.396 89.0001,-57.396 82.0001,-57.3959"/>
</g>
</g>
</svg>
