<?xml version="1.0" encoding="UTF-8" standalone="no"?>
<!DOCTYPE svg PUBLIC "-//W3C//DTD SVG 1.1//EN"
 "http://www.w3.org/Graphics/SVG/1.1/DTD/svg11.dtd">
<!-- Generated by graphviz version 2.38.0 (20140413.2041)
 -->
<!-- Title: EP::polynomial_recursive_formula Pages: 1 -->
<svg width="506pt" height="39pt"
 viewBox="0.00 0.00 506.00 39.00" xmlns="http://www.w3.org/2000/svg" xmlns:xlink="http://www.w3.org/1999/xlink">
<g id="graph0" class="graph" transform="scale(1 1) rotate(0) translate(4 35)">
<title>EP::polynomial_recursive_formula</title>
<polygon fill="white" stroke="none" points="-4,4 -4,-35 502,-35 502,4 -4,4"/>
<!-- Node1 -->
<g id="node1" class="node"><title>Node1</title>
<polygon fill="#bfbfbf" stroke="black" points="0,-0.5 0,-30.5 135,-30.5 135,-0.5 0,-0.5"/>
<text text-anchor="start" x="8" y="-18.5" font-family="FreeSans" font-size="10.00">EP::polynomial_recursive</text>
<text text-anchor="middle" x="67.5" y="-7.5" font-family="FreeSans" font-size="10.00">_formula</text>
</g>
<!-- Node2 -->
<g id="node2" class="node"><title>Node2</title>
<g id="a_node2"><a xlink:href="namespaceEP.html#ae89d6690a891336eef708e90e575a2be" target="_top" xlink:title="Polynomial extrapolation of Tsize number of data together. ">
<polygon fill="white" stroke="black" points="171,-6 171,-25 326,-25 326,-6 171,-6"/>
<text text-anchor="middle" x="248.5" y="-13" font-family="FreeSans" font-size="10.00">EP::polynomial_extrapolation</text>
</a>
</g>
</g>
<!-- Node1&#45;&gt;Node2 -->
<g id="edge1" class="edge"><title>Node1&#45;&gt;Node2</title>
<path fill="none" stroke="midnightblue" d="M145.356,-15.5C153.799,-15.5 162.396,-15.5 170.837,-15.5"/>
<polygon fill="midnightblue" stroke="midnightblue" points="145.153,-12.0001 135.153,-15.5 145.153,-19.0001 145.153,-12.0001"/>
</g>
<!-- Node3 -->
<g id="node3" class="node"><title>Node3</title>
<g id="a_node3"><a xlink:href="classARC_1_1chain.html#af8f59f60d18fff66ef7102a74b4a8838" target="_top" xlink:title="Extrapolation integration. ">
<polygon fill="white" stroke="black" points="362,-0.5 362,-30.5 498,-30.5 498,-0.5 362,-0.5"/>
<text text-anchor="start" x="370" y="-18.5" font-family="FreeSans" font-size="10.00">ARC::chain::extrapolation</text>
<text text-anchor="middle" x="430" y="-7.5" font-family="FreeSans" font-size="10.00">_integration</text>
</a>
</g>
</g>
<!-- Node2&#45;&gt;Node3 -->
<g id="edge2" class="edge"><title>Node2&#45;&gt;Node3</title>
<path fill="none" stroke="midnightblue" d="M336.25,-15.5C344.889,-15.5 353.566,-15.5 361.958,-15.5"/>
<polygon fill="midnightblue" stroke="midnightblue" points="336.145,-12.0001 326.145,-15.5 336.145,-19.0001 336.145,-12.0001"/>
</g>
</g>
</svg>
