<?xml version="1.0" encoding="UTF-8" standalone="no"?>
<!DOCTYPE svg PUBLIC "-//W3C//DTD SVG 1.1//EN"
 "http://www.w3.org/Graphics/SVG/1.1/DTD/svg11.dtd">
<!-- Generated by graphviz version 2.38.0 (20140413.2041)
 -->
<!-- Title: NTA::Newtonian_extAcc Pages: 1 -->
<svg width="255pt" height="104pt"
 viewBox="0.00 0.00 255.00 104.00" xmlns="http://www.w3.org/2000/svg" xmlns:xlink="http://www.w3.org/1999/xlink">
<g id="graph0" class="graph" transform="scale(1 1) rotate(0) translate(4 100)">
<title>NTA::Newtonian_extAcc</title>
<polygon fill="white" stroke="none" points="-4,4 -4,-100 251,-100 251,4 -4,4"/>
<!-- Node7 -->
<g id="node1" class="node"><title>Node7</title>
<polygon fill="#bfbfbf" stroke="black" points="0,-38.5 0,-57.5 120,-57.5 120,-38.5 0,-38.5"/>
<text text-anchor="middle" x="60" y="-45.5" font-family="FreeSans" font-size="10.00">NTA::Newtonian_extAcc</text>
</g>
<!-- Node8 -->
<g id="node2" class="node"><title>Node8</title>
<g id="a_node2"><a xlink:href="classParticle.html#a4ec76421cddd91b1f27357fb182f6923" target="_top" xlink:title="Get position (required for ARC::chain) ">
<polygon fill="white" stroke="black" points="159.5,-76.5 159.5,-95.5 243.5,-95.5 243.5,-76.5 159.5,-76.5"/>
<text text-anchor="middle" x="201.5" y="-83.5" font-family="FreeSans" font-size="10.00">Particle::getPos</text>
</a>
</g>
</g>
<!-- Node7&#45;&gt;Node8 -->
<g id="edge1" class="edge"><title>Node7&#45;&gt;Node8</title>
<path fill="none" stroke="midnightblue" d="M96.2017,-57.589C114.21,-62.4944 136.328,-68.5196 155.556,-73.7571"/>
<polygon fill="midnightblue" stroke="midnightblue" points="154.741,-77.1627 165.31,-76.4141 156.581,-70.4088 154.741,-77.1627"/>
</g>
<!-- Node9 -->
<g id="node3" class="node"><title>Node9</title>
<g id="a_node3"><a xlink:href="classParticle.html#ab3d63df7f8c22f232b096ae33b6ea3ac" target="_top" xlink:title="Get velocity (required for ARC::chain) ">
<polygon fill="white" stroke="black" points="160,-38.5 160,-57.5 243,-57.5 243,-38.5 160,-38.5"/>
<text text-anchor="middle" x="201.5" y="-45.5" font-family="FreeSans" font-size="10.00">Particle::getVel</text>
</a>
</g>
</g>
<!-- Node7&#45;&gt;Node9 -->
<g id="edge2" class="edge"><title>Node7&#45;&gt;Node9</title>
<path fill="none" stroke="midnightblue" d="M120.161,-48C129.977,-48 140.079,-48 149.666,-48"/>
<polygon fill="midnightblue" stroke="midnightblue" points="149.829,-51.5001 159.829,-48 149.829,-44.5001 149.829,-51.5001"/>
</g>
<!-- Node10 -->
<g id="node4" class="node"><title>Node10</title>
<g id="a_node4"><a xlink:href="classParticle.html#a2576aff503f68e78ced91406512b1255" target="_top" xlink:title="Get mass (required for ARC::chain) ">
<polygon fill="white" stroke="black" points="156,-0.5 156,-19.5 247,-19.5 247,-0.5 156,-0.5"/>
<text text-anchor="middle" x="201.5" y="-7.5" font-family="FreeSans" font-size="10.00">Particle::getMass</text>
</a>
</g>
</g>
<!-- Node7&#45;&gt;Node10 -->
<g id="edge3" class="edge"><title>Node7&#45;&gt;Node10</title>
<path fill="none" stroke="midnightblue" d="M96.2017,-38.411C114.21,-33.5056 136.328,-27.4804 155.556,-22.2429"/>
<polygon fill="midnightblue" stroke="midnightblue" points="156.581,-25.5912 165.31,-19.5859 154.741,-18.8373 156.581,-25.5912"/>
</g>
</g>
</svg>
