<?xml version="1.0" encoding="UTF-8" standalone="no"?>
<!DOCTYPE svg PUBLIC "-//W3C//DTD SVG 1.1//EN"
 "http://www.w3.org/Graphics/SVG/1.1/DTD/svg11.dtd">
<!-- Generated by graphviz version 2.38.0 (20140413.2041)
 -->
<!-- Title: EP::rational_recursive_formula Pages: 1 -->
<svg width="447pt" height="39pt"
 viewBox="0.00 0.00 447.00 39.00" xmlns="http://www.w3.org/2000/svg" xmlns:xlink="http://www.w3.org/1999/xlink">
<g id="graph0" class="graph" transform="scale(1 1) rotate(0) translate(4 35)">
<title>EP::rational_recursive_formula</title>
<polygon fill="white" stroke="none" points="-4,4 -4,-35 443,-35 443,4 -4,4"/>
<!-- Node28 -->
<g id="node1" class="node"><title>Node28</title>
<polygon fill="#bfbfbf" stroke="black" points="0,-0.5 0,-30.5 111,-30.5 111,-0.5 0,-0.5"/>
<text text-anchor="start" x="8" y="-18.5" font-family="FreeSans" font-size="10.00">EP::rational_recursive</text>
<text text-anchor="middle" x="55.5" y="-7.5" font-family="FreeSans" font-size="10.00">_formula</text>
</g>
<!-- Node29 -->
<g id="node2" class="node"><title>Node29</title>
<g id="a_node2"><a xlink:href="namespaceEP.html#a069470acd4f6c52b2ebb68afcf4528ab" target="_top" xlink:title="Rational extrapolation of Tsize number of data together. ">
<polygon fill="white" stroke="black" points="147,-6 147,-25 275,-25 275,-6 147,-6"/>
<text text-anchor="middle" x="211" y="-13" font-family="FreeSans" font-size="10.00">EP::rational_extrapolation</text>
</a>
</g>
</g>
<!-- Node28&#45;&gt;Node29 -->
<g id="edge1" class="edge"><title>Node28&#45;&gt;Node29</title>
<path fill="none" stroke="midnightblue" d="M121.296,-15.5C129.802,-15.5 138.508,-15.5 146.983,-15.5"/>
<polygon fill="midnightblue" stroke="midnightblue" points="121.051,-12.0001 111.051,-15.5 121.051,-19.0001 121.051,-12.0001"/>
</g>
<!-- Node30 -->
<g id="node3" class="node"><title>Node30</title>
<g id="a_node3"><a xlink:href="classARC_1_1chain.html#ae4d0002cceee2397101a43b3755f927e" target="_top" xlink:title="Extrapolation integration. ">
<polygon fill="white" stroke="black" points="311,-0.5 311,-30.5 439,-30.5 439,-0.5 311,-0.5"/>
<text text-anchor="start" x="319" y="-18.5" font-family="FreeSans" font-size="10.00">ARC::chain::extrapolation</text>
<text text-anchor="middle" x="375" y="-7.5" font-family="FreeSans" font-size="10.00">_integration</text>
</a>
</g>
</g>
<!-- Node29&#45;&gt;Node30 -->
<g id="edge2" class="edge"><title>Node29&#45;&gt;Node30</title>
<path fill="none" stroke="midnightblue" d="M285.374,-15.5C293.865,-15.5 302.469,-15.5 310.808,-15.5"/>
<polygon fill="midnightblue" stroke="midnightblue" points="285.097,-12.0001 275.097,-15.5 285.097,-19.0001 285.097,-12.0001"/>
</g>
</g>
</svg>
