<?xml version="1.0" encoding="UTF-8" standalone="no"?>
<!DOCTYPE svg PUBLIC "-//W3C//DTD SVG 1.1//EN"
 "http://www.w3.org/Graphics/SVG/1.1/DTD/svg11.dtd">
<!-- Generated by graphviz version 2.38.0 (20140413.2041)
 -->
<!-- Title: EP::polynomial_recursive_formula Pages: 1 -->
<svg width="474pt" height="39pt"
 viewBox="0.00 0.00 474.00 39.00" xmlns="http://www.w3.org/2000/svg" xmlns:xlink="http://www.w3.org/1999/xlink">
<g id="graph0" class="graph" transform="scale(1 1) rotate(0) translate(4 35)">
<title>EP::polynomial_recursive_formula</title>
<polygon fill="white" stroke="none" points="-4,4 -4,-35 470,-35 470,4 -4,4"/>
<!-- Node20 -->
<g id="node1" class="node"><title>Node20</title>
<polygon fill="#bfbfbf" stroke="black" points="0,-0.5 0,-30.5 125,-30.5 125,-0.5 0,-0.5"/>
<text text-anchor="start" x="8" y="-18.5" font-family="FreeSans" font-size="10.00">EP::polynomial_recursive</text>
<text text-anchor="middle" x="62.5" y="-7.5" font-family="FreeSans" font-size="10.00">_formula</text>
</g>
<!-- Node21 -->
<g id="node2" class="node"><title>Node21</title>
<g id="a_node2"><a xlink:href="namespaceEP.html#ae89d6690a891336eef708e90e575a2be" target="_top" xlink:title="Polynomial extrapolation of Tsize number of data together. ">
<polygon fill="white" stroke="black" points="161,-6 161,-25 302,-25 302,-6 161,-6"/>
<text text-anchor="middle" x="231.5" y="-13" font-family="FreeSans" font-size="10.00">EP::polynomial_extrapolation</text>
</a>
</g>
</g>
<!-- Node20&#45;&gt;Node21 -->
<g id="edge1" class="edge"><title>Node20&#45;&gt;Node21</title>
<path fill="none" stroke="midnightblue" d="M135.41,-15.5C143.857,-15.5 152.465,-15.5 160.88,-15.5"/>
<polygon fill="midnightblue" stroke="midnightblue" points="135.21,-12.0001 125.21,-15.5 135.21,-19.0001 135.21,-12.0001"/>
</g>
<!-- Node22 -->
<g id="node3" class="node"><title>Node22</title>
<g id="a_node3"><a xlink:href="classARC_1_1chain.html#ae4d0002cceee2397101a43b3755f927e" target="_top" xlink:title="Extrapolation integration. ">
<polygon fill="white" stroke="black" points="338,-0.5 338,-30.5 466,-30.5 466,-0.5 338,-0.5"/>
<text text-anchor="start" x="346" y="-18.5" font-family="FreeSans" font-size="10.00">ARC::chain::extrapolation</text>
<text text-anchor="middle" x="402" y="-7.5" font-family="FreeSans" font-size="10.00">_integration</text>
</a>
</g>
</g>
<!-- Node21&#45;&gt;Node22 -->
<g id="edge2" class="edge"><title>Node21&#45;&gt;Node22</title>
<path fill="none" stroke="midnightblue" d="M312.102,-15.5C320.745,-15.5 329.453,-15.5 337.862,-15.5"/>
<polygon fill="midnightblue" stroke="midnightblue" points="312.008,-12.0001 302.008,-15.5 312.008,-19.0001 312.008,-12.0001"/>
</g>
</g>
</svg>
