<?xml version="1.0" encoding="UTF-8" standalone="no"?>
<!DOCTYPE svg PUBLIC "-//W3C//DTD SVG 1.1//EN"
 "http://www.w3.org/Graphics/SVG/1.1/DTD/svg11.dtd">
<!-- Generated by graphviz version 2.38.0 (20140413.2041)
 -->
<!-- Title: EP::Hermite_interpolation_polynomial Pages: 1 -->
<svg width="299pt" height="39pt"
 viewBox="0.00 0.00 299.00 39.00" xmlns="http://www.w3.org/2000/svg" xmlns:xlink="http://www.w3.org/1999/xlink">
<g id="graph0" class="graph" transform="scale(1 1) rotate(0) translate(4 35)">
<title>EP::Hermite_interpolation_polynomial</title>
<polygon fill="white" stroke="none" points="-4,4 -4,-35 295,-35 295,4 -4,4"/>
<!-- Node13 -->
<g id="node1" class="node"><title>Node13</title>
<polygon fill="#bfbfbf" stroke="black" points="0,-0.5 0,-30.5 127,-30.5 127,-0.5 0,-0.5"/>
<text text-anchor="start" x="8" y="-18.5" font-family="FreeSans" font-size="10.00">EP::Hermite_interpolation</text>
<text text-anchor="middle" x="63.5" y="-7.5" font-family="FreeSans" font-size="10.00">_polynomial</text>
</g>
<!-- Node14 -->
<g id="node2" class="node"><title>Node14</title>
<g id="a_node2"><a xlink:href="classARC_1_1chain.html#adedfb41cd82c64ca09dbc55a76b145fc" target="_top" xlink:title="Extrapolation integration. ">
<polygon fill="white" stroke="black" points="163,-0.5 163,-30.5 291,-30.5 291,-0.5 163,-0.5"/>
<text text-anchor="start" x="171" y="-18.5" font-family="FreeSans" font-size="10.00">ARC::chain::extrapolation</text>
<text text-anchor="middle" x="227" y="-7.5" font-family="FreeSans" font-size="10.00">_integration</text>
</a>
</g>
</g>
<!-- Node13&#45;&gt;Node14 -->
<g id="edge1" class="edge"><title>Node13&#45;&gt;Node14</title>
<path fill="none" stroke="midnightblue" d="M137.569,-15.5C145.969,-15.5 154.482,-15.5 162.738,-15.5"/>
<polygon fill="midnightblue" stroke="midnightblue" points="137.403,-12.0001 127.403,-15.5 137.403,-19.0001 137.403,-12.0001"/>
</g>
</g>
</svg>
