<?xml version="1.0" encoding="UTF-8" standalone="no"?>
<!DOCTYPE svg PUBLIC "-//W3C//DTD SVG 1.1//EN"
 "http://www.w3.org/Graphics/SVG/1.1/DTD/svg11.dtd">
<!-- Generated by graphviz version 2.38.0 (20140413.2041)
 -->
<!-- Title: /mnt/c/Users/longw/Documents/GitHub/ARC/include/Newtonian_acceleration.h Pages: 1 -->
<svg width="228pt" height="162pt"
 viewBox="0.00 0.00 228.00 162.00" xmlns="http://www.w3.org/2000/svg" xmlns:xlink="http://www.w3.org/1999/xlink">
<g id="graph0" class="graph" transform="scale(1 1) rotate(0) translate(4 158)">
<title>/mnt/c/Users/longw/Documents/GitHub/ARC/include/Newtonian_acceleration.h</title>
<polygon fill="white" stroke="none" points="-4,4 -4,-158 224,-158 224,4 -4,4"/>
<!-- Node1 -->
<g id="node1" class="node"><title>Node1</title>
<polygon fill="#bfbfbf" stroke="black" points="0,-112.5 0,-153.5 179,-153.5 179,-112.5 0,-112.5"/>
<text text-anchor="start" x="8" y="-141.5" font-family="FreeSans" font-size="10.00">/mnt/c/Users/longw</text>
<text text-anchor="start" x="8" y="-130.5" font-family="FreeSans" font-size="10.00">/Documents/GitHub/ARC</text>
<text text-anchor="middle" x="89.5" y="-119.5" font-family="FreeSans" font-size="10.00">/include/Newtonian_acceleration.h</text>
</g>
<!-- Node2 -->
<g id="node2" class="node"><title>Node2</title>
<polygon fill="white" stroke="#bfbfbf" points="1,-56.5 1,-75.5 48,-75.5 48,-56.5 1,-56.5"/>
<text text-anchor="middle" x="24.5" y="-63.5" font-family="FreeSans" font-size="10.00">cstdlib</text>
</g>
<!-- Node1&#45;&gt;Node2 -->
<g id="edge1" class="edge"><title>Node1&#45;&gt;Node2</title>
<path fill="none" stroke="midnightblue" d="M69.9979,-112.498C60.5113,-103.011 49.2557,-91.7557 40.3131,-82.8131"/>
<polygon fill="midnightblue" stroke="midnightblue" points="42.6985,-80.2487 33.1525,-75.6525 37.7487,-85.1985 42.6985,-80.2487"/>
</g>
<!-- Node3 -->
<g id="node3" class="node"><title>Node3</title>
<polygon fill="white" stroke="#bfbfbf" points="66,-56.5 66,-75.5 113,-75.5 113,-56.5 66,-56.5"/>
<text text-anchor="middle" x="89.5" y="-63.5" font-family="FreeSans" font-size="10.00">cmath</text>
</g>
<!-- Node1&#45;&gt;Node3 -->
<g id="edge2" class="edge"><title>Node1&#45;&gt;Node3</title>
<path fill="none" stroke="midnightblue" d="M89.5,-112.498C89.5,-104.065 89.5,-94.2351 89.5,-85.874"/>
<polygon fill="midnightblue" stroke="midnightblue" points="93.0001,-85.6525 89.5,-75.6525 86.0001,-85.6525 93.0001,-85.6525"/>
</g>
<!-- Node4 -->
<g id="node4" class="node"><title>Node4</title>
<g id="a_node4"><a xlink:href="particle_8h.html" target="_top" xlink:title="particle.h">
<polygon fill="white" stroke="black" points="131,-56.5 131,-75.5 192,-75.5 192,-56.5 131,-56.5"/>
<text text-anchor="middle" x="161.5" y="-63.5" font-family="FreeSans" font-size="10.00">particle.h</text>
</a>
</g>
</g>
<!-- Node1&#45;&gt;Node4 -->
<g id="edge3" class="edge"><title>Node1&#45;&gt;Node4</title>
<path fill="none" stroke="midnightblue" d="M111.102,-112.498C121.717,-102.915 134.33,-91.5281 144.283,-82.5428"/>
<polygon fill="midnightblue" stroke="midnightblue" points="146.838,-84.9515 151.916,-75.6525 142.148,-79.7556 146.838,-84.9515"/>
</g>
<!-- Node5 -->
<g id="node5" class="node"><title>Node5</title>
<polygon fill="white" stroke="#bfbfbf" points="100.5,-0.5 100.5,-19.5 152.5,-19.5 152.5,-0.5 100.5,-0.5"/>
<text text-anchor="middle" x="126.5" y="-7.5" font-family="FreeSans" font-size="10.00">cassert</text>
</g>
<!-- Node4&#45;&gt;Node5 -->
<g id="edge4" class="edge"><title>Node4&#45;&gt;Node5</title>
<path fill="none" stroke="midnightblue" d="M155.72,-56.083C150.828,-48.5341 143.673,-37.4948 137.667,-28.2298"/>
<polygon fill="midnightblue" stroke="midnightblue" points="140.548,-26.239 132.172,-19.7511 134.674,-30.0463 140.548,-26.239"/>
</g>
<!-- Node6 -->
<g id="node6" class="node"><title>Node6</title>
<polygon fill="white" stroke="#bfbfbf" points="171,-0.5 171,-19.5 220,-19.5 220,-0.5 171,-0.5"/>
<text text-anchor="middle" x="195.5" y="-7.5" font-family="FreeSans" font-size="10.00">cstring</text>
</g>
<!-- Node4&#45;&gt;Node6 -->
<g id="edge5" class="edge"><title>Node4&#45;&gt;Node6</title>
<path fill="none" stroke="midnightblue" d="M167.114,-56.083C171.867,-48.5341 178.818,-37.4948 184.652,-28.2298"/>
<polygon fill="midnightblue" stroke="midnightblue" points="187.624,-30.0783 189.99,-19.7511 181.7,-26.3486 187.624,-30.0783"/>
</g>
</g>
</svg>
