<?xml version="1.0" encoding="UTF-8" standalone="no"?>
<!DOCTYPE svg PUBLIC "-//W3C//DTD SVG 1.1//EN"
 "http://www.w3.org/Graphics/SVG/1.1/DTD/svg11.dtd">
<!-- Generated by graphviz version 2.38.0 (20140413.2041)
 -->
<!-- Title: C:/Users/longw/Documents/GitHub/ARC/include/Newtonian_acceleration.h Pages: 1 -->
<svg width="160pt" height="106pt"
 viewBox="0.00 0.00 160.00 106.00" xmlns="http://www.w3.org/2000/svg" xmlns:xlink="http://www.w3.org/1999/xlink">
<g id="graph0" class="graph" transform="scale(1 1) rotate(0) translate(4 102)">
<title>C:/Users/longw/Documents/GitHub/ARC/include/Newtonian_acceleration.h</title>
<polygon fill="white" stroke="none" points="-4,4 -4,-102 156,-102 156,4 -4,4"/>
<!-- Node0 -->
<g id="node1" class="node"><title>Node0</title>
<polygon fill="#bfbfbf" stroke="black" points="0,-56.5 0,-97.5 152,-97.5 152,-56.5 0,-56.5"/>
<text text-anchor="start" x="8" y="-85.5" font-family="FreeSans" font-size="10.00">C:/Users/longw/Documents</text>
<text text-anchor="start" x="8" y="-74.5" font-family="FreeSans" font-size="10.00">/GitHub/ARC/include/Newtonian</text>
<text text-anchor="middle" x="76" y="-63.5" font-family="FreeSans" font-size="10.00">_acceleration.h</text>
</g>
<!-- Node1 -->
<g id="node2" class="node"><title>Node1</title>
<polygon fill="white" stroke="#bfbfbf" points="23,-0.5 23,-19.5 67,-19.5 67,-0.5 23,-0.5"/>
<text text-anchor="middle" x="45" y="-7.5" font-family="FreeSans" font-size="10.00">cstdlib</text>
</g>
<!-- Node0&#45;&gt;Node1 -->
<g id="edge1" class="edge"><title>Node0&#45;&gt;Node1</title>
<path fill="none" stroke="midnightblue" d="M66.699,-56.4979C62.4945,-47.682 57.5614,-37.3385 53.4622,-28.7432"/>
<polygon fill="midnightblue" stroke="midnightblue" points="56.5905,-27.1719 49.1266,-19.6525 50.2722,-30.1852 56.5905,-27.1719"/>
</g>
<!-- Node2 -->
<g id="node3" class="node"><title>Node2</title>
<polygon fill="white" stroke="#bfbfbf" points="85.5,-0.5 85.5,-19.5 128.5,-19.5 128.5,-0.5 85.5,-0.5"/>
<text text-anchor="middle" x="107" y="-7.5" font-family="FreeSans" font-size="10.00">cmath</text>
</g>
<!-- Node0&#45;&gt;Node2 -->
<g id="edge2" class="edge"><title>Node0&#45;&gt;Node2</title>
<path fill="none" stroke="midnightblue" d="M85.301,-56.4979C89.5055,-47.682 94.4386,-37.3385 98.5378,-28.7432"/>
<polygon fill="midnightblue" stroke="midnightblue" points="101.728,-30.1852 102.873,-19.6525 95.4095,-27.1719 101.728,-30.1852"/>
</g>
</g>
</svg>
