<?xml version="1.0" encoding="UTF-8" standalone="no"?>
<!DOCTYPE svg PUBLIC "-//W3C//DTD SVG 1.1//EN"
 "http://www.w3.org/Graphics/SVG/1.1/DTD/svg11.dtd">
<!-- Generated by graphviz version 2.38.0 (20140413.2041)
 -->
<!-- Title: C:/Users/longw/Documents/GitHub/ARC/include/Newtonian_acceleration.h Pages: 1 -->
<svg width="215pt" height="162pt"
 viewBox="0.00 0.00 214.50 162.00" xmlns="http://www.w3.org/2000/svg" xmlns:xlink="http://www.w3.org/1999/xlink">
<g id="graph0" class="graph" transform="scale(1 1) rotate(0) translate(4 158)">
<title>C:/Users/longw/Documents/GitHub/ARC/include/Newtonian_acceleration.h</title>
<polygon fill="white" stroke="none" points="-4,4 -4,-158 210.5,-158 210.5,4 -4,4"/>
<!-- Node0 -->
<g id="node1" class="node"><title>Node0</title>
<polygon fill="#bfbfbf" stroke="black" points="8,-112.5 8,-153.5 160,-153.5 160,-112.5 8,-112.5"/>
<text text-anchor="start" x="16" y="-141.5" font-family="FreeSans" font-size="10.00">C:/Users/longw/Documents</text>
<text text-anchor="start" x="16" y="-130.5" font-family="FreeSans" font-size="10.00">/GitHub/ARC/include/Newtonian</text>
<text text-anchor="middle" x="84" y="-119.5" font-family="FreeSans" font-size="10.00">_acceleration.h</text>
</g>
<!-- Node1 -->
<g id="node2" class="node"><title>Node1</title>
<polygon fill="white" stroke="#bfbfbf" points="0,-56.5 0,-75.5 44,-75.5 44,-56.5 0,-56.5"/>
<text text-anchor="middle" x="22" y="-63.5" font-family="FreeSans" font-size="10.00">cstdlib</text>
</g>
<!-- Node0&#45;&gt;Node1 -->
<g id="edge1" class="edge"><title>Node0&#45;&gt;Node1</title>
<path fill="none" stroke="midnightblue" d="M65.398,-112.498C56.4406,-103.107 45.8298,-91.9829 37.3424,-83.0848"/>
<polygon fill="midnightblue" stroke="midnightblue" points="39.6879,-80.4729 30.2531,-75.6525 34.6226,-85.3043 39.6879,-80.4729"/>
</g>
<!-- Node2 -->
<g id="node3" class="node"><title>Node2</title>
<polygon fill="white" stroke="#bfbfbf" points="62.5,-56.5 62.5,-75.5 105.5,-75.5 105.5,-56.5 62.5,-56.5"/>
<text text-anchor="middle" x="84" y="-63.5" font-family="FreeSans" font-size="10.00">cmath</text>
</g>
<!-- Node0&#45;&gt;Node2 -->
<g id="edge2" class="edge"><title>Node0&#45;&gt;Node2</title>
<path fill="none" stroke="midnightblue" d="M84,-112.498C84,-104.065 84,-94.2351 84,-85.874"/>
<polygon fill="midnightblue" stroke="midnightblue" points="87.5001,-85.6525 84,-75.6525 80.5001,-85.6525 87.5001,-85.6525"/>
</g>
<!-- Node3 -->
<g id="node4" class="node"><title>Node3</title>
<g id="a_node4"><a xlink:href="particle_8h.html" target="_top" xlink:title="particle.h">
<polygon fill="white" stroke="black" points="124,-56.5 124,-75.5 180,-75.5 180,-56.5 124,-56.5"/>
<text text-anchor="middle" x="152" y="-63.5" font-family="FreeSans" font-size="10.00">particle.h</text>
</a>
</g>
</g>
<!-- Node0&#45;&gt;Node3 -->
<g id="edge3" class="edge"><title>Node0&#45;&gt;Node3</title>
<path fill="none" stroke="midnightblue" d="M104.402,-112.498C114.327,-103.011 126.102,-91.7557 135.457,-82.8131"/>
<polygon fill="midnightblue" stroke="midnightblue" points="138.138,-85.0924 142.948,-75.6525 133.301,-80.0323 138.138,-85.0924"/>
</g>
<!-- Node4 -->
<g id="node5" class="node"><title>Node4</title>
<polygon fill="white" stroke="#bfbfbf" points="96.5,-0.5 96.5,-19.5 143.5,-19.5 143.5,-0.5 96.5,-0.5"/>
<text text-anchor="middle" x="120" y="-7.5" font-family="FreeSans" font-size="10.00">cassert</text>
</g>
<!-- Node3&#45;&gt;Node4 -->
<g id="edge4" class="edge"><title>Node3&#45;&gt;Node4</title>
<path fill="none" stroke="midnightblue" d="M146.716,-56.083C142.289,-48.6127 135.837,-37.7244 130.382,-28.5199"/>
<polygon fill="midnightblue" stroke="midnightblue" points="133.295,-26.5697 125.186,-19.7511 127.273,-30.1383 133.295,-26.5697"/>
</g>
<!-- Node5 -->
<g id="node6" class="node"><title>Node5</title>
<polygon fill="white" stroke="#bfbfbf" points="161.5,-0.5 161.5,-19.5 206.5,-19.5 206.5,-0.5 161.5,-0.5"/>
<text text-anchor="middle" x="184" y="-7.5" font-family="FreeSans" font-size="10.00">cstring</text>
</g>
<!-- Node3&#45;&gt;Node5 -->
<g id="edge5" class="edge"><title>Node3&#45;&gt;Node5</title>
<path fill="none" stroke="midnightblue" d="M157.284,-56.083C161.711,-48.6127 168.163,-37.7244 173.618,-28.5199"/>
<polygon fill="midnightblue" stroke="midnightblue" points="176.727,-30.1383 178.814,-19.7511 170.705,-26.5697 176.727,-30.1383"/>
</g>
</g>
</svg>
