<?xml version="1.0" encoding="UTF-8" standalone="no"?>
<!DOCTYPE svg PUBLIC "-//W3C//DTD SVG 1.1//EN"
 "http://www.w3.org/Graphics/SVG/1.1/DTD/svg11.dtd">
<!-- Generated by graphviz version 2.38.0 (20140413.2041)
 -->
<!-- Title: /mnt/c/Users/longw/Documents/GitHub/ARC/include/particle.h Pages: 1 -->
<svg width="187pt" height="128pt"
 viewBox="0.00 0.00 187.00 128.00" xmlns="http://www.w3.org/2000/svg" xmlns:xlink="http://www.w3.org/1999/xlink">
<g id="graph0" class="graph" transform="scale(1 1) rotate(0) translate(4 124)">
<title>/mnt/c/Users/longw/Documents/GitHub/ARC/include/particle.h</title>
<polygon fill="white" stroke="none" points="-4,4 -4,-124 183,-124 183,4 -4,4"/>
<!-- Node1 -->
<g id="node1" class="node"><title>Node1</title>
<polygon fill="#bfbfbf" stroke="black" points="23,-78.5 23,-119.5 156,-119.5 156,-78.5 23,-78.5"/>
<text text-anchor="start" x="31" y="-107.5" font-family="FreeSans" font-size="10.00">/mnt/c/Users/longw</text>
<text text-anchor="start" x="31" y="-96.5" font-family="FreeSans" font-size="10.00">/Documents/GitHub/ARC</text>
<text text-anchor="middle" x="89.5" y="-85.5" font-family="FreeSans" font-size="10.00">/include/particle.h</text>
</g>
<!-- Node2 -->
<g id="node2" class="node"><title>Node2</title>
<g id="a_node2"><a xlink:href="Newtonian__acceleration_8h.html" target="_top" xlink:title="/mnt/c/Users/longw\l/Documents/GitHub/ARC\l/include/Newtonian_acceleration.h">
<polygon fill="white" stroke="black" points="0,-0.5 0,-41.5 179,-41.5 179,-0.5 0,-0.5"/>
<text text-anchor="start" x="8" y="-29.5" font-family="FreeSans" font-size="10.00">/mnt/c/Users/longw</text>
<text text-anchor="start" x="8" y="-18.5" font-family="FreeSans" font-size="10.00">/Documents/GitHub/ARC</text>
<text text-anchor="middle" x="89.5" y="-7.5" font-family="FreeSans" font-size="10.00">/include/Newtonian_acceleration.h</text>
</a>
</g>
</g>
<!-- Node1&#45;&gt;Node2 -->
<g id="edge1" class="edge"><title>Node1&#45;&gt;Node2</title>
<path fill="none" stroke="midnightblue" d="M89.5,-68.2965C89.5,-59.3009 89.5,-49.6532 89.5,-41.5056"/>
<polygon fill="midnightblue" stroke="midnightblue" points="86.0001,-68.4281 89.5,-78.4281 93.0001,-68.4281 86.0001,-68.4281"/>
</g>
</g>
</svg>
