<?xml version="1.0" encoding="UTF-8" standalone="no"?>
<!DOCTYPE svg PUBLIC "-//W3C//DTD SVG 1.1//EN"
 "http://www.w3.org/Graphics/SVG/1.1/DTD/svg11.dtd">
<!-- Generated by graphviz version 2.38.0 (20140413.2041)
 -->
<!-- Title: C:/Users/longw/Documents/GitHub/ARC/include/particle.h Pages: 1 -->
<svg width="160pt" height="117pt"
 viewBox="0.00 0.00 160.00 117.00" xmlns="http://www.w3.org/2000/svg" xmlns:xlink="http://www.w3.org/1999/xlink">
<g id="graph0" class="graph" transform="scale(1 1) rotate(0) translate(4 113)">
<title>C:/Users/longw/Documents/GitHub/ARC/include/particle.h</title>
<polygon fill="white" stroke="none" points="-4,4 -4,-113 156,-113 156,4 -4,4"/>
<!-- Node3 -->
<g id="node1" class="node"><title>Node3</title>
<polygon fill="#bfbfbf" stroke="black" points="2.5,-78.5 2.5,-108.5 149.5,-108.5 149.5,-78.5 2.5,-78.5"/>
<text text-anchor="start" x="10.5" y="-96.5" font-family="FreeSans" font-size="10.00">C:/Users/longw/Documents</text>
<text text-anchor="middle" x="76" y="-85.5" font-family="FreeSans" font-size="10.00">/GitHub/ARC/include/particle.h</text>
</g>
<!-- Node4 -->
<g id="node2" class="node"><title>Node4</title>
<g id="a_node2"><a xlink:href="Newtonian__acceleration_8h.html" target="_top" xlink:title="C:/Users/longw/Documents\l/GitHub/ARC/include/Newtonian\l_acceleration.h">
<polygon fill="white" stroke="black" points="0,-0.5 0,-41.5 152,-41.5 152,-0.5 0,-0.5"/>
<text text-anchor="start" x="8" y="-29.5" font-family="FreeSans" font-size="10.00">C:/Users/longw/Documents</text>
<text text-anchor="start" x="8" y="-18.5" font-family="FreeSans" font-size="10.00">/GitHub/ARC/include/Newtonian</text>
<text text-anchor="middle" x="76" y="-7.5" font-family="FreeSans" font-size="10.00">_acceleration.h</text>
</a>
</g>
</g>
<!-- Node3&#45;&gt;Node4 -->
<g id="edge1" class="edge"><title>Node3&#45;&gt;Node4</title>
<path fill="none" stroke="midnightblue" d="M76,-67.9815C76,-59.3468 76,-49.7625 76,-41.5884"/>
<polygon fill="midnightblue" stroke="midnightblue" points="72.5001,-68.2332 76,-78.2333 79.5001,-68.2333 72.5001,-68.2332"/>
</g>
</g>
</svg>
