<?xml version="1.0" encoding="UTF-8" standalone="no"?>
<!DOCTYPE svg PUBLIC "-//W3C//DTD SVG 1.1//EN"
 "http://www.w3.org/Graphics/SVG/1.1/DTD/svg11.dtd">
<!-- Generated by graphviz version 2.38.0 (20140413.2041)
 -->
<!-- Title: /mnt/c/Users/longw/Documents/GitHub/ARC/include/particle.h Pages: 1 -->
<svg width="141pt" height="106pt"
 viewBox="0.00 0.00 141.00 106.00" xmlns="http://www.w3.org/2000/svg" xmlns:xlink="http://www.w3.org/1999/xlink">
<g id="graph0" class="graph" transform="scale(1 1) rotate(0) translate(4 102)">
<title>/mnt/c/Users/longw/Documents/GitHub/ARC/include/particle.h</title>
<polygon fill="white" stroke="none" points="-4,4 -4,-102 137,-102 137,4 -4,4"/>
<!-- Node1 -->
<g id="node1" class="node"><title>Node1</title>
<polygon fill="#bfbfbf" stroke="black" points="0,-56.5 0,-97.5 133,-97.5 133,-56.5 0,-56.5"/>
<text text-anchor="start" x="8" y="-85.5" font-family="FreeSans" font-size="10.00">/mnt/c/Users/longw</text>
<text text-anchor="start" x="8" y="-74.5" font-family="FreeSans" font-size="10.00">/Documents/GitHub/ARC</text>
<text text-anchor="middle" x="66.5" y="-63.5" font-family="FreeSans" font-size="10.00">/include/particle.h</text>
</g>
<!-- Node2 -->
<g id="node2" class="node"><title>Node2</title>
<polygon fill="white" stroke="#bfbfbf" points="6.5,-0.5 6.5,-19.5 58.5,-19.5 58.5,-0.5 6.5,-0.5"/>
<text text-anchor="middle" x="32.5" y="-7.5" font-family="FreeSans" font-size="10.00">cassert</text>
</g>
<!-- Node1&#45;&gt;Node2 -->
<g id="edge1" class="edge"><title>Node1&#45;&gt;Node2</title>
<path fill="none" stroke="midnightblue" d="M56.2989,-56.4979C51.6875,-47.682 46.2771,-37.3385 41.7811,-28.7432"/>
<polygon fill="midnightblue" stroke="midnightblue" points="44.7623,-26.8912 37.0259,-19.6525 38.5596,-30.1357 44.7623,-26.8912"/>
</g>
<!-- Node3 -->
<g id="node3" class="node"><title>Node3</title>
<polygon fill="white" stroke="#bfbfbf" points="77,-0.5 77,-19.5 126,-19.5 126,-0.5 77,-0.5"/>
<text text-anchor="middle" x="101.5" y="-7.5" font-family="FreeSans" font-size="10.00">cstring</text>
</g>
<!-- Node1&#45;&gt;Node3 -->
<g id="edge2" class="edge"><title>Node1&#45;&gt;Node3</title>
<path fill="none" stroke="midnightblue" d="M77.0012,-56.4979C81.7997,-47.5862 87.4389,-37.1135 92.0965,-28.4636"/>
<polygon fill="midnightblue" stroke="midnightblue" points="95.1816,-30.1166 96.841,-19.6525 89.0183,-26.7978 95.1816,-30.1166"/>
</g>
</g>
</svg>
